<svg aria-hidden="true" style="position: absolute; width: 0; height: 0; overflow: hidden;" version="1.1" xmlns="http://www.w3.org/2000/svg" xmlns:xlink="http://www.w3.org/1999/xlink">
<defs>
<symbol id="icon-connection" viewBox="0 0 40 32">
<title>connection</title>
<path d="M20 18c3.308 0 6.308 1.346 8.481 3.519l-2.827 2.827c-1.449-1.449-3.449-2.346-5.654-2.346s-4.206 0.897-5.654 2.346l-2.827-2.827c2.173-2.173 5.173-3.519 8.481-3.519zM5.858 15.858c3.777-3.777 8.8-5.858 14.142-5.858s10.365 2.080 14.142 5.858l-2.828 2.828c-3.022-3.022-7.040-4.686-11.314-4.686s-8.292 1.664-11.314 4.686l-2.828-2.828zM30.899 4.201c3.334 1.41 6.329 3.429 8.899 6v0l-2.828 2.828c-4.533-4.533-10.56-7.029-16.971-7.029s-12.438 2.496-16.971 7.029l-2.828-2.828c2.571-2.571 5.565-4.589 8.899-6 3.453-1.461 7.12-2.201 10.899-2.201s7.446 0.741 10.899 2.201zM18 28c0-1.105 0.895-2 2-2s2 0.895 2 2c0 1.105-0.895 2-2 2s-2-0.895-2-2z"></path>
</symbol>
<symbol id="icon-bug" viewBox="0 0 32 32">
<title>bug</title>
<path d="M32 18v-2h-6.040c-0.183-2.271-0.993-4.345-2.24-6.008h5.061l2.189-8.758-1.94-0.485-1.811 7.242h-5.459c-0.028-0.022-0.056-0.043-0.084-0.064 0.21-0.609 0.324-1.263 0.324-1.944 0-3.305-2.686-5.984-6-5.984s-6 2.679-6 5.984c0 0.68 0.114 1.334 0.324 1.944-0.028 0.021-0.056 0.043-0.084 0.064h-5.459l-1.811-7.242-1.94 0.485 2.189 8.758h5.061c-1.246 1.663-2.056 3.736-2.24 6.008h-6.040v2h6.043c0.119 1.427 0.485 2.775 1.051 3.992h-3.875l-2.189 8.757 1.94 0.485 1.811-7.243h3.511c1.834 2.439 4.606 3.992 7.708 3.992s5.874-1.554 7.708-3.992h3.511l1.811 7.243 1.94-0.485-2.189-8.757h-3.875c0.567-1.217 0.932-2.565 1.051-3.992h6.043z"></path>
</symbol>
<symbol id="icon-meter" viewBox="0 0 32 32">
<title>meter</title>
<path d="M16 2c8.837 0 16 7.163 16 16 0 6.025-3.331 11.271-8.25 14h-15.499c-4.92-2.729-8.25-7.975-8.25-14 0-8.837 7.163-16 16-16zM25.060 27.060c2.42-2.42 3.753-5.637 3.753-9.060h-2.813v-2h2.657c-0.219-1.406-0.668-2.755-1.33-4h-3.327v-2h2.009c-0.295-0.368-0.611-0.722-0.949-1.060-1.444-1.444-3.173-2.501-5.060-3.119v2.178h-2v-2.658c-0.656-0.102-1.324-0.155-2-0.155s-1.344 0.053-2 0.155v2.658h-2v-2.178c-1.887 0.617-3.615 1.674-5.060 3.119-0.338 0.338-0.654 0.692-0.949 1.060h2.009v2h-3.327c-0.662 1.245-1.111 2.594-1.33 4h2.657v2h-2.813c0 3.422 1.333 6.64 3.753 9.060 0.335 0.335 0.685 0.648 1.049 0.94h6.011l1.143-16h1.714l1.143 16h6.011c0.364-0.292 0.714-0.606 1.049-0.94z"></path>
</symbol>
<symbol id="icon-shield" viewBox="0 0 32 32">
<title>shield</title>
<path d="M30 0l-14 4-14-4c0 0-0.141 1.616 0 4l14 4.378 14-4.378c0.141-2.384 0-4 0-4zM2.256 6.097c0.75 7.834 3.547 21.007 13.744 25.903 10.197-4.896 12.995-18.069 13.744-25.903l-13.744 5.167-13.744-5.167z"></path>
</symbol>
</defs>
</svg>
