<!-- Generated by IcoMoon.io -->
<svg version="1.1" xmlns="http://www.w3.org/2000/svg" width="32" height="32" viewBox="0 0 32 32">
<title>bug</title>
<path d="M32 18v-2h-6.040c-0.183-2.271-0.993-4.345-2.24-6.008h5.061l2.189-8.758-1.94-0.485-1.811 7.242h-5.459c-0.028-0.022-0.056-0.043-0.084-0.064 0.21-0.609 0.324-1.263 0.324-1.944 0-3.305-2.686-5.984-6-5.984s-6 2.679-6 5.984c0 0.68 0.114 1.334 0.324 1.944-0.028 0.021-0.056 0.043-0.084 0.064h-5.459l-1.811-7.242-1.94 0.485 2.189 8.758h5.061c-1.246 1.663-2.056 3.736-2.24 6.008h-6.040v2h6.043c0.119 1.427 0.485 2.775 1.051 3.992h-3.875l-2.189 8.757 1.94 0.485 1.811-7.243h3.511c1.834 2.439 4.606 3.992 7.708 3.992s5.874-1.554 7.708-3.992h3.511l1.811 7.243 1.94-0.485-2.189-8.757h-3.875c0.567-1.217 0.932-2.565 1.051-3.992h6.043z"></path>
</svg>
