<!-- Generated by IcoMoon.io -->
<svg version="1.1" xmlns="http://www.w3.org/2000/svg" width="40" height="32" viewBox="0 0 40 32">
<title>connection</title>
<path d="M20 18c3.308 0 6.308 1.346 8.481 3.519l-2.827 2.827c-1.449-1.449-3.449-2.346-5.654-2.346s-4.206 0.897-5.654 2.346l-2.827-2.827c2.173-2.173 5.173-3.519 8.481-3.519zM5.858 15.858c3.777-3.777 8.8-5.858 14.142-5.858s10.365 2.080 14.142 5.858l-2.828 2.828c-3.022-3.022-7.040-4.686-11.314-4.686s-8.292 1.664-11.314 4.686l-2.828-2.828zM30.899 4.201c3.334 1.41 6.329 3.429 8.899 6v0l-2.828 2.828c-4.533-4.533-10.56-7.029-16.971-7.029s-12.438 2.496-16.971 7.029l-2.828-2.828c2.571-2.571 5.565-4.589 8.899-6 3.453-1.461 7.12-2.201 10.899-2.201s7.446 0.741 10.899 2.201zM18 28c0-1.105 0.895-2 2-2s2 0.895 2 2c0 1.105-0.895 2-2 2s-2-0.895-2-2z"></path>
</svg>
