<!-- Generated by IcoMoon.io -->
<svg version="1.1" xmlns="http://www.w3.org/2000/svg" width="32" height="32" viewBox="0 0 32 32">
<title>meter</title>
<path d="M16 2c8.837 0 16 7.163 16 16 0 6.025-3.331 11.271-8.25 14h-15.499c-4.92-2.729-8.25-7.975-8.25-14 0-8.837 7.163-16 16-16zM25.060 27.060c2.42-2.42 3.753-5.637 3.753-9.060h-2.813v-2h2.657c-0.219-1.406-0.668-2.755-1.33-4h-3.327v-2h2.009c-0.295-0.368-0.611-0.722-0.949-1.060-1.444-1.444-3.173-2.501-5.060-3.119v2.178h-2v-2.658c-0.656-0.102-1.324-0.155-2-0.155s-1.344 0.053-2 0.155v2.658h-2v-2.178c-1.887 0.617-3.615 1.674-5.060 3.119-0.338 0.338-0.654 0.692-0.949 1.060h2.009v2h-3.327c-0.662 1.245-1.111 2.594-1.33 4h2.657v2h-2.813c0 3.422 1.333 6.64 3.753 9.060 0.335 0.335 0.685 0.648 1.049 0.94h6.011l1.143-16h1.714l1.143 16h6.011c0.364-0.292 0.714-0.606 1.049-0.94z"></path>
</svg>
