<?xml version="1.0" encoding="utf-8"?>
<!-- Generator: Adobe Illustrator 18.1.1, SVG Export Plug-In . SVG Version: 6.00 Build 0)  -->
<svg version="1.0" id="Layer_1" xmlns="http://www.w3.org/2000/svg" xmlns:xlink="http://www.w3.org/1999/xlink" x="0px" y="0px"
	 width="220px" height="82.8px" viewBox="0 0 220 82.8" enable-background="new 0 0 220 82.8" xml:space="preserve">
<g>
	<path fill="#6D6E71" d="M99.9,70.3l7.5,8.7v-8.7h1.6v12.3h-0.6l-7.5-8.6v8.6h-1.6V70.3H99.9z"/>
	<path fill="#6D6E71" d="M113,82.5V70.5v-0.2h7.1v1.6l-5.6,0v3.3h5.5v1.6h-5.5V81h5.5v1.6H113L113,82.5z"/>
	<path fill="#6D6E71" d="M122.9,71.9v-1.6h6.8v1.6h-2.6v10.7h-1.6l0,0V71.9H122.9z"/>
	<path fill="#6D6E71" d="M132.5,70.5l-0.1-0.3h1.6l2.3,8.1l3.2-8.1h0.1h0.4l3.2,8.1l2.3-8.1h1.6l-3.5,12.3h-0.2l0,0h-0.4l-3.4-8.6
		l-3.4,8.6h-0.1h-0.4L132.5,70.5"/>
	<path fill="#6D6E71" d="M155.6,70c1.8,0,3.4,0.6,4.6,1.9l0,0c1.2,1.2,1.9,2.8,1.9,4.6l0,0c0,1.8-0.6,3.3-1.9,4.6l0,0
		c-1.2,1.2-2.8,1.9-4.5,1.9l0,0c0,0,0,0,0,0l0,0c-1.8,0-3.3-0.6-4.6-1.9l0,0c-1.2-1.2-1.9-2.8-1.9-4.5l0,0c0-1.2,0.3-2.3,0.8-3.3
		l0,0c0.6-1,1.3-1.8,2.3-2.4l0,0C153.4,70.3,154.5,70,155.6,70L155.6,70 M155.6,71.5c-0.8,0-1.6,0.2-2.4,0.7l0,0
		c-0.8,0.4-1.3,1-1.8,1.8l0,0c-0.4,0.7-0.6,1.6-0.6,2.5l0,0c0,1.4,0.5,2.5,1.4,3.4l0,0c0.9,0.9,2,1.4,3.4,1.4l0,0
		c0.9,0,1.7-0.2,2.4-0.6l0,0c0.7-0.4,1.3-1,1.7-1.8l0,0c0.4-0.7,0.6-1.6,0.6-2.5l0,0c0-0.9-0.2-1.7-0.6-2.5l0,0
		c-0.4-0.7-1-1.3-1.8-1.8l0,0C157.3,71.8,156.5,71.5,155.6,71.5L155.6,71.5"/>
	<path fill="#6D6E71" d="M171.3,82.5l-4.2-5.5h-0.4v5.5h-1.6v-12v-0.2h2.5c1.3,0,2.2,0.1,2.7,0.2l0,0c0.7,0.2,1.4,0.5,1.8,1.1l0,0
		c0.5,0.6,0.7,1.3,0.7,2.1l0,0c0,0.7-0.2,1.3-0.5,1.8l0,0c-0.3,0.5-0.8,0.9-1.4,1.2l0,0c-0.5,0.2-1.2,0.4-2,0.4l0,0l4.2,5.5H171.3
		L171.3,82.5z M166.7,75.5l1.8,0c0.8,0,1.3-0.1,1.7-0.2l0,0c0.3-0.1,0.6-0.3,0.8-0.6l0,0c0.2-0.3,0.3-0.6,0.3-1l0,0
		c0-0.4-0.1-0.7-0.3-1l0,0c-0.2-0.3-0.4-0.5-0.8-0.6l0,0c-0.3-0.1-0.9-0.2-1.7-0.2l0,0h-1.9V75.5L166.7,75.5z"/>
	<path fill="#6D6E71" d="M183.8,82.5l-4.9-5.2v5.2h-1.6V70.5v-0.2h1.6v4.2l4.4-4.2h2.2l-5.9,5.5l6.3,6.7H183.8L183.8,82.5z"/>
	<path fill="#6D6E71" d="M188.1,80.2l-0.1-0.2l1.3-0.8l0.1,0.2c0.7,1.3,1.4,1.9,2.3,1.9l0,0c0.4,0,0.7-0.1,1-0.3l0,0
		c0.3-0.2,0.6-0.4,0.7-0.7l0,0c0.2-0.3,0.2-0.6,0.2-0.9l0,0c0-0.4-0.1-0.7-0.4-1.1l0,0c-0.3-0.5-1-1.1-2-1.9l0,0
		c-1-0.8-1.6-1.3-1.9-1.7l0,0c-0.4-0.6-0.7-1.2-0.7-1.9l0,0c0-0.5,0.1-1.1,0.4-1.5l0,0c0.3-0.5,0.6-0.8,1.1-1.1l0,0
		c0.5-0.3,1-0.4,1.5-0.4l0,0c0.6,0,1.1,0.2,1.7,0.4l0,0c0.5,0.3,1,0.8,1.6,1.6l0,0l0.1,0.2l-1.3,1l-0.1-0.2c-0.4-0.6-0.8-1-1.1-1.1
		l0,0c-0.3-0.2-0.6-0.3-0.9-0.3l0,0c-0.4,0-0.8,0.1-1,0.4l0,0c-0.3,0.3-0.4,0.6-0.4,0.9l0,0c0,0.2,0,0.4,0.1,0.7l0,0
		c0.1,0.2,0.3,0.5,0.5,0.7l0,0c0.1,0.1,0.6,0.5,1.5,1.2l0,0c1,0.8,1.7,1.4,2.1,2.1l0,0c0.4,0.6,0.6,1.3,0.6,1.9l0,0
		c0,0.9-0.4,1.7-1,2.4l0,0c-0.7,0.7-1.5,1-2.5,1l0,0c0,0,0,0,0,0l0,0c-0.8,0-1.4-0.2-2.1-0.6l0,0C189.1,81.8,188.6,81.2,188.1,80.2
		L188.1,80.2"/>
</g>
<g>
	<path d="M14.9,31.8l14,30.2h-3.2l-4.7-9.9H8L3.3,62H0l14.2-30.2H14.9z M14.5,38.3L9.4,49.2h10.2L14.5,38.3z"/>
	<path d="M51.5,54.6l2.4,1.3c-0.8,1.6-1.7,2.8-2.7,3.8c-1,1-2.2,1.7-3.5,2.2c-1.3,0.5-2.8,0.7-4.4,0.7c-3.6,0-6.4-1.2-8.5-3.6
		c-2-2.4-3.1-5.1-3.1-8.1c0-2.8,0.9-5.4,2.6-7.6c2.2-2.8,5.1-4.2,8.8-4.2c3.8,0,6.8,1.4,9.1,4.3c1.6,2,2.4,4.6,2.4,7.6H34.7
		c0.1,2.6,0.9,4.7,2.5,6.4c1.6,1.7,3.6,2.5,5.9,2.5c1.1,0,2.2-0.2,3.3-0.6c1.1-0.4,2-0.9,2.7-1.6C49.8,57.1,50.6,56.1,51.5,54.6z
		 M51.5,48.6c-0.4-1.5-0.9-2.8-1.7-3.7c-0.7-0.9-1.7-1.7-2.9-2.2c-1.2-0.6-2.5-0.8-3.8-0.8c-2.2,0-4,0.7-5.6,2.1
		c-1.1,1-2,2.6-2.6,4.6H51.5z"/>
	<path d="M58.9,39.7h2.9V43c0.9-1.3,1.8-2.2,2.7-2.9c1-0.6,2-1,3-1c0.8,0,1.6,0.3,2.5,0.8l-1.5,2.4c-0.6-0.3-1.1-0.4-1.5-0.4
		c-1,0-1.9,0.4-2.8,1.2c-0.9,0.8-1.6,2-2,3.7c-0.4,1.3-0.5,3.8-0.5,7.7V62h-2.9V39.7z"/>
	<path d="M82.8,39.1c3.4,0,6.2,1.2,8.5,3.7c2,2.3,3.1,5,3.1,8.1c0,3.1-1.1,5.8-3.2,8.2c-2.2,2.3-4.9,3.5-8.3,3.5
		c-3.4,0-6.2-1.2-8.3-3.5c-2.2-2.3-3.2-5.1-3.2-8.2c0-3.1,1-5.8,3.1-8C76.6,40.4,79.4,39.1,82.8,39.1z M82.8,41.9
		c-2.4,0-4.4,0.9-6.1,2.6c-1.7,1.8-2.6,3.9-2.6,6.4c0,1.6,0.4,3.1,1.2,4.5c0.8,1.4,1.8,2.5,3.1,3.2c1.3,0.8,2.8,1.1,4.4,1.1
		c1.6,0,3-0.4,4.4-1.1c1.3-0.8,2.4-1.8,3.1-3.2c0.8-1.4,1.2-2.9,1.2-4.5c0-2.5-0.9-4.6-2.6-6.4C87.2,42.8,85.2,41.9,82.8,41.9z"/>
	<path d="M99.6,31.1h2.9v12.6c1.2-1.5,2.4-2.7,3.8-3.4c1.4-0.8,2.9-1.1,4.5-1.1c1.7,0,3.1,0.4,4.4,1.3c1.3,0.8,2.2,2,2.8,3.4
		c0.6,1.4,0.9,3.7,0.9,6.7V62h-2.9V51.4c0-2.6-0.1-4.3-0.3-5.1c-0.4-1.5-1-2.6-1.9-3.3c-0.9-0.7-2.1-1.1-3.7-1.1
		c-1.7,0-3.3,0.6-4.6,1.7c-1.4,1.1-2.3,2.6-2.7,4.3c-0.3,1.1-0.4,3.1-0.4,6.1V62h-2.9V31.1z"/>
	<path d="M126.1,30.5c0.6,0,1.2,0.2,1.7,0.7c0.5,0.5,0.7,1,0.7,1.7c0,0.6-0.2,1.2-0.7,1.7c-0.5,0.5-1,0.7-1.7,0.7
		c-0.6,0-1.2-0.2-1.6-0.7c-0.5-0.5-0.7-1-0.7-1.7c0-0.7,0.2-1.2,0.7-1.7C124.9,30.7,125.4,30.5,126.1,30.5z M124.7,39.7h2.9V62h-2.9
		V39.7z"/>
	<path d="M131.7,39.7h3l7.4,16.3l7.3-16.3h3.1L142.5,62h-0.5L131.7,39.7z"/>
	<path d="M175.2,54.6l2.4,1.3c-0.8,1.6-1.7,2.8-2.7,3.8c-1,1-2.2,1.7-3.5,2.2c-1.3,0.5-2.8,0.7-4.4,0.7c-3.6,0-6.4-1.2-8.5-3.6
		c-2-2.4-3.1-5.1-3.1-8.1c0-2.8,0.9-5.4,2.6-7.6c2.2-2.8,5.1-4.2,8.8-4.2c3.8,0,6.8,1.4,9.1,4.3c1.6,2,2.4,4.6,2.4,7.6h-19.9
		c0.1,2.6,0.9,4.7,2.5,6.4c1.6,1.7,3.6,2.5,5.9,2.5c1.1,0,2.2-0.2,3.3-0.6c1.1-0.4,2-0.9,2.7-1.6C173.5,57.1,174.3,56.1,175.2,54.6z
		 M175.2,48.6c-0.4-1.5-0.9-2.8-1.7-3.7c-0.7-0.9-1.7-1.7-2.9-2.2c-1.2-0.6-2.5-0.8-3.8-0.8c-2.2,0-4,0.7-5.6,2.1
		c-1.1,1-2,2.6-2.6,4.6H175.2z"/>
	<g>
		<polygon fill="#FFC20E" points="183.5,42.1 177.8,32.3 183.5,22.4 194.9,22.4 200.6,32.3 194.9,42.1 		"/>
		<polygon fill="#FFC20E" points="183.5,19.7 177.8,9.9 183.5,0 194.9,0 200.6,9.9 194.9,19.7 		"/>
		<polygon fill="#FFC20E" points="202.9,30.7 197.2,20.9 202.9,11 214.3,11 220,20.9 214.3,30.7 		"/>
	</g>
	<g>
		<path d="M183.1,59.9c0,0.3-0.1,0.6-0.2,0.9c-0.2,0.3-0.4,0.5-0.7,0.7c-0.3,0.2-0.6,0.2-0.9,0.2c-0.3,0-0.6-0.1-0.9-0.2
			c-0.3-0.2-0.5-0.4-0.7-0.7c-0.2-0.3-0.2-0.6-0.2-0.9c0-0.3,0.1-0.6,0.2-0.9c0.2-0.3,0.4-0.5,0.7-0.7c0.3-0.2,0.6-0.2,0.9-0.2
			c0.3,0,0.6,0.1,0.9,0.2c0.3,0.2,0.5,0.4,0.7,0.7C183.1,59.3,183.1,59.6,183.1,59.9z M182.8,59.9c0-0.4-0.1-0.8-0.4-1
			c-0.3-0.3-0.6-0.4-1-0.4c-0.4,0-0.7,0.1-1,0.4c-0.3,0.3-0.4,0.6-0.4,1c0,0.3,0.1,0.5,0.2,0.7c0.1,0.2,0.3,0.4,0.5,0.5
			c0.2,0.1,0.5,0.2,0.7,0.2s0.5-0.1,0.7-0.2c0.2-0.1,0.4-0.3,0.5-0.5C182.7,60.4,182.8,60.2,182.8,59.9z M180.5,58.9h0.9
			c0.2,0,0.3,0,0.4,0.1c0.1,0,0.2,0.1,0.2,0.2c0.1,0.1,0.1,0.2,0.1,0.3c0,0.1,0,0.2,0,0.3c0,0.1-0.1,0.1-0.2,0.2
			c0.1,0,0.1,0.1,0.2,0.1c0,0.1,0,0.1,0.1,0.3c0,0.2,0,0.4,0,0.4c0,0,0,0.1,0.1,0.1h-0.5c0-0.1,0-0.1,0-0.1c0,0,0-0.1,0-0.2
			c0-0.2,0-0.3,0-0.3c0,0,0-0.1-0.1-0.1c0,0-0.1,0-0.2,0H181v0.8h-0.4V58.9z M181,59.3v0.5h0.4c0.1,0,0.2,0,0.3-0.1
			c0,0,0.1-0.1,0.1-0.2c0-0.1,0-0.1-0.1-0.2c0,0-0.1-0.1-0.3-0.1H181z"/>
	</g>
</g>
</svg>
