<?xml version="1.0" encoding="UTF-8" standalone="no"?>
<!-- Created with Inkscape (http://www.inkscape.org/) -->

<svg
   xmlns:dc="http://purl.org/dc/elements/1.1/"
   xmlns:cc="http://creativecommons.org/ns#"
   xmlns:rdf="http://www.w3.org/1999/02/22-rdf-syntax-ns#"
   xmlns:svg="http://www.w3.org/2000/svg"
   xmlns="http://www.w3.org/2000/svg"
   xmlns:sodipodi="http://sodipodi.sourceforge.net/DTD/sodipodi-0.dtd"
   xmlns:inkscape="http://www.inkscape.org/namespaces/inkscape"
   id="svg2"
   version="1.1"
   inkscape:version="0.91 r13725"
   xml:space="preserve"
   width="141.15964"
   height="45.785614"
   viewBox="0 0 141.15964 45.785612"
   sodipodi:docname="Alps_Electric_logoe.svg"><metadata
     id="metadata8"><rdf:RDF><cc:Work
         rdf:about=""><dc:format>image/svg+xml</dc:format><dc:type
           rdf:resource="http://purl.org/dc/dcmitype/StillImage" /><dc:title /></cc:Work></rdf:RDF></metadata><defs
     id="defs6"><clipPath
       clipPathUnits="userSpaceOnUse"
       id="clipPath16"><path
         d="m 376.982,841.89 c 16.178,-19.242 46.398,-65.646 76.62,-167.301 l 0,0 C 493.491,540.416 427.405,392.468 330.677,239.316 l 0,0 C 259.122,126.024 266.965,38.095 275.894,0 l 0,0 61.458,0 c -65.477,181.453 122.837,334.615 184.764,495.24 l 0,0 c 54.87,142.324 -11.364,302.156 -32.332,346.65 l 0,0 -112.802,0 z"
         id="path18"
         inkscape:connector-curvature="0" /></clipPath><clipPath
       clipPathUnits="userSpaceOnUse"
       id="clipPath26"><path
         d="m 253.13776,-8.5034296 0,858.8962896 328.32081,0 0,-858.8962896 -328.32081,0 z"
         id="path28"
         inkscape:connector-curvature="0" /></clipPath><linearGradient
       x1="0"
       y1="0"
       x2="1"
       y2="0"
       gradientUnits="userSpaceOnUse"
       gradientTransform="matrix(0,876.59277,876.59277,0,406.79834,-22.654968)"
       spreadMethod="pad"
       id="linearGradient30"><stop
         style="stop-opacity:1;stop-color:#f0fafe"
         offset="0"
         id="stop32" /><stop
         style="stop-opacity:1;stop-color:#5ab9eb"
         offset="0.539871"
         id="stop34" /><stop
         style="stop-opacity:1;stop-color:#3a6fc0"
         offset="1"
         id="stop36" /></linearGradient><clipPath
       clipPathUnits="userSpaceOnUse"
       id="clipPath44"><path
         d="M 280.088,841.89 C 353.312,767.902 502.896,543.623 438.522,304.512 l 0,0 C 400.083,161.71 400.363,63.116 410.419,0 l 0,0 16.059,0 c -12.723,58.479 -15.235,154.871 18.362,316.454 l 0,0 C 497.141,567.961 363.304,769.787 306.305,841.89 l 0,0 -26.217,0 z"
         id="path46"
         inkscape:connector-curvature="0" /></clipPath><clipPath
       clipPathUnits="userSpaceOnUse"
       id="clipPath54"><path
         d="M 499.92099,-44.511403 139.30333,12.284225 276.97284,886.40179 637.5905,829.60616 499.92099,-44.511403 Z"
         id="path56"
         inkscape:connector-curvature="0" /></clipPath><linearGradient
       x1="0"
       y1="0"
       x2="1"
       y2="0"
       gradientUnits="userSpaceOnUse"
       gradientTransform="matrix(-332.06107,52.298096,52.298096,332.06107,524.79248,363.64484)"
       spreadMethod="pad"
       id="linearGradient58"><stop
         style="stop-opacity:1;stop-color:#f0fafe"
         offset="0"
         id="stop60" /><stop
         style="stop-opacity:1;stop-color:#5ab9eb"
         offset="0.539871"
         id="stop62" /><stop
         style="stop-opacity:1;stop-color:#3a6fc0"
         offset="1"
         id="stop64" /></linearGradient><clipPath
       clipPathUnits="userSpaceOnUse"
       id="clipPath72"><path
         d="M 253.202,841.89 C 327.277,792.635 568.866,606.948 450.29,347.04 l 0,0 C 358.893,146.703 370.619,46.805 390.309,0 l 0,0 9.38,0 c -15.603,37.264 -37.122,139.471 54.968,343.586 l 0,0 C 561.643,580.71 377.672,779.355 282.698,841.89 l 0,0 -29.496,0 z"
         id="path74"
         inkscape:connector-curvature="0" /></clipPath><clipPath
       clipPathUnits="userSpaceOnUse"
       id="clipPath82"><path
         d="m 239.98757,850.39357 337.43054,0 0,-858.8984483 -337.43054,0 0,858.8984483 z"
         id="path84"
         inkscape:connector-curvature="0" /></clipPath><linearGradient
       x1="0"
       y1="0"
       x2="1"
       y2="0"
       gradientUnits="userSpaceOnUse"
       gradientTransform="matrix(133.53749,0,0,-133.53749,235.3418,418.56671)"
       spreadMethod="pad"
       id="linearGradient86"><stop
         style="stop-opacity:1;stop-color:#f0fafe"
         offset="0"
         id="stop88" /><stop
         style="stop-opacity:1;stop-color:#5ab9eb"
         offset="0.539871"
         id="stop90" /><stop
         style="stop-opacity:1;stop-color:#3a6fc0"
         offset="1"
         id="stop92" /></linearGradient><clipPath
       clipPathUnits="userSpaceOnUse"
       id="clipPath100"><path
         d="m 416.747,841.89 c 56.943,-80.969 202.306,-329.132 7.127,-525.014 l 0,0 C 254.642,147.03 241.478,46.247 247.948,0 l 0,0 8.42,0 c -4.01,31.841 -0.795,138.863 170.397,312.116 l 0,0 c 184.717,186.939 77.383,440.455 10.214,529.774 l 0,0 -20.232,0 z"
         id="path102"
         inkscape:connector-curvature="0" /></clipPath><clipPath
       clipPathUnits="userSpaceOnUse"
       id="clipPath110"><path
         d="m 233.70604,850.39034 392.76851,0 0,-858.89502 -392.76851,0 0,858.89502 z"
         id="path112"
         inkscape:connector-curvature="0" /></clipPath><linearGradient
       x1="0"
       y1="0"
       x2="1"
       y2="0"
       gradientUnits="userSpaceOnUse"
       gradientTransform="matrix(412.17728,0,0,-412.17728,241.81299,426.13214)"
       spreadMethod="pad"
       id="linearGradient114"><stop
         style="stop-opacity:1;stop-color:#f0fafe"
         offset="0"
         id="stop116" /><stop
         style="stop-opacity:1;stop-color:#5ab9eb"
         offset="0.539871"
         id="stop118" /><stop
         style="stop-opacity:1;stop-color:#3a6fc0"
         offset="1"
         id="stop120" /></linearGradient><clipPath
       clipPathUnits="userSpaceOnUse"
       id="clipPath128"><path
         d="m 0,0 595.275,0 0,841.89 L 0,841.89 0,0 Z"
         id="path130"
         inkscape:connector-curvature="0" /></clipPath></defs><sodipodi:namedview
     pagecolor="#ffffff"
     bordercolor="#666666"
     borderopacity="1"
     objecttolerance="10"
     gridtolerance="10"
     guidetolerance="10"
     inkscape:pageopacity="0"
     inkscape:pageshadow="2"
     inkscape:window-width="1920"
     inkscape:window-height="1017"
     id="namedview4"
     showgrid="false"
     fit-margin-top="1"
     fit-margin-left="1"
     fit-margin-right="1"
     fit-margin-bottom="1"
     inkscape:zoom="0.63429548"
     inkscape:cx="1107.9009"
     inkscape:cy="-334.70575"
     inkscape:window-x="-8"
     inkscape:window-y="-8"
     inkscape:window-maximized="1"
     inkscape:current-layer="g234" /><g
     id="g10"
     inkscape:groupmode="layer"
     inkscape:label="annual2016_e"
     transform="matrix(1.25,0,0,-1.25,-45.063365,1020.909)"><g
       clip-path="url(#clipPath128)"
       id="g126"><g
         transform="translate(552.0103,-83.811203)"
         id="g188" /><path
         inkscape:connector-curvature="0"
         id="path220"
         style="fill:#ffffff;fill-opacity:1;fill-rule:nonzero;stroke:none"
         d="m 8.504,841.89 -8.504,0 0,8.504 8.504,0 0,-8.504 z" /></g><g
       id="g234"><g
         transform="translate(143.2534,783.7108)"
         id="g294"><path
           inkscape:connector-curvature="0"
           id="path296"
           style="fill:#2056ae;fill-opacity:1;fill-rule:nonzero;stroke:none"
           d="m 0,0 c 0,-0.658 0.256,-1.276 0.72,-1.74 0.467,-0.469 1.085,-0.724 1.743,-0.724 0.659,0 1.274,0.255 1.741,0.724 C 4.67,-1.276 4.925,-0.658 4.925,0 4.925,0.658 4.67,1.277 4.204,1.742 3.737,2.208 3.122,2.463 2.463,2.463 1.104,2.463 0,1.358 0,0 m 2.463,2.324 c 0.619,0 1.205,-0.241 1.643,-0.68 C 4.547,1.205 4.788,0.622 4.788,0 c 0,-1.281 -1.046,-2.327 -2.325,-2.327 -0.622,0 -1.206,0.245 -1.645,0.684 -0.44,0.438 -0.681,1.022 -0.681,1.643 0,0.622 0.241,1.205 0.681,1.644 0.439,0.439 1.023,0.68 1.645,0.68" /></g><g
         transform="translate(145.07671,783.87579)"
         id="g298"><path
           inkscape:connector-curvature="0"
           id="path300"
           style="fill:#2056ae;fill-opacity:1;fill-rule:nonzero;stroke:none"
           d="m 0,0 0.833,0 c 0.322,0 0.498,0.158 0.498,0.465 0,0.369 -0.24,0.443 -0.506,0.443 L 0,0.908 0,0 Z m -0.512,1.324 1.391,0 c 0.638,0 0.963,-0.293 0.963,-0.787 0,-0.558 -0.388,-0.701 -0.483,-0.732 l 0,-0.009 c 0.177,-0.025 0.432,-0.155 0.432,-0.616 0,-0.338 0.051,-0.648 0.162,-0.767 l -0.547,0 c -0.079,0.128 -0.079,0.285 -0.079,0.429 0,0.533 -0.11,0.77 -0.577,0.77 l -0.75,0 0,-1.199 -0.512,0 0,2.911 z" /></g><g
         transform="translate(46.281692,792.35719)"
         id="g302"><path
           inkscape:connector-curvature="0"
           id="path304"
           style="fill:#2056ae;fill-opacity:1;fill-rule:nonzero;stroke:none"
           d="M 0,0 2.354,8.208 4.705,-0.001 0,0 Z m 15.748,-7.16 -5.95,20.74 -15.774,0 0,-3.954 3.08,0 -4.814,-16.786 -1.721,0 0,-3.95 8.883,0 0,3.95 -1.505,0 0.706,2.464 7.399,0 0.701,-2.463 -1.619,-0.001 0,-3.95 12.342,0 0,3.95 -1.728,0 z" /></g><g
         transform="translate(82.767105,791.3694)"
         id="g306"><path
           inkscape:connector-curvature="0"
           id="path308"
           style="fill:#2056ae;fill-opacity:1;fill-rule:nonzero;stroke:none"
           d="m 0,0 0,-6.177 -6.419,0 0,16.792 1.729,0 0,3.953 -12.097,0 0,-3.953 1.728,0 0,-16.792 -1.728,0 0,-3.95 23.205,0 L 6.418,0 0,0 Z" /></g><g
         transform="translate(103.3774,792.85139)"
         id="g310"><path
           inkscape:connector-curvature="0"
           id="path312"
           style="fill:#2056ae;fill-opacity:1;fill-rule:nonzero;stroke:none"
           d="m 0,0 -1.852,0 0,9.134 1.852,0 C 2.523,9.134 4.567,7.089 4.567,4.567 4.567,2.044 2.523,0 0,0 m 3.703,13.086 -15.674,0 0,-3.954 1.483,0 0,-16.786 -1.483,0 0,-3.95 11.601,0 0,3.95 -1.477,0 0,3.703 5.55,0 c 4.703,0 8.518,3.813 8.518,8.518 0,4.703 -3.815,8.519 -8.518,8.519" /></g><g
         transform="translate(137.36571,782.2347)"
         id="g314"><path
           inkscape:connector-curvature="0"
           id="path316"
           style="fill:#2056ae;fill-opacity:1;fill-rule:nonzero;stroke:none"
           d="m 0,0 c 1.475,0.559 2.727,1.482 3.27,2.03 1.123,1.133 1.871,2.627 1.871,4.439 0,2.124 -1.055,3.995 -2.715,5.113 -0.722,0.483 -1.568,0.959 -2.806,1.419 -2.048,0.763 -4.154,1.291 -5.655,1.702 -0.959,0.262 -2.346,0.676 -3.418,1.086 -0.345,0.129 -0.622,0.272 -0.736,0.359 -0.114,0.087 -0.506,0.343 -0.477,0.96 0.028,0.589 0.411,1.085 0.935,1.291 0.373,0.172 0.778,0.282 1.205,0.32 l -0.016,0.003 c 0.367,0.036 0.737,0.104 1.112,0.104 0.302,0 0.601,0.015 0.897,0 2.974,-0.15 5.472,-1.195 6.981,-1.926 0.003,-0.428 0.004,-2.09 0.004,-2.09 l 3.947,0 0,8.889 -3.947,0 -0.005,-2.04 c -0.141,0.067 -0.252,0.124 -0.343,0.167 -2.476,1.155 -5.232,1.814 -8.144,1.843 -2.638,0.027 -5.169,-0.44 -7.47,-1.379 l 0.007,0 c -0.855,-0.356 -1.647,-0.829 -2.361,-1.397 -0.074,-0.058 -0.147,-0.118 -0.219,-0.18 -0.004,-0.004 -0.009,-0.006 -0.013,-0.01 l 0.002,0 c -1.285,-1.108 -2.097,-2.749 -2.097,-4.578 0,-2.158 1.13,-4.051 2.83,-5.122 0,0 0.041,-0.026 0.065,-0.04 0.016,-0.01 0.033,-0.02 0.049,-0.03 0.761,-0.461 1.575,-0.844 2.432,-1.134 1.392,-0.502 2.772,-0.901 4.214,-1.315 1.284,-0.37 2.734,-0.694 4.021,-1.167 0.436,-0.14 0.847,-0.33 1.224,-0.565 l -0.006,0.002 c 0.028,-0.017 0.055,-0.035 0.08,-0.054 0.273,-0.202 0.451,-0.526 0.451,-0.893 0,-0.37 -0.182,-0.699 -0.461,-0.9 l 0.003,0 C -5.674,4.637 -6.122,4.453 -6.607,4.382 L -6.602,4.381 C -7.036,4.319 -7.478,4.286 -7.928,4.286 -7.942,4.284 -7.958,4.283 -7.973,4.283 -8.042,4.285 -8.11,4.287 -8.178,4.288 -8.196,4.29 -8.214,4.29 -8.231,4.29 c -2.922,0.088 -5.674,0.854 -8.105,2.145 -0.082,0.044 -0.164,0.088 -0.247,0.133 l 0,1.576 -3.95,0 0,-9.135 3.95,0 0,1.897 c 0.088,-0.045 0.176,-0.089 0.264,-0.134 l 0,0.001 c 2.723,-1.349 5.791,-2.109 9.036,-2.109 2.859,0 5.249,0.567 7.283,1.336" /></g><g
         transform="translate(41.707993,812.9935)"
         id="g318"><path
           inkscape:connector-curvature="0"
           id="path320"
           style="fill:#2056ae;fill-opacity:1;fill-rule:nonzero;stroke:none"
           d="m 0,0 c 0.259,-0.063 0.482,-0.096 0.668,-0.096 0.401,0 0.711,0.115 0.93,0.343 C 1.817,0.476 1.926,0.78 1.926,1.161 1.926,1.53 1.825,1.818 1.624,2.025 1.422,2.233 1.113,2.337 0.697,2.337 0.514,2.337 0.292,2.315 0.033,2.273 0.014,1.47 0.002,0.712 0,0 m -1.546,2.49 0,0.237 C -1.23,2.696 -0.826,2.681 -0.333,2.681 L 1.118,2.704 C 1.657,2.704 2.05,2.58 2.297,2.333 2.544,2.083 2.668,1.744 2.668,1.315 2.668,0.818 2.502,0.401 2.169,0.065 1.836,-0.271 1.378,-0.44 0.796,-0.44 c -0.225,0 -0.491,0.035 -0.8,0.104 -0.002,-0.414 -0.003,-0.71 -0.003,-0.888 0,-0.674 0.012,-1.066 0.036,-1.174 0.01,-0.045 0.034,-0.08 0.07,-0.103 0.068,-0.043 0.297,-0.095 0.687,-0.156 0.034,-0.005 0.083,-0.016 0.146,-0.031 l 0,-0.238 c -0.465,0.031 -0.9,0.046 -1.304,0.046 -0.381,0 -0.773,-0.015 -1.174,-0.046 l 0,0.238 c 0.096,0.026 0.167,0.043 0.214,0.051 0.325,0.072 0.506,0.123 0.542,0.156 0.062,0.058 0.093,0.213 0.093,0.465 l 0.011,1.927 -0.003,1.926 0,0.088 c 0,0.169 -0.024,0.278 -0.073,0.326 -0.048,0.047 -0.248,0.111 -0.6,0.191 -0.039,0.011 -0.101,0.026 -0.184,0.048" /></g><g
         transform="translate(46.906296,812.786)"
         id="g322"><path
           inkscape:connector-curvature="0"
           id="path324"
           style="fill:#2056ae;fill-opacity:1;fill-rule:nonzero;stroke:none"
           d="m 0,0 c -0.015,0.262 -0.068,0.46 -0.162,0.595 -0.137,0.198 -0.322,0.297 -0.555,0.297 -0.201,0 -0.381,-0.075 -0.538,-0.224 -0.157,-0.149 -0.273,-0.396 -0.349,-0.74 0.09,-0.003 0.159,-0.004 0.206,-0.004 0.402,0 0.868,0.025 1.398,0.076 M 0.534,-1.747 0.673,-1.982 -0.059,-2.57 c -0.1,-0.075 -0.205,-0.13 -0.312,-0.164 -0.157,-0.051 -0.318,-0.076 -0.482,-0.076 -0.399,0 -0.741,0.174 -1.024,0.522 -0.284,0.348 -0.425,0.819 -0.425,1.411 0,0.638 0.17,1.15 0.509,1.535 0.339,0.385 0.754,0.578 1.245,0.578 0.38,0 0.673,-0.113 0.88,-0.34 C 0.539,0.67 0.645,0.323 0.65,-0.143 0.548,-0.207 0.454,-0.285 0.369,-0.377 c -0.174,0.002 -0.283,0.003 -0.327,0.003 -0.649,0 -1.214,-0.011 -1.694,-0.034 -0.003,-0.595 0.09,-1.045 0.279,-1.351 0.189,-0.308 0.441,-0.462 0.757,-0.462 0.159,0 0.325,0.034 0.499,0.101 0.174,0.068 0.391,0.192 0.651,0.373" /></g><g
         transform="translate(47.897003,813.2498)"
         id="g326"><path
           inkscape:connector-curvature="0"
           id="path328"
           style="fill:#2056ae;fill-opacity:1;fill-rule:nonzero;stroke:none"
           d="M 0,0 0,0.222 C 0.456,0.344 0.845,0.513 1.167,0.727 L 1.262,0.651 C 1.223,0.395 1.2,0.115 1.193,-0.189 1.489,0.2 1.695,0.439 1.812,0.526 1.929,0.614 2.067,0.658 2.226,0.658 2.331,0.658 2.448,0.629 2.578,0.574 2.524,0.304 2.481,0.028 2.448,-0.252 l -0.192,0 C 2.235,-0.126 2.198,-0.035 2.147,0.022 2.096,0.079 2.039,0.107 1.976,0.107 1.879,0.107 1.774,0.058 1.663,-0.041 1.498,-0.187 1.378,-0.355 1.304,-0.545 1.23,-0.735 1.193,-1.004 1.193,-1.353 1.193,-1.97 1.208,-2.385 1.239,-2.598 1.251,-2.677 1.285,-2.74 1.34,-2.785 1.395,-2.83 1.568,-2.889 1.859,-2.96 l 0,-0.222 c -0.307,0.031 -0.585,0.046 -0.834,0.046 -0.209,0 -0.553,-0.015 -1.033,-0.046 l 0,0.222 c 0.341,0.09 0.534,0.16 0.578,0.21 0.043,0.049 0.065,0.181 0.065,0.397 l 0.007,0.868 c 0,0.849 -0.01,1.306 -0.03,1.37 C 0.587,-0.004 0.52,0.052 0.408,0.052 0.345,0.052 0.24,0.039 0.095,0.012 0.073,0.009 0.042,0.005 0,0" /></g><g
         transform="translate(50.636704,810.0677)"
         id="g330"><path
           inkscape:connector-curvature="0"
           id="path332"
           style="fill:#2056ae;fill-opacity:1;fill-rule:nonzero;stroke:none"
           d="m 0,0 0,0.222 c 0.299,0.074 0.463,0.141 0.492,0.2 0.039,0.077 0.059,0.596 0.059,1.557 0,0.468 0.003,0.938 0.011,1.41 C 0.384,3.384 0.21,3.374 0.038,3.358 l 0,0.191 C 0.217,3.628 0.391,3.722 0.561,3.832 0.563,4.288 0.575,4.569 0.597,4.675 0.633,4.866 0.724,5.055 0.869,5.243 1.014,5.431 1.204,5.589 1.44,5.716 1.609,5.812 1.792,5.859 1.988,5.859 2.136,5.859 2.272,5.841 2.397,5.804 2.522,5.768 2.682,5.696 2.876,5.591 2.783,5.313 2.699,5.028 2.624,4.735 L 2.425,4.765 C 2.388,5.032 2.316,5.219 2.209,5.328 2.102,5.438 1.961,5.492 1.787,5.492 1.635,5.492 1.508,5.44 1.409,5.337 1.31,5.233 1.24,5.075 1.201,4.862 1.174,4.722 1.161,4.437 1.161,4.006 1.161,3.953 1.162,3.875 1.164,3.771 1.338,3.766 1.442,3.763 1.477,3.763 L 2.102,3.771 2.149,3.719 C 2.072,3.605 2.008,3.483 1.958,3.353 1.689,3.371 1.424,3.383 1.163,3.389 1.158,3.008 1.155,2.513 1.155,1.903 l 0.008,-1.042 0,-0.048 c 0,-0.21 0.02,-0.34 0.06,-0.388 C 1.264,0.377 1.421,0.32 1.695,0.254 1.725,0.246 1.767,0.235 1.82,0.222 L 1.82,0 C 1.49,0.031 1.207,0.046 0.969,0.046 0.761,0.046 0.438,0.031 0,0" /></g><g
         transform="translate(55.285599,812.786)"
         id="g334"><path
           inkscape:connector-curvature="0"
           id="path336"
           style="fill:#2056ae;fill-opacity:1;fill-rule:nonzero;stroke:none"
           d="m 0,0 c -0.015,0.262 -0.068,0.46 -0.162,0.595 -0.137,0.198 -0.322,0.297 -0.555,0.297 -0.201,0 -0.381,-0.075 -0.538,-0.224 -0.157,-0.149 -0.273,-0.396 -0.349,-0.74 0.09,-0.003 0.159,-0.004 0.206,-0.004 0.402,0 0.868,0.025 1.398,0.076 M 0.534,-1.747 0.673,-1.982 -0.059,-2.57 c -0.1,-0.075 -0.205,-0.13 -0.312,-0.164 -0.157,-0.051 -0.318,-0.076 -0.482,-0.076 -0.399,0 -0.741,0.174 -1.024,0.522 -0.284,0.348 -0.425,0.819 -0.425,1.411 0,0.638 0.17,1.15 0.509,1.535 0.34,0.385 0.754,0.578 1.245,0.578 0.38,0 0.673,-0.113 0.88,-0.34 C 0.539,0.67 0.646,0.323 0.65,-0.143 0.548,-0.207 0.454,-0.285 0.369,-0.377 c -0.174,0.002 -0.283,0.003 -0.327,0.003 -0.649,0 -1.214,-0.011 -1.694,-0.034 -0.003,-0.595 0.09,-1.045 0.279,-1.351 0.189,-0.308 0.441,-0.462 0.757,-0.462 0.159,0 0.325,0.034 0.499,0.101 0.174,0.068 0.391,0.192 0.651,0.373" /></g><g
         transform="translate(59.161606,812.64529)"
         id="g338"><path
           inkscape:connector-curvature="0"
           id="path340"
           style="fill:#2056ae;fill-opacity:1;fill-rule:nonzero;stroke:none"
           d="M 0,0 -0.247,0.031 C -0.256,0.364 -0.334,0.61 -0.479,0.77 -0.625,0.93 -0.824,1.01 -1.075,1.01 -1.256,1.01 -1.43,0.956 -1.596,0.848 -1.763,0.74 -1.893,0.564 -1.987,0.32 -2.081,0.076 -2.128,-0.2 -2.128,-0.509 c 0,-0.496 0.11,-0.883 0.332,-1.161 0.221,-0.279 0.477,-0.418 0.768,-0.418 0.305,0 0.673,0.132 1.103,0.398 l 0.137,-0.239 c -0.383,-0.31 -0.702,-0.527 -0.957,-0.653 -0.122,-0.058 -0.271,-0.087 -0.447,-0.087 -0.429,0 -0.775,0.135 -1.038,0.406 -0.351,0.359 -0.525,0.845 -0.525,1.459 0,0.636 0.183,1.158 0.55,1.567 0.367,0.409 0.819,0.614 1.357,0.614 0.367,0 0.721,-0.103 1.06,-0.307 C 0.195,0.98 0.171,0.863 0.139,0.72 0.098,0.532 0.051,0.292 0,0" /></g><g
         transform="translate(60.602097,814.8558)"
         id="g342"><path
           inkscape:connector-curvature="0"
           id="path344"
           style="fill:#2056ae;fill-opacity:1;fill-rule:nonzero;stroke:none"
           d="M 0,0 0.212,0 0.127,-1.017 1.144,-1.002 1.173,-1.065 C 1.111,-1.174 1.055,-1.291 1.004,-1.415 0.715,-1.399 0.423,-1.39 0.127,-1.384 l -0.033,-2.051 0,-0.023 c 0,-0.317 0.032,-0.545 0.097,-0.685 0.065,-0.139 0.176,-0.209 0.332,-0.209 0.129,0 0.3,0.059 0.513,0.176 L 1.142,-4.403 C 0.876,-4.583 0.674,-4.7 0.535,-4.757 0.396,-4.813 0.274,-4.841 0.172,-4.841 c -0.161,0 -0.298,0.046 -0.41,0.137 -0.113,0.092 -0.187,0.219 -0.223,0.381 -0.022,0.09 -0.034,0.367 -0.034,0.829 0,0.495 0.014,1.198 0.041,2.11 -0.171,-0.006 -0.347,-0.015 -0.53,-0.031 l 0,0.222 c 0.205,0.1 0.382,0.237 0.532,0.411 C -0.302,-0.608 -0.151,-0.348 0,0" /></g><g
         transform="translate(62.919403,815.92709)"
         id="g346"><path
           inkscape:connector-curvature="0"
           id="path348"
           style="fill:#2056ae;fill-opacity:1;fill-rule:nonzero;stroke:none"
           d="m 0,0 c 0.107,0 0.198,-0.041 0.272,-0.121 0.075,-0.081 0.112,-0.18 0.112,-0.296 0,-0.114 -0.037,-0.212 -0.112,-0.294 C 0.198,-0.793 0.107,-0.834 0,-0.834 c -0.105,0 -0.195,0.041 -0.27,0.123 -0.074,0.082 -0.111,0.18 -0.111,0.294 0,0.116 0.037,0.215 0.111,0.296 C -0.195,-0.041 -0.105,0 0,0 m -0.917,-2.639 0,0.222 c 0.412,0.114 0.798,0.285 1.16,0.512 L 0.338,-1.989 C 0.291,-2.553 0.267,-3.353 0.267,-4.388 0.267,-4.873 0.278,-5.17 0.3,-5.282 0.314,-5.357 0.34,-5.411 0.377,-5.444 0.414,-5.478 0.542,-5.528 0.76,-5.598 0.787,-5.605 0.827,-5.619 0.881,-5.638 l 0,-0.221 c -0.321,0.03 -0.584,0.046 -0.79,0.046 -0.125,0 -0.461,-0.016 -1.008,-0.046 l 0,0.221 c 0.331,0.088 0.516,0.169 0.558,0.242 0.041,0.074 0.062,0.457 0.062,1.149 l -0.003,0.851 0,0.164 c 0,0.298 -0.019,0.478 -0.055,0.539 -0.037,0.062 -0.096,0.092 -0.176,0.092 -0.052,0 -0.18,-0.013 -0.386,-0.038" /></g><g
         transform="translate(64.023407,813.2498)"
         id="g350"><path
           inkscape:connector-curvature="0"
           id="path352"
           style="fill:#2056ae;fill-opacity:1;fill-rule:nonzero;stroke:none"
           d="M 0,0 0,0.222 C 0.44,0.333 0.838,0.501 1.195,0.727 L 1.294,0.659 C 1.26,0.433 1.239,0.201 1.231,-0.039 l 0.467,0.503 c 0.077,0.074 0.169,0.133 0.275,0.175 0.144,0.058 0.295,0.088 0.451,0.088 0.35,0 0.614,-0.126 0.793,-0.379 0.119,-0.167 0.179,-0.456 0.179,-0.865 L 3.385,-1.481 c 0,-0.646 0.007,-1.028 0.019,-1.144 0.012,-0.08 0.035,-0.136 0.069,-0.168 0.034,-0.032 0.15,-0.073 0.348,-0.123 0.036,-0.011 0.091,-0.025 0.164,-0.044 l 0,-0.222 c -0.29,0.031 -0.547,0.046 -0.773,0.046 -0.196,0 -0.533,-0.015 -1.009,-0.046 l 0,0.222 c 0.288,0.09 0.45,0.151 0.486,0.183 0.036,0.032 0.058,0.084 0.065,0.155 0.027,0.264 0.04,0.666 0.04,1.208 0,0.579 -0.011,0.928 -0.033,1.048 C 2.727,-0.191 2.654,-0.056 2.544,0.04 2.434,0.136 2.301,0.184 2.146,0.184 1.985,0.184 1.825,0.132 1.668,0.03 1.511,-0.072 1.396,-0.21 1.321,-0.382 1.246,-0.555 1.208,-0.81 1.208,-1.147 c 0,-0.957 0.019,-1.474 0.056,-1.552 0.037,-0.079 0.181,-0.152 0.432,-0.221 0.032,-0.009 0.078,-0.021 0.14,-0.04 l 0,-0.222 c -0.33,0.031 -0.607,0.046 -0.831,0.046 -0.216,0 -0.539,-0.015 -0.967,-0.046 l 0,0.222 c 0.293,0.074 0.46,0.129 0.499,0.164 0.025,0.021 0.042,0.077 0.052,0.168 0.033,0.253 0.049,0.599 0.049,1.036 0,0.904 -0.009,1.394 -0.026,1.472 C 0.585,-0.008 0.513,0.048 0.396,0.048 0.342,0.048 0.258,0.039 0.143,0.02 0.111,0.015 0.063,0.008 0,0" /></g><g
         transform="translate(69.153793,812.73911)"
         id="g354"><path
           inkscape:connector-curvature="0"
           id="path356"
           style="fill:#2056ae;fill-opacity:1;fill-rule:nonzero;stroke:none"
           d="m 0,0 c 0,-0.379 0.07,-0.663 0.212,-0.852 0.141,-0.188 0.314,-0.282 0.519,-0.282 0.192,0 0.352,0.081 0.479,0.243 0.126,0.162 0.19,0.399 0.19,0.712 C 1.4,0.21 1.333,0.496 1.197,0.676 1.062,0.856 0.89,0.947 0.68,0.947 0.487,0.947 0.326,0.867 0.195,0.708 0.065,0.549 0,0.313 0,0 m 0.149,-2.587 c -0.195,-0.181 -0.329,-0.33 -0.4,-0.448 -0.073,-0.118 -0.108,-0.226 -0.108,-0.324 0,-0.141 0.067,-0.265 0.201,-0.371 0.184,-0.145 0.445,-0.219 0.783,-0.219 0.382,0 0.697,0.078 0.945,0.233 0.248,0.155 0.373,0.367 0.373,0.635 0,0.159 -0.05,0.282 -0.149,0.368 -0.099,0.087 -0.287,0.13 -0.564,0.13 l -0.154,-0.004 -0.927,0 z M 2.544,1.138 2.578,1.082 C 2.521,0.96 2.466,0.834 2.413,0.702 2.23,0.725 2.042,0.737 1.845,0.74 2.002,0.468 2.081,0.202 2.081,-0.059 2.081,-0.443 1.952,-0.763 1.696,-1.022 1.44,-1.28 1.081,-1.409 0.62,-1.409 c -0.122,0 -0.253,0.014 -0.392,0.044 -0.183,-0.187 -0.274,-0.324 -0.274,-0.412 0,-0.072 0.031,-0.125 0.092,-0.16 0.105,-0.061 0.375,-0.092 0.811,-0.092 l 0.646,0.012 c 0.382,0 0.645,-0.069 0.789,-0.207 0.145,-0.138 0.217,-0.344 0.217,-0.617 0,-0.383 -0.15,-0.699 -0.449,-0.948 -0.435,-0.367 -0.996,-0.55 -1.68,-0.55 -0.478,0 -0.827,0.092 -1.049,0.276 -0.222,0.183 -0.333,0.385 -0.333,0.606 0,0.109 0.019,0.201 0.055,0.275 0.018,0.032 0.077,0.085 0.18,0.16 l 0.581,0.447 c -0.171,0.036 -0.299,0.106 -0.383,0.207 -0.085,0.1 -0.127,0.213 -0.127,0.338 0,0.085 0.025,0.148 0.074,0.187 0.128,0.106 0.327,0.294 0.598,0.561 -0.208,0.117 -0.365,0.267 -0.47,0.452 -0.104,0.184 -0.156,0.403 -0.156,0.655 0,0.403 0.131,0.739 0.394,1.008 0.263,0.27 0.622,0.404 1.077,0.404 0.107,0 0.219,-0.01 0.335,-0.031 0.116,-0.021 0.238,-0.054 0.365,-0.099 0.132,0.003 0.235,0.005 0.308,0.005 0.336,0 0.574,0.009 0.715,0.026" /></g><g
         transform="translate(74.741699,814.8558)"
         id="g358"><path
           inkscape:connector-curvature="0"
           id="path360"
           style="fill:#2056ae;fill-opacity:1;fill-rule:nonzero;stroke:none"
           d="M 0,0 0.212,0 0.127,-1.017 1.144,-1.002 1.173,-1.065 C 1.111,-1.174 1.055,-1.291 1.004,-1.415 0.715,-1.399 0.423,-1.39 0.127,-1.384 l -0.033,-2.051 0,-0.023 c 0,-0.317 0.033,-0.545 0.097,-0.685 0.065,-0.139 0.176,-0.209 0.332,-0.209 0.129,0 0.3,0.059 0.513,0.176 L 1.143,-4.403 C 0.876,-4.583 0.674,-4.7 0.535,-4.757 0.396,-4.813 0.274,-4.841 0.172,-4.841 c -0.161,0 -0.298,0.046 -0.41,0.137 -0.113,0.092 -0.187,0.219 -0.223,0.381 -0.022,0.09 -0.034,0.367 -0.034,0.829 0,0.495 0.014,1.198 0.041,2.11 -0.171,-0.006 -0.347,-0.015 -0.53,-0.031 l 0,0.222 c 0.205,0.1 0.382,0.237 0.532,0.411 C -0.302,-0.608 -0.151,-0.348 0,0" /></g><g
         transform="translate(76.035599,815.19119)"
         id="g362"><path
           inkscape:connector-curvature="0"
           id="path364"
           style="fill:#2056ae;fill-opacity:1;fill-rule:nonzero;stroke:none"
           d="M 0,0 0,0.231 C 0.325,0.335 0.565,0.42 0.721,0.487 0.876,0.554 1.032,0.637 1.187,0.736 L 1.279,0.674 C 1.257,0.465 1.241,0.19 1.231,-0.152 1.209,-0.86 1.198,-1.347 1.198,-1.615 c 0,-0.077 0.002,-0.208 0.004,-0.393 l 0.48,0.504 c 0.093,0.085 0.19,0.147 0.29,0.187 0.14,0.053 0.285,0.079 0.437,0.079 0.281,0 0.505,-0.077 0.671,-0.231 0.166,-0.155 0.264,-0.369 0.293,-0.643 0.015,-0.157 0.023,-0.898 0.023,-2.223 0,-0.205 0.019,-0.331 0.057,-0.379 0.038,-0.048 0.174,-0.101 0.41,-0.16 0.027,-0.005 0.065,-0.014 0.115,-0.028 l 0,-0.222 c -0.44,0.031 -0.752,0.046 -0.936,0.046 -0.24,0 -0.523,-0.015 -0.847,-0.046 l 0,0.222 0.448,0.148 c 0.027,0.013 0.051,0.035 0.072,0.064 0.021,0.029 0.036,0.077 0.046,0.144 0.01,0.051 0.017,0.194 0.019,0.432 l 0.027,1.15 c 0,0.374 -0.021,0.623 -0.064,0.75 C 2.7,-2.088 2.625,-1.985 2.519,-1.907 2.412,-1.828 2.291,-1.789 2.153,-1.789 1.97,-1.789 1.797,-1.848 1.636,-1.966 1.474,-2.085 1.362,-2.234 1.299,-2.414 1.237,-2.594 1.206,-2.901 1.206,-3.335 c 0,-0.602 0.011,-0.989 0.033,-1.159 0.014,-0.114 0.039,-0.188 0.072,-0.22 0.032,-0.032 0.161,-0.081 0.385,-0.148 0.027,-0.008 0.068,-0.021 0.124,-0.04 l 0,-0.222 c -0.358,0.031 -0.653,0.046 -0.885,0.046 -0.239,0 -0.533,-0.015 -0.882,-0.046 l 0,0.222 c 0.051,0.016 0.091,0.028 0.117,0.036 0.219,0.064 0.344,0.113 0.374,0.147 0.03,0.035 0.05,0.154 0.06,0.355 0.016,0.332 0.023,0.978 0.023,1.937 0,1.474 -0.017,2.254 -0.051,2.339 C 0.541,-0.003 0.467,0.04 0.354,0.04 0.283,0.04 0.165,0.026 0,0" /></g><g
         transform="translate(82.664993,812.786)"
         id="g366"><path
           inkscape:connector-curvature="0"
           id="path368"
           style="fill:#2056ae;fill-opacity:1;fill-rule:nonzero;stroke:none"
           d="m 0,0 c -0.015,0.262 -0.069,0.46 -0.162,0.595 -0.137,0.198 -0.322,0.297 -0.555,0.297 -0.202,0 -0.381,-0.075 -0.538,-0.224 -0.157,-0.149 -0.273,-0.396 -0.349,-0.74 0.09,-0.003 0.159,-0.004 0.206,-0.004 0.402,0 0.868,0.025 1.398,0.076 M 0.534,-1.747 0.673,-1.982 -0.059,-2.57 C -0.16,-2.645 -0.264,-2.7 -0.372,-2.734 -0.528,-2.785 -0.689,-2.81 -0.854,-2.81 c -0.399,0 -0.74,0.174 -1.023,0.522 -0.284,0.348 -0.425,0.819 -0.425,1.411 0,0.638 0.17,1.15 0.509,1.535 0.339,0.385 0.754,0.578 1.245,0.578 0.379,0 0.673,-0.113 0.88,-0.34 C 0.539,0.67 0.645,0.323 0.65,-0.143 0.548,-0.207 0.454,-0.285 0.369,-0.377 c -0.174,0.002 -0.283,0.003 -0.327,0.003 -0.649,0 -1.214,-0.011 -1.694,-0.034 -0.002,-0.595 0.09,-1.045 0.279,-1.351 0.188,-0.308 0.441,-0.462 0.757,-0.462 0.159,0 0.325,0.034 0.499,0.101 0.174,0.068 0.391,0.192 0.651,0.373" /></g><g
         transform="translate(87.245606,812.2552)"
         id="g370"><path
           inkscape:connector-curvature="0"
           id="path372"
           style="fill:#2056ae;fill-opacity:1;fill-rule:nonzero;stroke:none"
           d="M 0,0 C 0.339,-0.01 0.581,-0.016 0.728,-0.016 0.771,-0.016 1.146,-0.01 1.85,0 L 0.925,2.383 0,0 Z m 0.964,3.564 0.231,0 C 1.526,2.643 1.933,1.597 2.416,0.428 l 0.856,-2.029 c 0.04,-0.072 0.083,-0.125 0.129,-0.159 0.032,-0.024 0.212,-0.087 0.541,-0.19 l 0,-0.238 c -0.446,0.031 -0.775,0.046 -0.985,0.046 -0.216,0 -0.584,-0.015 -1.103,-0.046 l 0,0.238 c 0.296,0.066 0.469,0.119 0.519,0.158 0.048,0.041 0.073,0.087 0.073,0.14 0,0.055 -0.026,0.15 -0.077,0.282 L 1.995,-0.397 C 1.475,-0.392 1.097,-0.39 0.861,-0.39 l -1.006,-0.007 -0.388,-1.009 c -0.064,-0.162 -0.095,-0.262 -0.095,-0.302 0,-0.034 0.015,-0.063 0.045,-0.085 0.031,-0.023 0.174,-0.063 0.429,-0.122 0.027,-0.007 0.065,-0.02 0.113,-0.035 l 0,-0.238 c -0.418,0.031 -0.713,0.046 -0.885,0.046 -0.219,0 -0.498,-0.015 -0.838,-0.046 l 0,0.238 c 0.222,0.053 0.376,0.112 0.459,0.178 0.061,0.05 0.125,0.135 0.191,0.254 0.14,0.263 0.496,1.11 1.067,2.539 l 1.011,2.543 z" /></g><g
         transform="translate(91.373505,813.2498)"
         id="g374"><path
           inkscape:connector-curvature="0"
           id="path376"
           style="fill:#2056ae;fill-opacity:1;fill-rule:nonzero;stroke:none"
           d="M 0,0 0,0.222 C 0.456,0.344 0.845,0.513 1.167,0.727 L 1.262,0.651 C 1.224,0.395 1.201,0.115 1.193,-0.189 1.489,0.2 1.695,0.439 1.813,0.526 1.929,0.614 2.067,0.658 2.226,0.658 2.331,0.658 2.448,0.629 2.578,0.574 2.525,0.304 2.481,0.028 2.448,-0.252 l -0.192,0 C 2.235,-0.126 2.198,-0.035 2.147,0.022 2.096,0.079 2.039,0.107 1.976,0.107 1.879,0.107 1.774,0.058 1.663,-0.041 1.498,-0.187 1.378,-0.355 1.305,-0.545 1.23,-0.735 1.193,-1.004 1.193,-1.353 1.193,-1.97 1.208,-2.385 1.239,-2.598 1.251,-2.677 1.285,-2.74 1.34,-2.785 1.395,-2.83 1.568,-2.889 1.858,-2.96 l 0,-0.222 c -0.305,0.031 -0.584,0.046 -0.833,0.046 -0.208,0 -0.553,-0.015 -1.032,-0.046 l 0,0.222 c 0.34,0.09 0.533,0.16 0.577,0.21 0.043,0.049 0.065,0.181 0.065,0.397 l 0.008,0.868 c 0,0.849 -0.011,1.306 -0.031,1.37 C 0.588,-0.004 0.52,0.052 0.408,0.052 0.345,0.052 0.24,0.039 0.095,0.012 0.073,0.009 0.042,0.005 0,0" /></g><g
         transform="translate(95.441406,814.8558)"
         id="g378"><path
           inkscape:connector-curvature="0"
           id="path380"
           style="fill:#2056ae;fill-opacity:1;fill-rule:nonzero;stroke:none"
           d="M 0,0 0.212,0 0.128,-1.017 1.144,-1.002 1.173,-1.065 C 1.112,-1.174 1.056,-1.291 1.004,-1.415 0.715,-1.399 0.423,-1.39 0.128,-1.384 l -0.033,-2.051 0,-0.023 c 0,-0.317 0.032,-0.545 0.096,-0.685 0.065,-0.139 0.176,-0.209 0.332,-0.209 0.129,0 0.3,0.059 0.513,0.176 L 1.143,-4.403 C 0.876,-4.583 0.674,-4.7 0.535,-4.757 0.396,-4.813 0.275,-4.841 0.172,-4.841 c -0.161,0 -0.298,0.046 -0.41,0.137 -0.113,0.092 -0.187,0.219 -0.223,0.381 -0.022,0.09 -0.033,0.367 -0.033,0.829 0,0.495 0.014,1.198 0.04,2.11 -0.171,-0.006 -0.347,-0.015 -0.529,-0.031 l 0,0.222 c 0.204,0.1 0.381,0.237 0.531,0.411 C -0.302,-0.608 -0.151,-0.348 0,0" /></g><g
         transform="translate(99.540497,812.28059)"
         id="g382"><path
           inkscape:connector-curvature="0"
           id="path384"
           style="fill:#2056ae;fill-opacity:1;fill-rule:nonzero;stroke:none"
           d="m 0,0 c 0,-0.437 0.025,-0.759 0.077,-0.966 0.081,-0.335 0.21,-0.587 0.385,-0.756 0.176,-0.17 0.38,-0.254 0.614,-0.254 0.302,0 0.549,0.124 0.743,0.373 0.195,0.249 0.292,0.649 0.292,1.2 0,0.617 -0.11,1.074 -0.33,1.371 C 1.562,1.264 1.303,1.413 1.006,1.413 0.711,1.413 0.469,1.296 0.282,1.063 0.094,0.831 0,0.476 0,0 m -0.704,-0.347 c 0,0.643 0.167,1.152 0.504,1.527 0.335,0.374 0.777,0.562 1.324,0.562 0.516,0 0.926,-0.169 1.229,-0.507 0.303,-0.337 0.454,-0.809 0.454,-1.415 0,-0.653 -0.17,-1.172 -0.51,-1.552 -0.339,-0.382 -0.778,-0.573 -1.317,-0.573 -0.522,0 -0.933,0.171 -1.233,0.511 -0.301,0.34 -0.451,0.822 -0.451,1.447" /></g><g
         transform="translate(102.83009,810.0677)"
         id="g386"><path
           inkscape:connector-curvature="0"
           id="path388"
           style="fill:#2056ae;fill-opacity:1;fill-rule:nonzero;stroke:none"
           d="m 0,0 0,0.222 c 0.299,0.074 0.463,0.141 0.493,0.2 0.038,0.077 0.058,0.596 0.058,1.557 0,0.468 0.004,0.938 0.011,1.41 C 0.385,3.384 0.21,3.374 0.038,3.358 l 0,0.191 C 0.217,3.628 0.391,3.722 0.56,3.832 0.563,4.288 0.575,4.569 0.597,4.675 0.633,4.866 0.724,5.055 0.869,5.243 1.014,5.431 1.204,5.589 1.44,5.716 1.609,5.812 1.792,5.859 1.989,5.859 2.136,5.859 2.272,5.841 2.397,5.804 2.523,5.768 2.682,5.696 2.876,5.591 2.783,5.313 2.699,5.028 2.624,4.735 L 2.425,4.765 C 2.388,5.032 2.316,5.219 2.209,5.328 2.102,5.438 1.961,5.492 1.787,5.492 1.635,5.492 1.509,5.44 1.409,5.337 1.31,5.233 1.24,5.075 1.201,4.862 1.174,4.722 1.16,4.437 1.16,4.006 1.16,3.953 1.162,3.875 1.164,3.771 1.338,3.766 1.442,3.763 1.477,3.763 L 2.102,3.771 2.149,3.719 C 2.072,3.605 2.008,3.483 1.958,3.353 1.689,3.371 1.424,3.383 1.163,3.389 1.157,3.008 1.155,2.513 1.155,1.903 l 0.008,-1.042 0,-0.048 c 0,-0.21 0.02,-0.34 0.061,-0.388 C 1.264,0.377 1.421,0.32 1.696,0.254 1.725,0.246 1.767,0.235 1.82,0.222 L 1.82,0 C 1.49,0.031 1.206,0.046 0.969,0.046 0.761,0.046 0.438,0.031 0,0" /></g><g
         transform="translate(108.4805,813.2269)"
         id="g390"><path
           inkscape:connector-curvature="0"
           id="path392"
           style="fill:#2056ae;fill-opacity:1;fill-rule:nonzero;stroke:none"
           d="m 0,0 0.893,0 c 0.344,0 0.547,0.01 0.609,0.03 0.061,0.02 0.111,0.061 0.149,0.123 0.038,0.062 0.086,0.24 0.142,0.536 0.008,0.029 0.019,0.075 0.034,0.137 l 0.244,0 C 2.046,0.385 2.033,0.046 2.033,-0.191 c 0,-0.247 0.013,-0.582 0.038,-1.01 l -0.244,0 C 1.755,-0.815 1.711,-0.6 1.694,-0.555 1.67,-0.491 1.626,-0.445 1.565,-0.417 1.504,-0.389 1.322,-0.375 1.018,-0.375 l -1.008,0 0.019,-2.348 1.544,0 0.136,0.004 c 0.211,0 0.344,0.01 0.398,0.028 0.093,0.034 0.175,0.092 0.247,0.173 0.07,0.081 0.202,0.31 0.394,0.687 0.02,0.037 0.049,0.092 0.088,0.164 l 0.252,0 C 3.06,-1.752 2.907,-2.25 2.633,-3.159 c -0.892,0.031 -1.707,0.046 -2.444,0.046 -0.514,0 -1.083,-0.015 -1.705,-0.046 l 0,0.237 0.595,0.139 c 0.095,0.03 0.154,0.058 0.176,0.088 0.037,0.05 0.055,0.155 0.055,0.314 l 0,0.072 0.019,0.935 c 0.002,0.181 0.004,0.535 0.004,1.063 0,0.767 -0.003,1.329 -0.008,1.686 -0.005,0.356 -0.017,0.559 -0.036,0.606 -0.015,0.033 -0.037,0.059 -0.068,0.079 -0.03,0.019 -0.142,0.053 -0.336,0.101 l -0.393,0.095 0,0.238 C -1.048,2.463 -0.5,2.448 0.139,2.448 0.488,2.448 1.32,2.463 2.633,2.494 2.638,2.034 2.667,1.581 2.721,1.132 l -0.26,0 C 2.363,1.489 2.283,1.727 2.221,1.845 2.18,1.926 2.128,1.98 2.066,2.006 1.985,2.04 1.806,2.058 1.528,2.058 l -1.491,0 L 0.011,0.781 0,0 Z" /></g><g
         transform="translate(111.9521,815.18491)"
         id="g394"><path
           inkscape:connector-curvature="0"
           id="path396"
           style="fill:#2056ae;fill-opacity:1;fill-rule:nonzero;stroke:none"
           d="m 0,0 0,0.222 c 0.436,0.151 0.83,0.324 1.182,0.52 L 1.281,0.673 c -0.058,-0.5 -0.088,-1.429 -0.088,-2.788 0,-1.372 0.005,-2.131 0.015,-2.276 0.009,-0.145 0.037,-0.242 0.082,-0.291 0.045,-0.049 0.223,-0.12 0.53,-0.214 l 0,-0.221 C 1.426,-5.086 1.121,-5.071 0.903,-5.071 0.67,-5.071 0.369,-5.086 0,-5.117 l 0,0.221 c 0.332,0.112 0.512,0.184 0.542,0.216 0.029,0.032 0.047,0.109 0.055,0.231 0.007,0.162 0.01,0.895 0.01,2.198 l -0.006,1.894 0,0.056 c 0,0.146 -0.019,0.242 -0.056,0.287 C 0.508,0.031 0.451,0.054 0.373,0.054 0.307,0.054 0.183,0.036 0,0" /></g><g
         transform="translate(116.4541,812.786)"
         id="g398"><path
           inkscape:connector-curvature="0"
           id="path400"
           style="fill:#2056ae;fill-opacity:1;fill-rule:nonzero;stroke:none"
           d="m 0,0 c -0.015,0.262 -0.069,0.46 -0.162,0.595 -0.137,0.198 -0.322,0.297 -0.556,0.297 -0.201,0 -0.38,-0.075 -0.537,-0.224 -0.157,-0.149 -0.274,-0.396 -0.349,-0.74 0.09,-0.003 0.159,-0.004 0.206,-0.004 0.402,0 0.868,0.025 1.398,0.076 m 0.533,-1.747 0.14,-0.235 -0.732,-0.588 c -0.1,-0.075 -0.205,-0.13 -0.313,-0.164 -0.156,-0.051 -0.317,-0.076 -0.482,-0.076 -0.399,0 -0.741,0.174 -1.023,0.522 -0.284,0.348 -0.425,0.819 -0.425,1.411 0,0.638 0.169,1.15 0.509,1.535 0.339,0.385 0.754,0.578 1.245,0.578 0.379,0 0.673,-0.113 0.88,-0.34 C 0.539,0.67 0.645,0.323 0.65,-0.143 0.548,-0.207 0.454,-0.285 0.369,-0.377 c -0.174,0.002 -0.283,0.003 -0.327,0.003 -0.65,0 -1.214,-0.011 -1.694,-0.034 -0.003,-0.595 0.09,-1.045 0.279,-1.351 0.189,-0.308 0.44,-0.462 0.756,-0.462 0.159,0 0.326,0.034 0.5,0.101 0.174,0.068 0.39,0.192 0.65,0.373" /></g><g
         transform="translate(120.32961,812.64529)"
         id="g402"><path
           inkscape:connector-curvature="0"
           id="path404"
           style="fill:#2056ae;fill-opacity:1;fill-rule:nonzero;stroke:none"
           d="M 0,0 -0.246,0.031 C -0.256,0.364 -0.333,0.61 -0.479,0.77 -0.625,0.93 -0.823,1.01 -1.075,1.01 -1.256,1.01 -1.43,0.956 -1.596,0.848 -1.762,0.74 -1.893,0.564 -1.987,0.32 -2.081,0.076 -2.128,-0.2 -2.128,-0.509 c 0,-0.496 0.11,-0.883 0.332,-1.161 0.221,-0.279 0.477,-0.418 0.768,-0.418 0.305,0 0.673,0.132 1.103,0.398 l 0.137,-0.239 c -0.383,-0.31 -0.703,-0.527 -0.957,-0.653 -0.122,-0.058 -0.272,-0.087 -0.447,-0.087 -0.429,0 -0.774,0.135 -1.038,0.406 -0.35,0.359 -0.525,0.845 -0.525,1.459 0,0.636 0.183,1.158 0.55,1.567 0.367,0.409 0.819,0.614 1.357,0.614 0.367,0 0.721,-0.103 1.06,-0.307 C 0.195,0.98 0.171,0.863 0.14,0.72 0.098,0.532 0.051,0.292 0,0" /></g><g
         transform="translate(121.77,814.8558)"
         id="g406"><path
           inkscape:connector-curvature="0"
           id="path408"
           style="fill:#2056ae;fill-opacity:1;fill-rule:nonzero;stroke:none"
           d="M 0,0 0.212,0 0.127,-1.017 1.144,-1.002 1.173,-1.065 C 1.112,-1.174 1.055,-1.291 1.004,-1.415 0.715,-1.399 0.423,-1.39 0.127,-1.384 l -0.032,-2.051 0,-0.023 c 0,-0.317 0.031,-0.545 0.097,-0.685 0.064,-0.139 0.175,-0.209 0.331,-0.209 0.129,0 0.301,0.059 0.513,0.176 L 1.143,-4.403 C 0.876,-4.583 0.673,-4.7 0.534,-4.757 0.395,-4.813 0.275,-4.841 0.172,-4.841 c -0.161,0 -0.298,0.046 -0.41,0.137 -0.113,0.092 -0.187,0.219 -0.223,0.381 -0.022,0.09 -0.033,0.367 -0.033,0.829 0,0.495 0.013,1.198 0.04,2.11 -0.171,-0.006 -0.347,-0.015 -0.53,-0.031 l 0,0.222 c 0.205,0.1 0.382,0.237 0.532,0.411 C -0.302,-0.608 -0.151,-0.348 0,0" /></g><g
         transform="translate(123.0869,813.2498)"
         id="g410"><path
           inkscape:connector-curvature="0"
           id="path412"
           style="fill:#2056ae;fill-opacity:1;fill-rule:nonzero;stroke:none"
           d="M 0,0 0,0.222 C 0.456,0.344 0.845,0.513 1.167,0.727 L 1.262,0.651 C 1.224,0.395 1.2,0.115 1.193,-0.189 1.489,0.2 1.695,0.439 1.813,0.526 1.93,0.614 2.067,0.658 2.226,0.658 2.331,0.658 2.448,0.629 2.578,0.574 2.525,0.304 2.481,0.028 2.448,-0.252 l -0.192,0 C 2.234,-0.126 2.198,-0.035 2.147,0.022 2.096,0.079 2.04,0.107 1.977,0.107 1.879,0.107 1.775,0.058 1.663,-0.041 1.498,-0.187 1.378,-0.355 1.304,-0.545 1.23,-0.735 1.193,-1.004 1.193,-1.353 1.193,-1.97 1.208,-2.385 1.239,-2.598 1.252,-2.677 1.285,-2.74 1.34,-2.785 1.395,-2.83 1.568,-2.889 1.859,-2.96 l 0,-0.222 c -0.306,0.031 -0.585,0.046 -0.834,0.046 -0.209,0 -0.552,-0.015 -1.032,-0.046 l 0,0.222 c 0.34,0.09 0.533,0.16 0.576,0.21 0.044,0.049 0.066,0.181 0.066,0.397 l 0.007,0.868 c 0,0.849 -0.01,1.306 -0.03,1.37 C 0.587,-0.004 0.52,0.052 0.408,0.052 0.345,0.052 0.241,0.039 0.095,0.012 0.073,0.009 0.041,0.005 0,0" /></g><g
         transform="translate(126.6147,812.28059)"
         id="g414"><path
           inkscape:connector-curvature="0"
           id="path416"
           style="fill:#2056ae;fill-opacity:1;fill-rule:nonzero;stroke:none"
           d="m 0,0 c 0,-0.437 0.026,-0.759 0.077,-0.966 0.081,-0.335 0.21,-0.587 0.385,-0.756 0.176,-0.17 0.38,-0.254 0.614,-0.254 0.301,0 0.55,0.124 0.744,0.373 0.194,0.249 0.291,0.649 0.291,1.2 0,0.617 -0.11,1.074 -0.33,1.371 C 1.561,1.264 1.303,1.413 1.006,1.413 0.71,1.413 0.47,1.296 0.281,1.063 0.094,0.831 0,0.476 0,0 m -0.704,-0.347 c 0,0.643 0.168,1.152 0.504,1.527 0.336,0.374 0.777,0.562 1.323,0.562 0.517,0 0.927,-0.169 1.23,-0.507 0.302,-0.337 0.454,-0.809 0.454,-1.415 0,-0.653 -0.17,-1.172 -0.509,-1.552 -0.34,-0.382 -0.779,-0.573 -1.318,-0.573 -0.522,0 -0.933,0.171 -1.233,0.511 -0.301,0.34 -0.451,0.822 -0.451,1.447" /></g><g
         transform="translate(129.81979,813.2498)"
         id="g418"><path
           inkscape:connector-curvature="0"
           id="path420"
           style="fill:#2056ae;fill-opacity:1;fill-rule:nonzero;stroke:none"
           d="M 0,0 0,0.222 C 0.44,0.333 0.839,0.501 1.195,0.727 L 1.294,0.659 C 1.26,0.433 1.239,0.201 1.231,-0.039 l 0.467,0.503 c 0.078,0.074 0.17,0.133 0.275,0.175 0.144,0.058 0.295,0.088 0.451,0.088 0.35,0 0.614,-0.126 0.792,-0.379 0.12,-0.167 0.18,-0.456 0.18,-0.865 L 3.385,-1.481 c 0,-0.646 0.007,-1.028 0.019,-1.144 0.013,-0.08 0.035,-0.136 0.07,-0.168 0.034,-0.032 0.15,-0.073 0.347,-0.123 0.037,-0.011 0.092,-0.025 0.164,-0.044 l 0,-0.222 c -0.29,0.031 -0.547,0.046 -0.773,0.046 -0.196,0 -0.533,-0.015 -1.009,-0.046 l 0,0.222 c 0.288,0.09 0.45,0.151 0.486,0.183 0.036,0.032 0.058,0.084 0.065,0.155 0.027,0.264 0.04,0.666 0.04,1.208 0,0.579 -0.011,0.928 -0.033,1.048 C 2.727,-0.191 2.655,-0.056 2.544,0.04 2.434,0.136 2.302,0.184 2.147,0.184 1.985,0.184 1.826,0.132 1.668,0.03 1.512,-0.072 1.396,-0.21 1.321,-0.382 1.247,-0.555 1.209,-0.81 1.209,-1.147 c 0,-0.957 0.019,-1.474 0.055,-1.552 0.037,-0.079 0.181,-0.152 0.432,-0.221 0.032,-0.009 0.079,-0.021 0.14,-0.04 l 0,-0.222 c -0.33,0.031 -0.607,0.046 -0.831,0.046 -0.216,0 -0.538,-0.015 -0.966,-0.046 l 0,0.222 c 0.293,0.074 0.459,0.129 0.499,0.164 0.024,0.021 0.042,0.077 0.051,0.168 0.033,0.253 0.049,0.599 0.049,1.036 0,0.904 -0.009,1.394 -0.026,1.472 C 0.585,-0.008 0.514,0.048 0.396,0.048 0.342,0.048 0.258,0.039 0.144,0.02 0.111,0.015 0.064,0.008 0,0" /></g><g
         transform="translate(134.979,815.92709)"
         id="g422"><path
           inkscape:connector-curvature="0"
           id="path424"
           style="fill:#2056ae;fill-opacity:1;fill-rule:nonzero;stroke:none"
           d="m 0,0 c 0.108,0 0.199,-0.041 0.273,-0.121 0.074,-0.081 0.112,-0.18 0.112,-0.296 0,-0.114 -0.038,-0.212 -0.112,-0.294 C 0.199,-0.793 0.108,-0.834 0,-0.834 c -0.104,0 -0.194,0.041 -0.269,0.123 -0.074,0.082 -0.111,0.18 -0.111,0.294 0,0.116 0.037,0.215 0.111,0.296 C -0.194,-0.041 -0.104,0 0,0 m -0.916,-2.639 0,0.222 c 0.411,0.114 0.798,0.285 1.159,0.512 L 0.339,-1.989 C 0.291,-2.553 0.268,-3.353 0.268,-4.388 c 0,-0.485 0.01,-0.782 0.032,-0.894 0.015,-0.075 0.04,-0.129 0.078,-0.162 0.036,-0.034 0.164,-0.084 0.382,-0.154 0.027,-0.007 0.068,-0.021 0.122,-0.04 l 0,-0.221 c -0.321,0.03 -0.585,0.046 -0.79,0.046 -0.126,0 -0.461,-0.016 -1.008,-0.046 l 0,0.221 c 0.33,0.088 0.516,0.169 0.558,0.242 0.041,0.074 0.062,0.457 0.062,1.149 l -0.004,0.851 0,0.164 c 0,0.298 -0.018,0.478 -0.055,0.539 -0.037,0.062 -0.095,0.092 -0.176,0.092 -0.051,0 -0.179,-0.013 -0.385,-0.038" /></g><g
         transform="translate(138.97659,812.64529)"
         id="g426"><path
           inkscape:connector-curvature="0"
           id="path428"
           style="fill:#2056ae;fill-opacity:1;fill-rule:nonzero;stroke:none"
           d="M 0,0 -0.247,0.031 C -0.256,0.364 -0.333,0.61 -0.479,0.77 -0.625,0.93 -0.823,1.01 -1.076,1.01 -1.256,1.01 -1.43,0.956 -1.596,0.848 -1.763,0.74 -1.893,0.564 -1.987,0.32 -2.081,0.076 -2.128,-0.2 -2.128,-0.509 c 0,-0.496 0.111,-0.883 0.332,-1.161 0.221,-0.279 0.477,-0.418 0.768,-0.418 0.305,0 0.673,0.132 1.103,0.398 l 0.137,-0.239 c -0.383,-0.31 -0.702,-0.527 -0.957,-0.653 -0.122,-0.058 -0.271,-0.087 -0.447,-0.087 -0.428,0 -0.774,0.135 -1.038,0.406 -0.351,0.359 -0.525,0.845 -0.525,1.459 0,0.636 0.183,1.158 0.55,1.567 0.367,0.409 0.819,0.614 1.357,0.614 0.368,0 0.721,-0.103 1.06,-0.307 C 0.195,0.98 0.171,0.863 0.139,0.72 0.098,0.532 0.052,0.292 0,0" /></g><g
         transform="translate(141.7661,812.8978)"
         id="g430"><path
           inkscape:connector-curvature="0"
           id="path432"
           style="fill:#2056ae;fill-opacity:1;fill-rule:nonzero;stroke:none"
           d="M 0,0 -0.268,0.024 C -0.285,0.257 -0.361,0.442 -0.496,0.577 -0.631,0.712 -0.8,0.78 -1.002,0.78 -1.177,0.78 -1.317,0.729 -1.42,0.627 -1.524,0.525 -1.576,0.407 -1.576,0.275 c 0,-0.117 0.041,-0.226 0.122,-0.327 0.113,-0.138 0.355,-0.307 0.727,-0.509 0.373,-0.201 0.624,-0.389 0.755,-0.564 0.13,-0.178 0.193,-0.379 0.193,-0.604 0,-0.324 -0.119,-0.604 -0.36,-0.839 -0.24,-0.236 -0.569,-0.354 -0.986,-0.354 -0.302,0 -0.636,0.073 -1.001,0.219 0.038,0.375 0.059,0.717 0.059,1.028 l 0.252,0 c 0.07,-0.315 0.18,-0.54 0.326,-0.676 0.146,-0.136 0.326,-0.204 0.54,-0.204 0.192,0 0.341,0.053 0.446,0.158 0.106,0.105 0.158,0.24 0.158,0.402 0,0.158 -0.051,0.303 -0.154,0.436 -0.105,0.133 -0.34,0.298 -0.703,0.495 -0.363,0.196 -0.605,0.374 -0.725,0.534 -0.123,0.159 -0.184,0.34 -0.184,0.542 0,0.287 0.119,0.544 0.358,0.772 0.239,0.227 0.558,0.341 0.955,0.341 0.277,0 0.576,-0.071 0.897,-0.212 C 0.065,0.698 0.032,0.394 0,0" /></g></g></g></svg>