<svg xmlns="http://www.w3.org/2000/svg" width="2500" height="2500" viewBox="0 0 192.756 192.756"><g fill-rule="evenodd" clip-rule="evenodd"><path fill="#fff" d="M0 0h192.756v192.756H0V0z"/><path d="M185.533 78.427c.736 0 1.457.188 2.16.566a4.043 4.043 0 0 1 1.641 1.625c.391.703.588 1.438.588 2.203 0 .756-.193 1.484-.58 2.181a4.091 4.091 0 0 1-1.623 1.627 4.436 4.436 0 0 1-2.186.58 4.44 4.44 0 0 1-2.186-.58 4.101 4.101 0 0 1-1.627-1.627 4.416 4.416 0 0 1-.582-2.181c0-.765.197-1.5.59-2.203a4.05 4.05 0 0 1 1.646-1.625 4.51 4.51 0 0 1 2.159-.566zm0 .727c-.617 0-1.217.159-1.801.475s-1.041.769-1.371 1.355c-.33.588-.494 1.2-.494 1.837 0 .631.162 1.237.486 1.817.322.58.775 1.033 1.357 1.357a3.705 3.705 0 0 0 1.822.486 3.71 3.71 0 0 0 1.822-.486 3.42 3.42 0 0 0 1.354-1.357c.322-.58.482-1.186.482-1.817 0-.638-.162-1.25-.49-1.837-.328-.586-.785-1.039-1.371-1.355s-1.184-.475-1.796-.475zm-1.926 6.093v-4.724h1.621c.557 0 .959.042 1.207.129.248.087.445.24.594.457.146.219.221.449.221.693 0 .346-.123.646-.369.901-.248.257-.574.399-.982.432.168.069.303.152.402.25.189.187.422.499.699.938l.576.924h-.932l-.42-.745c-.33-.584-.594-.951-.797-1.098-.139-.109-.344-.163-.611-.163h-.447v2.006h-.762zm.762-2.658h.926c.441 0 .742-.068.904-.199a.645.645 0 0 0 .242-.524.651.651 0 0 0-.117-.375.701.701 0 0 0-.322-.246c-.139-.056-.393-.082-.768-.082h-.865v1.426zM100.865 78.138h.146v10.096h-10.2V78.138h10.054zm-44.392 21.35l23.591 1.463c.981 0 1.783.803 1.783 1.783 0 .98-.802 1.783-1.783 1.783H46.443V91.375c1.033 4.058 4.589 7.377 10.03 8.113zm-10.03 15.182h34.372c5.01 0 9.217-3.615 10.144-8.365.818 4.734 4.959 8.365 9.907 8.365h21.961c4.906 0 9.021-3.572 9.885-8.25v8.25h35.211c5.684 0 10.334-4.65 10.334-10.336v-1.463c0-5.684-4.65-10.334-10.334-10.334l-1.932-.085c-10.955-.482-21.877-1.034-32.818-1.599.852 4.293 4.475 7.867 10.148 8.635l23.85 1.463a1.79 1.79 0 0 1 1.785 1.783 1.79 1.79 0 0 1-1.785 1.783H132.88V90.838l-10.199-.526v11.7a2.985 2.985 0 0 1-2.977 2.977h-15.715a2.984 2.984 0 0 1-2.977-2.977V89.194l-10.201-.526v11.598c-1.166-4.387-5.216-7.55-9.996-7.55l-44.923-2.937v24.892H46.443v-.001zM89.19 88.239V78.087H56.473c-4.83 0-8.912 3.357-10.03 7.854v-7.804H26.914l-6.655 10.097h25.883l43.048.005zm-57.606 1.29L15.453 114.67H2.834l17.018-25.818 11.732.677zm146.672-1.29V78.087H143.32c-5.621 0-10.23 4.549-10.332 10.147l45.268.005zm-55.576-.005V78.138H132.879v10.096H122.68z"/></g></svg>