<?xml version="1.0" encoding="UTF-8" standalone="no"?>
<svg
   xmlns:dc="http://purl.org/dc/elements/1.1/"
   xmlns:cc="http://creativecommons.org/ns#"
   xmlns:rdf="http://www.w3.org/1999/02/22-rdf-syntax-ns#"
   xmlns:svg="http://www.w3.org/2000/svg"
   xmlns="http://www.w3.org/2000/svg"
   xmlns:sodipodi="http://sodipodi.sourceforge.net/DTD/sodipodi-0.dtd"
   xmlns:inkscape="http://www.inkscape.org/namespaces/inkscape"
   version="1.1"
   id="Layer_1"
   inkscape:output_extension="org.inkscape.output.svg.inkscape"
   sodipodi:version="0.32"
   inkscape:version="0.46"
   sodipodi:docname="dlink_s.svg"
   x="0px"
   y="0px"
   width="99.735px"
   height="29.716px"
   viewBox="180.709 586.763 99.735 29.716"
   enable-background="new 180.709 586.763 99.735 29.716"
   xml:space="preserve"><metadata id="metadata45"><rdf:RDF><cc:Work     rdf:about=""><dc:format>image/svg+xml</dc:format><dc:type       rdf:resource="http://purl.org/dc/dcmitype/StillImage" /></cc:Work></rdf:RDF></metadata><defs id="defs3">


<inkscape:perspective
   id="perspective84"
   inkscape:vp_z="612 : 396 : 1"
   inkscape:vp_y="0 : 1000 : 0"
   inkscape:vp_x="0 : 396 : 1"
   sodipodi:type="inkscape:persp3d"
   inkscape:persp3d-origin="306 : 264 : 1">
</inkscape:perspective>
</defs><sodipodi:namedview id="base" inkscape:cx="225.81863" inkscape:zoom="0.82495791" showgrid="false" pagecolor="#ffffff" bordercolor="#666666" borderopacity="1.0" objecttolerance="10.0" gridtolerance="10.0" guidetolerance="10.0" inkscape:current-layer="Layer_1" inkscape:window-y="125" inkscape:window-x="125" inkscape:pageopacity="0.0" inkscape:pageshadow="2" inkscape:window-width="993" inkscape:window-height="872" inkscape:cy="236.58875">
</sodipodi:namedview><g id="g3">
<path
   id="path5"
   d="M182.634,611.383v-1.477h0.349c0.456,0,0.813,0.174,0.813,0.695c0,0.656-0.415,0.78-0.905,0.78L182.634,611.383    M182.634,613.848v-1.594h0.315c0.556,0,1.038,0.092,1.038,0.789c0,0.706-0.482,0.805-1.054,0.805H182.634z M181.688,609.034   c-0.141,0-0.174,0.023-0.174,0.175v5.337c0,0.14,0.033,0.174,0.174,0.174h1.361c1.071,0,2.058-0.225,2.058-1.609   c0-0.954-0.647-1.263-1.037-1.369c0.315-0.157,0.846-0.423,0.846-1.253c0-1.336-1.128-1.453-1.933-1.453L181.688,609.034   L181.688,609.034z" />
<path
   id="path7"
   d="M188.676,614.836c-0.05,0.018-0.091,0.025-0.124,0.025c-0.108,0-0.175-0.158-0.266-0.49   c-0.224,0.199-0.614,0.49-1.27,0.49c-0.456,0-1.079-0.208-1.079-1.212v-2.855c0-0.116,0.058-0.124,0.158-0.148l0.697-0.143   c0.025,0,0.108-0.023,0.133-0.023c0.05,0,0.066,0.032,0.066,0.175v2.639c0,0.315,0.042,0.698,0.465,0.698   c0.349,0,0.622-0.185,0.73-0.258v-2.938c0-0.116,0.058-0.124,0.158-0.148l0.697-0.143c0.025,0,0.108-0.023,0.141-0.023   c0.042,0,0.058,0.032,0.058,0.175v2.589c0,1.171,0.158,1.104,0.158,1.295c0,0.041-0.033,0.075-0.091,0.091L188.676,614.836" />
<path
   id="path9"
   d="M191.614,614.604c0,0.093-0.017,0.116-0.116,0.116h-0.822c-0.1,0-0.116-0.023-0.116-0.116v-3.212h-0.639   c-0.1,0-0.116-0.023-0.116-0.114v-0.54c0-0.092,0.016-0.116,0.116-0.116h1.577c0.099,0,0.116,0.023,0.116,0.116V614.604    M191.083,610.08c-0.382,0-0.689-0.307-0.689-0.689c0-0.381,0.307-0.68,0.689-0.68c0.373,0,0.68,0.299,0.68,0.68   C191.763,609.773,191.456,610.08,191.083,610.08z" />
<path
   id="path11"
   d="M194.502,614.563c0.008,0.041,0.017,0.041,0.017,0.065c0,0.116-0.44,0.233-0.839,0.233   c-1.02,0-1.02-0.838-1.02-1.604v-4.231c0-0.125,0.058-0.125,0.157-0.149l0.697-0.141c0.025,0,0.1-0.025,0.117-0.025   c0.066,0,0.083,0.033,0.083,0.174v4.523c0,0.266,0,0.498,0.232,0.498c0.166,0,0.274-0.074,0.324-0.074   c0.033,0,0.058,0.016,0.066,0.049L194.502,614.563" />
<path
   id="path13"
   d="M197.125,613.74c-0.1,0.106-0.241,0.291-0.615,0.291c-0.539,0-0.697-0.398-0.697-1.336   c0-0.921,0.125-1.388,0.747-1.388c0.349,0,0.49,0.124,0.565,0.165V613.74 M198.253,614.57c0.042-0.018,0.075-0.041,0.075-0.075   c0-0.165-0.15-0.273-0.15-1.078v-4.532c0-0.141-0.016-0.174-0.082-0.174c-0.017,0-0.092,0.025-0.117,0.025l-0.697,0.141   c-0.099,0.024-0.157,0.024-0.157,0.149v1.699c-0.133-0.09-0.324-0.247-0.772-0.247c-1.029,0-1.594,0.787-1.594,2.356   c0,1.261,0.473,2.025,1.42,2.025c0.597,0,0.962-0.374,1.095-0.498c0.041,0.207,0.166,0.498,0.24,0.498   c0.034,0,0.076-0.025,0.109-0.034L198.253,614.57z" />
<path
   id="path15"
   d="M200.494,614.604c0,0.093-0.017,0.116-0.116,0.116h-0.822c-0.099,0-0.116-0.023-0.116-0.116v-3.212h-0.639   c-0.099,0-0.116-0.023-0.116-0.114v-0.54c0-0.092,0.017-0.116,0.116-0.116h1.577c0.099,0,0.116,0.023,0.116,0.116V614.604    M199.963,610.08c-0.382,0-0.689-0.307-0.689-0.689c0-0.381,0.307-0.68,0.689-0.68c0.373,0,0.68,0.299,0.68,0.68   C200.643,609.773,200.336,610.08,199.963,610.08z" />
<path
   id="path17"
   d="M204.876,614.604c0,0.093-0.016,0.116-0.116,0.116h-0.822c-0.099,0-0.116-0.023-0.116-0.116v-2.557   c0-0.313-0.041-0.697-0.465-0.697c-0.348,0-0.622,0.241-0.73,0.342v2.911c0,0.094-0.017,0.117-0.116,0.117h-0.822   c-0.099,0-0.116-0.023-0.116-0.117v-2.506c0-1.17-0.158-1.104-0.158-1.295c0-0.042,0.034-0.075,0.092-0.091l0.63-0.208   c0.05-0.016,0.092-0.024,0.125-0.024c0.108,0,0.174,0.184,0.265,0.572c0.241-0.215,0.614-0.572,1.27-0.572   c0.457,0,1.079,0.207,1.079,1.213V614.604" />
<path
   id="path19"
   d="M207.964,613.558c-0.084,0.075-0.283,0.282-0.706,0.282c-0.498,0-0.664-0.473-0.664-1.229   c0-0.797,0.216-1.263,0.714-1.263c0.373,0,0.548,0.166,0.656,0.249V613.558 M208.96,611.873c0-0.656,0.232-0.955,0.232-1.063   c0-0.032-0.042-0.059-0.075-0.073l-0.647-0.241c-0.025-0.008-0.058-0.018-0.083-0.018c-0.116,0-0.266,0.315-0.291,0.391   c-0.157-0.132-0.398-0.391-0.987-0.391c-0.988,0-1.569,0.83-1.569,2.166c0,1.245,0.49,2.025,1.419,2.025   c0.565,0,0.88-0.231,1.005-0.313c0,0.058,0.024,0.257,0.024,0.547c0,0.465-0.099,0.706-0.68,0.706   c-0.739,0-1.245-0.324-1.345-0.324c-0.041,0-0.074,0.023-0.091,0.083l-0.158,0.506c-0.024,0.075-0.033,0.107-0.033,0.166   c0,0.174,1.071,0.439,1.718,0.439c1.154,0,1.602-0.598,1.602-1.503c0-0.464-0.041-1.318-0.041-1.866V611.873L208.96,611.873z" />
<path
   id="path21"
   d="M216.105,614.546c0,0.149-0.025,0.174-0.174,0.174h-0.548c-0.116,0-0.141-0.017-0.191-0.116l-1.518-2.828   c-0.249-0.467-0.391-0.758-0.474-1.131h-0.016c0,0.107,0.025,0.531,0.025,0.913v2.988c0,0.149-0.034,0.174-0.175,0.174h-0.605   c-0.142,0-0.175-0.023-0.175-0.174v-5.337c0-0.15,0.033-0.175,0.175-0.175h0.68c0.125,0,0.141,0.017,0.191,0.106l1.369,2.573   c0.233,0.44,0.391,0.864,0.49,1.204h0.017c0-0.266-0.025-0.847-0.025-1.079v-2.631c0-0.15,0.033-0.175,0.174-0.175h0.606   c0.141,0,0.174,0.023,0.174,0.175V614.546" />
<path
   id="path23"
   d="M218.022,612.18c0.025-0.23,0.058-0.93,0.706-0.93c0.573,0,0.598,0.59,0.598,0.93H218.022 M220.081,613.782   c-0.017-0.033-0.05-0.067-0.092-0.067c-0.116,0-0.456,0.275-1.054,0.275c-0.78,0-0.913-0.573-0.913-1.038h2.233   c0.158,0,0.191-0.05,0.191-0.208c0-1.004-0.249-2.267-1.66-2.267c-1.112,0-1.818,0.913-1.818,2.232c0,1.527,0.764,2.15,1.86,2.15   c0.655,0,1.485-0.274,1.485-0.49c0-0.033-0.008-0.066-0.025-0.091L220.081,613.782z" />
<path
   id="path25"
   d="M223.649,614.479c0.008,0.041,0.017,0.041,0.017,0.067c0,0.157-0.606,0.315-1.17,0.315   c-1.07,0-1.07-0.838-1.07-1.604v-1.867h-0.59c-0.1,0-0.116-0.023-0.116-0.114v-0.54c0-0.092,0.016-0.116,0.116-0.116h0.59v-1.046   c0-0.108,0.016-0.133,0.132-0.149l0.73-0.1c0.025,0,0.058-0.008,0.108-0.008c0.075,0,0.083,0.041,0.083,0.141v1.162h0.946   c0.075,0,0.141,0,0.141,0.091c0,0.016,0,0.033-0.008,0.066l-0.108,0.488c-0.025,0.116-0.049,0.125-0.149,0.125h-0.822v2.01   c0,0.266,0,0.506,0.282,0.506c0.333,0,0.54-0.157,0.656-0.157c0.033,0,0.058,0.016,0.066,0.05L223.649,614.479" />
<path
   id="path27"
   d="M225.069,612.504c0.083,0.406,0.141,0.946,0.182,1.402h0.017c0.008-0.315,0.091-0.987,0.157-1.295l0.383-1.859   c0.024-0.124,0.032-0.132,0.157-0.132h0.739c0.124,0,0.132,0.008,0.157,0.132l0.365,1.859c0.067,0.355,0.15,0.938,0.158,1.295   h0.017c0.041-0.464,0.083-0.946,0.182-1.402l0.398-1.793c0.018-0.083,0.051-0.166,0.117-0.166c0.033,0,0.108,0.008,0.133,0.008   l0.564,0.075c0.125,0.017,0.183,0.025,0.183,0.083c0,0.033-0.025,0.091-0.042,0.157l-1.153,3.81   c-0.034,0.108-0.05,0.116-0.158,0.116h-0.647c-0.108,0-0.133-0.05-0.15-0.133l-0.407-2.107c-0.05-0.266-0.091-0.696-0.107-0.93   h-0.017c-0.017,0.232-0.083,0.664-0.149,0.93l-0.498,2.107c-0.017,0.083-0.042,0.133-0.15,0.133h-0.647   c-0.108,0-0.125-0.008-0.158-0.116l-0.996-3.81c-0.017-0.059-0.033-0.116-0.042-0.157c0-0.058,0.059-0.066,0.183-0.083l0.623-0.075   c0.025,0,0.108-0.008,0.141-0.008c0.058,0,0.091,0.083,0.108,0.166L225.069,612.504" />
<path
   id="path29"
   d="M230.888,614.031c-0.581,0-0.681-0.589-0.681-1.361c0-0.771,0.108-1.361,0.681-1.361   c0.573,0,0.681,0.591,0.681,1.361C231.569,613.45,231.469,614.031,230.888,614.031 M232.689,612.67   c0-1.337-0.688-2.191-1.801-2.191c-1.121,0-1.801,0.854-1.801,2.191c0,1.336,0.68,2.191,1.801,2.191   C232.008,614.861,232.689,614.006,232.689,612.67z" />
<path
   id="path31"
   d="M234.515,614.604c0,0.093-0.017,0.116-0.116,0.116h-0.822c-0.1,0-0.115-0.023-0.115-0.116v-2.507   c0-0.913-0.217-1.062-0.217-1.253c0-0.033,0.033-0.059,0.075-0.074l0.631-0.258c0.033-0.009,0.074-0.033,0.107-0.033   c0.1,0,0.266,0.373,0.307,0.655c0.158-0.189,0.466-0.655,1.03-0.655c0.241,0,0.481,0.084,0.481,0.191   c0,0.033-0.009,0.066-0.018,0.082l-0.257,0.697c-0.008,0.023-0.033,0.075-0.067,0.075c-0.049,0-0.197-0.093-0.389-0.093   c-0.258,0-0.522,0.282-0.631,0.398L234.515,614.604" />
<path
   id="path33"
   d="M239.735,614.238c0.042,0.042,0.075,0.092,0.075,0.125c0,0.031-0.008,0.058-0.042,0.074l-0.705,0.39   c-0.033,0.017-0.066,0.034-0.1,0.034c-0.034,0-0.074-0.052-0.1-0.083l-1.519-1.984h-0.017v1.809c0,0.094-0.017,0.117-0.116,0.117   h-0.822c-0.099,0-0.116-0.023-0.116-0.117v-5.575c0-0.116,0.06-0.135,0.158-0.149l0.697-0.141c0.024-0.011,0.107-0.025,0.133-0.025   c0.05,0,0.066,0.033,0.066,0.174v3.287l1.594-1.61c0.024-0.032,0.091-0.082,0.116-0.082c0.05,0,0.083,0.041,0.149,0.092l0.414,0.34   c0.033,0.033,0.042,0.058,0.042,0.091c0,0.034-0.034,0.067-0.075,0.108l-1.344,1.312L239.735,614.238" />
<path
   id="path35"
   d="M242.567,611.449c-0.017,0.042-0.058,0.075-0.066,0.075c-0.024,0-0.432-0.217-0.962-0.217   c-0.315,0-0.549,0.116-0.549,0.398c0,0.448,0.747,0.415,1.336,0.805c0.324,0.216,0.557,0.531,0.557,1.015   c0,0.763-0.539,1.336-1.419,1.336c-0.614,0-1.562-0.315-1.562-0.54c0-0.025,0.034-0.074,0.042-0.108l0.184-0.473   c0.017-0.041,0.032-0.074,0.065-0.074c0.033,0,0.672,0.365,1.188,0.365c0.273,0,0.506-0.117,0.506-0.415   c0-0.481-0.813-0.481-1.361-0.849c-0.249-0.166-0.49-0.455-0.49-0.938c0-0.755,0.573-1.354,1.47-1.354   c0.507,0,1.295,0.217,1.295,0.406c0,0.025-0.025,0.075-0.042,0.108L242.567,611.449" />
<path
   id="path37"
   d="M247.231,614.546c0,0.149-0.033,0.174-0.174,0.174h-0.706c-0.141,0-0.174-0.023-0.174-0.174v-3.154h-0.589   c-0.143,0-0.174-0.023-0.174-0.175v-0.423c0-0.148,0.031-0.174,0.174-0.174h0.589v-0.34c0-0.913,0.332-1.569,1.328-1.569   c0.373,0,1.012,0.133,1.012,0.299c0,0.024-0.008,0.049-0.017,0.075l-0.149,0.58c-0.008,0.034-0.041,0.083-0.075,0.083   c-0.091,0-0.265-0.141-0.58-0.141c-0.448,0-0.465,0.272-0.465,0.673v0.34h0.946c0.075,0,0.141,0.017,0.141,0.083   c0,0.033-0.008,0.049-0.016,0.082l-0.117,0.491c-0.025,0.105-0.074,0.114-0.157,0.114h-0.797V614.546" />
<path
   id="path39"
   d="M250.196,614.031c-0.581,0-0.681-0.589-0.681-1.361c0-0.771,0.108-1.361,0.681-1.361   c0.573,0,0.681,0.591,0.681,1.361C250.876,613.45,250.776,614.031,250.196,614.031 M251.997,612.67   c0-1.337-0.688-2.191-1.801-2.191c-1.121,0-1.801,0.854-1.801,2.191c0,1.336,0.68,2.191,1.801,2.191   C251.316,614.861,251.997,614.006,251.997,612.67z" />
<path
   id="path41"
   d="M253.822,614.604c0,0.093-0.017,0.116-0.115,0.116h-0.821c-0.101,0-0.117-0.023-0.117-0.116v-2.507   c0-0.913-0.216-1.062-0.216-1.253c0-0.033,0.034-0.059,0.075-0.074l0.631-0.258c0.033-0.009,0.075-0.033,0.107-0.033   c0.1,0,0.266,0.373,0.308,0.655c0.158-0.189,0.465-0.655,1.028-0.655c0.241,0,0.481,0.084,0.481,0.191   c0,0.033-0.008,0.066-0.016,0.082l-0.259,0.697c-0.007,0.023-0.032,0.075-0.065,0.075c-0.049,0-0.199-0.093-0.39-0.093   c-0.258,0-0.523,0.282-0.632,0.398v2.773" />
<path
   id="path43"
   d="M258.985,611.574v-1.668h0.34c0.432,0,0.871,0.023,0.871,0.747c0,0.838-0.465,0.921-0.954,0.921H258.985    M258.985,612.446h0.439c0.871,0,1.893-0.482,1.893-1.853c0-1.561-1.262-1.561-1.934-1.561h-1.345   c-0.142,0-0.175,0.023-0.175,0.175v5.337c0,0.149,0.033,0.174,0.175,0.174h0.771c0.142,0,0.175-0.023,0.175-0.174L258.985,612.446   L258.985,612.446z" />
<path
   id="path45"
   d="M262.471,612.18c0.025-0.23,0.058-0.93,0.705-0.93c0.573,0,0.598,0.59,0.598,0.93H262.471 M264.529,613.782   c-0.016-0.033-0.049-0.067-0.091-0.067c-0.116,0-0.457,0.275-1.054,0.275c-0.781,0-0.913-0.573-0.913-1.038h2.232   c0.158,0,0.19-0.05,0.19-0.208c0-1.004-0.248-2.267-1.66-2.267c-1.11,0-1.816,0.913-1.816,2.232c0,1.527,0.763,2.15,1.858,2.15   c0.656,0,1.486-0.274,1.486-0.49c0-0.033-0.009-0.066-0.025-0.091L264.529,613.782z" />
<path
   id="path47"
   d="M267.21,614.031c-0.581,0-0.682-0.589-0.682-1.361c0-0.771,0.109-1.361,0.682-1.361   c0.573,0,0.681,0.591,0.681,1.361C267.891,613.45,267.792,614.031,267.21,614.031 M269.012,612.67c0-1.337-0.69-2.191-1.802-2.191   c-1.12,0-1.802,0.854-1.802,2.191c0,1.336,0.682,2.191,1.802,2.191C268.332,614.861,269.012,614.006,269.012,612.67z" />
<path
   id="path49"
   d="M270.886,611.624c0.117-0.108,0.317-0.315,0.665-0.315c0.514,0,0.672,0.475,0.672,1.328   c0,0.979-0.149,1.396-0.73,1.396c-0.323,0-0.455-0.075-0.606-0.158v-2.25 M270.886,614.645c0.175,0.093,0.383,0.218,0.864,0.218   c1.079,0,1.526-0.814,1.526-2.268c0-1.394-0.514-2.116-1.436-2.116c-0.558,0-0.879,0.259-1.063,0.433   c-0.091-0.273-0.148-0.433-0.257-0.433c-0.033,0-0.075,0.01-0.125,0.024l-0.631,0.208c-0.058,0.016-0.091,0.049-0.091,0.091   c0,0.191,0.158,0.125,0.158,1.295v4.208c0,0.143,0.017,0.174,0.058,0.174s0.116-0.017,0.141-0.023l0.697-0.141   c0.101-0.019,0.157-0.033,0.157-0.149v-1.521H270.886z" />
<path
   id="path51"
   d="M275.875,614.563c0.009,0.041,0.017,0.041,0.017,0.065c0,0.116-0.44,0.233-0.838,0.233   c-1.021,0-1.021-0.838-1.021-1.604v-4.231c0-0.125,0.059-0.125,0.158-0.149l0.697-0.141c0.025,0,0.099-0.025,0.116-0.025   c0.066,0,0.083,0.033,0.083,0.174v4.523c0,0.266,0,0.498,0.232,0.498c0.165,0,0.274-0.074,0.323-0.074   c0.034,0,0.058,0.016,0.067,0.049L275.875,614.563" />
<path
   id="path53"
   d="M277.178,612.18c0.025-0.23,0.058-0.93,0.705-0.93c0.572,0,0.598,0.59,0.598,0.93H277.178 M279.236,613.782   c-0.016-0.033-0.05-0.067-0.092-0.067c-0.116,0-0.456,0.275-1.053,0.275c-0.781,0-0.913-0.573-0.913-1.038h2.231   c0.159,0,0.191-0.05,0.191-0.208c0-1.004-0.249-2.267-1.66-2.267c-1.111,0-1.816,0.913-1.816,2.232c0,1.527,0.764,2.15,1.858,2.15   c0.655,0,1.485-0.274,1.485-0.49c0-0.033-0.008-0.066-0.025-0.091L279.236,613.782z" />
<g
   id="g55">
<path
   id="path57"
   fill="#2B8CA1"
   d="M206.203,595.249h5.53c0.384,0,0.458,0.394,0.164,0.877l-1.117,1.834    c-0.293,0.483-0.848,0.878-1.233,0.878h-5.529c-0.385,0-0.459-0.395-0.165-0.878l1.117-1.834    C205.264,595.643,205.819,595.249,206.203,595.249" />
<path
   id="path59"
   fill="#2B8CA1"
   d="M232.627,586.668c2.033-0.189,4.44,1.41,3.25,3.497c-1.133,1.894-5.253,2.37-6.495,2.258    c-0.397-0.036-1.042-0.281-1.02-0.912c0.015-0.45,0.262-2.004,1.115-3.229C230.362,587.082,231.676,586.732,232.627,586.668" />
</g>
<path
   id="path61"
   fill="#2B8CA1"
   d="M245.284,590.714c0.633-0.28,0.688,0.406,0.67,0.612v1.604c0.002,0.31,0.264,0.166,0.397,0.112   c1.9-0.807,3.835-2.001,6.285-1.943c2.17,0.054,2.825,1.771,2.814,3.746v8.417c0,0.746,0.058,0.918,0.402,1.205   c0.114,0.059,0.688,0.115,0.917,0.115c0.23,0,0.23,0.171,0.172,0.344l-0.52,1.319c-0.115,0.229-0.344,0.287-0.518,0.287h-4.939   c-1.721-0.06-2.24-1.344-2.216-2.009v-8.009c0-1.644-2.682-1.771-2.682,0.443v6.762c0.028,0.315-0.073,0.746,0.786,0.805   c0.574,0,0.977-0.059,0.689,0.631l-0.418,1.063c-0.1,0.196-0.333,0.315-0.559,0.314h-8.175c-0.172,0-0.312-0.199-0.278-0.345   l0.581-1.49c0.025-0.065,0.083-0.169,0.163-0.173c0.267-0.018,0.453-0.146,0.508-0.919v-8.781c0-0.719-0.652-0.631-1.146-0.631   c-0.224,0-0.344-0.059-0.286-0.346l0.458-0.975c0.058-0.229,0.17-0.316,0.345-0.344   C241.426,592.104,242.99,591.918,245.284,590.714" />
<path
   id="path63"
   fill="#FFFFFF"
   d="M277.806,587.923v0.802h0.294c0.321,0,0.534-0.015,0.639-0.048   c0.077-0.021,0.14-0.065,0.188-0.135c0.05-0.069,0.074-0.141,0.074-0.215c0-0.11-0.042-0.206-0.125-0.285   c-0.083-0.08-0.293-0.119-0.632-0.119H277.806 M277.508,587.678h0.896c0.324,0,0.558,0.062,0.697,0.18   c0.141,0.117,0.212,0.267,0.212,0.442c0,0.188-0.074,0.344-0.22,0.472c-0.108,0.092-0.263,0.149-0.468,0.182   c0.092,0.045,0.156,0.084,0.194,0.118c0.038,0.032,0.099,0.104,0.179,0.217c0.082,0.11,0.143,0.203,0.185,0.276l0.235,0.422h-0.368   l-0.224-0.384c-0.172-0.295-0.302-0.472-0.391-0.528c-0.089-0.061-0.236-0.088-0.439-0.088h-0.19v1h-0.298V587.678L277.508,587.678   z M280.207,588.907c0-0.525-0.187-0.977-0.558-1.349c-0.371-0.371-0.819-0.558-1.348-0.558c-0.525,0-0.973,0.187-1.344,0.558   c-0.371,0.372-0.559,0.822-0.559,1.349c0,0.522,0.188,0.974,0.559,1.346c0.371,0.373,0.818,0.558,1.344,0.558   c0.528,0,0.977-0.185,1.348-0.558C280.02,589.881,280.207,589.431,280.207,588.907z M280.444,588.907   c0,0.591-0.208,1.096-0.627,1.514c-0.416,0.42-0.921,0.629-1.512,0.629c-0.592,0-1.097-0.209-1.516-0.629   c-0.42-0.418-0.629-0.923-0.629-1.514c0-0.592,0.209-1.099,0.629-1.517c0.419-0.419,0.924-0.628,1.516-0.628   c0.591,0,1.096,0.209,1.512,0.628C280.236,587.81,280.444,588.315,280.444,588.907z" />
<g
   id="g65">
<path
   id="path67"
   fill="#2B8CA1"
   d="M277.806,587.923v0.802h0.294c0.321,0,0.534-0.015,0.639-0.048    c0.077-0.021,0.14-0.065,0.188-0.135c0.05-0.069,0.074-0.141,0.074-0.215c0-0.11-0.042-0.206-0.125-0.285    c-0.083-0.08-0.293-0.119-0.632-0.119H277.806z M277.508,587.678h0.896c0.324,0,0.558,0.062,0.697,0.18    c0.141,0.117,0.212,0.267,0.212,0.442c0,0.188-0.074,0.344-0.22,0.472c-0.108,0.092-0.263,0.149-0.468,0.182    c0.092,0.045,0.156,0.084,0.194,0.118c0.038,0.032,0.099,0.104,0.179,0.217c0.082,0.11,0.143,0.203,0.185,0.276l0.235,0.422    h-0.368l-0.224-0.384c-0.172-0.295-0.302-0.472-0.391-0.528c-0.089-0.061-0.236-0.088-0.439-0.088h-0.19v1h-0.298V587.678    L277.508,587.678z M280.207,588.907c0-0.525-0.187-0.977-0.558-1.349c-0.371-0.371-0.819-0.558-1.348-0.558    c-0.525,0-0.973,0.187-1.344,0.558c-0.371,0.372-0.559,0.822-0.559,1.349c0,0.522,0.188,0.974,0.559,1.346    c0.371,0.373,0.818,0.558,1.344,0.558c0.528,0,0.977-0.185,1.348-0.558C280.02,589.881,280.207,589.431,280.207,588.907z     M280.444,588.907c0,0.591-0.208,1.096-0.627,1.514c-0.416,0.42-0.921,0.629-1.512,0.629c-0.592,0-1.097-0.209-1.516-0.629    c-0.42-0.418-0.629-0.923-0.629-1.514c0-0.592,0.209-1.099,0.629-1.517c0.419-0.419,0.924-0.628,1.516-0.628    c0.591,0,1.096,0.209,1.512,0.628C280.236,587.81,280.444,588.315,280.444,588.907z" />
</g>
<path
   id="path69"
   fill="#2B8CA1"
   d="M265.237,587.006c0.469-0.072,0.737,0.214,0.737,0.731v8.413   c0.057,0.459,0.396,0.143,0.495,0.018l2.91-3.684c0.304-0.387,1.047-0.452,1.512-0.462h6.335c0.115,0,0.173,0.131,0.057,0.285   l-0.802,1.092c-0.075,0.1-0.139,0.229-0.517,0.229h-0.312c-0.289,0.014-0.344,0.115-0.459,0.172l-3.248,3.652   c-0.684,0.821-0.516,1.166,0.092,1.749l4.459,4.578c0.994,0.688,1.891,0.745,2.923,0.803c0.275,0.018,0.216,0.234,0.114,0.344   l-1.146,1.319c-0.114,0.172-0.617,0.287-0.902,0.287h-4.426c-0.573,0-1.6-0.173-2.403-0.689c-1.605-1.317-2.626-2.996-4.188-4.473   c-0.275-0.26-0.495-0.143-0.495,0.09v1.917c0,0.86,0.36,1.09,1.621,1.146c0.477,0.03,0.349,0.286,0.234,0.573l-0.415,1.091   c-0.119,0.263-0.279,0.343-0.508,0.345h-9.17c-0.287,0-0.47-0.086-0.413-0.259l0.51-1.344c0.108-0.262,0.184-0.322,0.571-0.344   c0.633-0.034,0.865-0.245,0.872-1.188v-12.363c0-0.419-0.096-0.587-0.395-0.545l-1.166,0.164c-0.344,0.048-0.413-0.214-0.267-0.46   l0.714-1.193c0.14-0.233,0.389-0.26,0.66-0.304c2.334-0.379,4.696-1.059,6.146-1.61   C265.054,587.055,265.133,587.028,265.237,587.006" />
<g
   id="g71">
<path
   id="path73"
   fill="#2B8CA1"
   d="M235.717,591.974c0.286-0.113,0.631,0.114,0.574,0.745v10.89    c0.152,0.766,0.392,0.956,1.071,1.03c0,0,0.472,0.018,0.345,0.346l-0.443,1.146c-0.172,0.344-0.287,0.402-0.688,0.402h-8.523    c-0.22-0.014-0.305-0.161-0.234-0.402l0.415-1.089c0.071-0.153,0.106-0.295,0.39-0.345c0.861-0.229,0.918-0.346,0.918-1.491    v-6.528c0-1.09-0.17-1.033-1.432-0.918c-0.229-0.057-0.21-0.271-0.172-0.344l0.631-1.205c0.172-0.344,0.401-0.344,0.401-0.344    C231.382,593.682,233.795,593.087,235.717,591.974" />
<path
   id="path75"
   fill="#2B8CA1"
   d="M192.716,606.526c1.854,0.029,4.096,0.117,6.167-1.501c1.484-0.981,3.259-4.938,3.902-6.563    c0.32-0.853,0.407-1.98,0-2.826c-1.128-2.542-2.758-5.393-3.829-6.539c-1.548-1.434-2.991-1.549-5.4-1.549h-10.292    c-0.432,0-0.918,0.112-1.091,0.405l-0.746,1.373c-0.114,0.574,0.574,0.631,0.574,0.631h1.046c0.287,0,0.344,0.229,0.344,0.459    v12.732c0,0.571-0.644,0.917-1.161,1.03c-0.229,0.059-0.57,0.125-0.745,0.402l-0.746,1.433c-0.114,0.287,0.117,0.523,0.345,0.519    C185.143,606.532,188.657,606.54,192.716,606.526 M190.101,604.157v-13.686c0-0.344,0.057-0.516,0.401-0.571h0.998    c0.358,0,0.883-0.068,1.203,0.488l3.449,6.027c0.287,0.631,0.201,0.891,0,1.32l-3.499,5.909c-0.42,0.581-0.616,0.472-1.153,0.511    c-0.007,0,0.008-0.001,0-0.001L190.101,604.157L190.101,604.157z" />
</g>
<path
   id="path77"
   fill="#2B8CA1"
   d="M222.082,587.676c0.44,0.005,0.603,0.264,0.516,0.438l-0.917,1.669   c0,0-0.115,0.344-0.918,0.344h-0.084c-0.516,0-0.923,0-0.98,1.032v12.098c0,0.518,0.217,0.954,0.85,0.977h1.251   c2.038-0.03,1.992-2.122,2.451-3.957c0.115-0.287,0.172-0.459,0.516-0.632l1.809-0.632c0.229,0,0.459,0,0.516,0.401v6.08   c0.058,0.573-0.459,1.089-1.147,1.032h-15.521c-0.574,0-0.688-0.173-0.574-0.518l0.574-1.262c0,0,0.172-0.344,0.688-0.344   c1.147-0.06,1.866-0.074,1.852-1.835v-11.302c0-0.745-0.175-1.204-0.921-1.204c-0.293,0-0.586,0-0.879,0   c-0.573,0-0.876-0.195-0.745-0.517l0.803-1.491c0.182-0.338,0.344-0.38,0.63-0.38L222.082,587.676" />
</g></svg>