<?xml version="1.0" encoding="UTF-8" standalone="no"?>
<svg
   xmlns:dc="http://purl.org/dc/elements/1.1/"
   xmlns:cc="http://creativecommons.org/ns#"
   xmlns:rdf="http://www.w3.org/1999/02/22-rdf-syntax-ns#"
   xmlns:svg="http://www.w3.org/2000/svg"
   xmlns="http://www.w3.org/2000/svg"
   version="1.1"
   id="svg3794"
   viewBox="0 0 300 300"
   height="300"
   width="300">
  <defs
     id="defs3796" />
  <metadata
     id="metadata3799">
    <rdf:RDF>
      <cc:Work
         rdf:about="">
        <dc:format>image/svg+xml</dc:format>
        <dc:type
           rdf:resource="http://purl.org/dc/dcmitype/StillImage" />
        <dc:title></dc:title>
      </cc:Work>
    </rdf:RDF>
  </metadata>
  <g
     transform="translate(-318.33375,-439.74274)"
     id="layer1">
    <g
       transform="matrix(4.579965,0,0,-4.579965,468.34291,456.8459)"
       id="g3460">
      <path
         id="path3462"
         style="fill:#007db8;fill-opacity:1;fill-rule:nonzero;stroke:none"
         d="m 0,0 c -8.01,0 -15.264,-3.249 -20.516,-8.505 -5.254,-5.244 -8.501,-12.502 -8.501,-20.516 0,-8.008 3.247,-15.261 8.501,-20.507 5.252,-5.249 12.506,-8.504 20.516,-8.504 8.012,0 15.27,3.255 20.514,8.504 5.252,5.246 8.492,12.499 8.492,20.507 0,8.014 -3.24,15.272 -8.492,20.516 C 15.27,-3.249 8.012,0 0,0 m 0,3.516 c 17.965,0 32.531,-14.568 32.531,-32.537 0,-17.963 -14.566,-32.529 -32.531,-32.529 -17.963,0 -32.535,14.566 -32.535,32.529 0,17.969 14.572,32.537 32.535,32.537" />
    </g>
    <g
       transform="matrix(4.579965,0,0,-4.579965,397.87238,588.54693)"
       id="g3464">
      <path
         id="path3466"
         style="fill:#007db8;fill-opacity:1;fill-rule:nonzero;stroke:none"
         d="m 0,0 c 0,1.896 -1.258,2.973 -3.039,2.973 l -1.09,0 0,-5.948 1.059,0 C -1.414,-2.975 0,-2.075 0,0 M 19.389,-2.14 11.359,-8.463 4.02,-2.685 C 2.961,-5.229 0.402,-6.996 -2.545,-6.996 l -6.281,0 0,13.992 6.281,0 c 3.293,0 5.666,-2.094 6.563,-4.325 l 7.341,5.772 2.719,-2.14 -6.728,-5.288 1.293,-1.012 6.726,5.285 2.723,-2.134 -6.727,-5.294 1.291,-1.014 6.733,5.295 0,4.855 4.881,0 0,-9.908 4.869,0 0,-4.101 -9.75,0 0,4.873 z m 15.933,-0.774 4.867,0 0,-4.099 -9.753,0 0,14.009 4.886,0 0,-9.91 z" />
    </g>
  </g>
</svg>
