<svg xmlns="http://www.w3.org/2000/svg" width="2500" height="2500" viewBox="0 0 192.756 192.756"><g fill-rule="evenodd" clip-rule="evenodd"><path fill="#fff" d="M0 0h192.756v192.756H0V0z"/><path d="M2.834 49.7v88.156c0 10.781 4.092 16.361 13.765 16.361h59.135l2.604-8.182c-24.928-8.18-37.197-30.123-37.197-50.958 0-23.437 15.252-41.284 34.594-49.468l2.604-7.071H15.108C9.523 38.539 2.834 44.122 2.834 49.7zm187.088 0c0-5.578-5.582-11.161-11.16-11.161H103.26l-2.984 7.071c33.109 1.472 50.959 26.032 50.959 49.468 0 20.834-15.232 49.469-46.846 50.958l-4.113 8.182h77.012c8.543 0 12.635-5.58 12.635-16.361l-.001-88.157zM99.449 79.944c.641-3.837-3.261-6.809-7.353-6.809h-8.179l12.271-34.597H83.917l-27.525 78.485 11.497.047 13.045-37.245h7.075l-13.764 37.198h12.272s12.688-35.61 12.932-37.079zm10.504-6.809l-27.529 81.082h12.293l11.141-35.705h13.764c5.582 0 6.916-3.783 8.342-7.957 1.121-2.955 10.004-29.312 10.387-30.751.814-3.055-1.732-6.516-6.457-6.668-4.089-.133-21.941-.001-21.941-.001zm-1.476 39.795l11.137-33.228 7.082.124-11.166 33.104h-7.053z" fill="#2360a5"/></g></svg>