<svg xmlns="http://www.w3.org/2000/svg" width="2500" height="1649" viewBox="0 0 569.579 375.614"><path d="M270.558 334.834c-112.551 10.383-229.861-5.971-246.292-93.93-8.038-43.361 11.742-89.341 37.946-117.92v-15.261c-47.204 41.399-72.786 93.782-58.051 155.661 18.822 79.367 119.477 124.312 273.155 109.387 60.829-5.895 140.381-25.453 195.724-55.852v-43.152c-50.228 29.927-133.287 54.648-202.482 61.067zm296.497-228.142c-26.697-130.341-279.771-138.604-442.907-39.3V78.36C287.097-5.414 518.232-4.905 539.276 115.163c7.062 39.718-15.312 81.097-55.282 104.923v31.154c48.081-17.636 97.4-74.678 83.061-144.548z" fill="#0e7dc2"/><path d="M463.94 87.712h-29.51v131.432c0 15.403 7.446 28.798 29.51 30.938V87.712zM112.561 135.7H82.997l-.016 85.869c0 15.457 7.47 28.838 29.58 30.938V135.7zM82.997 91.71h29.472v27.973H82.997zM289.291 251.147c-23.886 0-33.994-16.602-33.994-32.955V104.178h29.253V135.7h22.031v23.628H284.55v57.057c0 6.668 3.166 10.383 10.119 10.383h11.912v24.38l-17.29-.001M343.12 202.573c0 14.971 9.361 25.973 25.925 25.973 12.979 0 19.376-3.602 26.868-11.002l18.076 17.219c-11.589 11.449-23.731 18.41-45.16 18.41-27.995 0-54.818-15.279-54.818-59.823 0-38.081 23.438-59.607 54.169-59.607 31.24 0 49.193 25.2 49.193 58.279v10.554H343.12m23.778-44.639c-10.013 0-17.706 5.157-20.967 12.113-1.899 4.181-2.595 7.439-2.812 12.577h45.084c-.57-12.577-6.272-24.69-21.305-24.69zM192.013 159.328c8.578 0 12.144 4.241 12.144 11.124v80.866h29.26v-81.036c0-16.42-8.749-34.551-34.443-34.551l-60.441-.031v115.618h29.271v-91.99h24.209zM495.691 111.197c-6.505 0-11.697-5.246-11.697-11.743 0-6.466 5.192-11.742 11.697-11.742 6.473 0 11.788 5.276 11.788 11.742 0 6.497-5.316 11.743-11.788 11.743zm0-21.527c-5.361 0-9.673 4.431-9.673 9.784 0 5.384 4.312 9.737 9.673 9.737 5.36 0 9.811-4.353 9.811-9.737-.001-5.353-4.45-9.784-9.811-9.784zm5.206 16.822h-2.194a.495.495 0 0 1-.446-.293l-2.968-5.045c-.093-.108-.34-.231-.416-.231h-1.359v5.029c0 .248-.171.541-.494.541h-1.979c-.295 0-.494-.293-.494-.541V93.267c0-.742.247-1.047.896-1.14.711-.077 2.565-.17 3.602-.17 3.661 0 5.81 1.078 5.81 4.473v.248c0 2.097-1.035 3.24-2.642 3.75l3.09 5.261a.945.945 0 0 1 .077.372c-.004.199-.111.431-.483.431zm-2.842-10.062c0-1.417-.881-1.865-2.767-1.865h-1.869v4.024c.294 0 1.623.062 1.869.062 1.886 0 2.767-.629 2.767-1.973v-.248z" fill="#0e7dc2"/></svg>