<!-- Created with Inkscape (http://www.inkscape.org/) -->
<svg xmlns:rdf="http://www.w3.org/1999/02/22-rdf-syntax-ns#" xmlns="http://www.w3.org/2000/svg" height="100" width="330" version="1.1" xmlns:cc="http://creativecommons.org/ns#" xmlns:dc="http://purl.org/dc/elements/1.1/">
 <defs>
  <clipPath id="clipPath3095" clipPathUnits="userSpaceOnUse">
   <path d="m44.936,724.66,116.15,0,0,31.739-116.15,0,0-31.739z"/>
  </clipPath>
  <clipPath id="clipPath3079" clipPathUnits="userSpaceOnUse">
   <path d="m44.946,725,114.9,0,0,31.4-114.9,0,0-31.4z"/>
  </clipPath>
  <clipPath id="clipPath3037" clipPathUnits="userSpaceOnUse">
   <path d="m44.936,724.66,116.15,0,0,31.739-116.15,0,0-31.739z"/>
  </clipPath>
 </defs>
 <metadata>
  <rdf:RDF>
   <cc:Work rdf:about="">
    <dc:format>image/svg+xml</dc:format>
    <dc:type rdf:resource="http://purl.org/dc/dcmitype/StillImage"/>
    <dc:title/>
   </cc:Work>
  </rdf:RDF>
 </metadata>
 <g transform="translate(69.285713,-19.505037)">
  <g transform="matrix(2.2214693,0,0,2.2214693,-172.25428,-315.17789)">
   <g transform="matrix(1.25,0,0,-1.25,119.25316,185.06493)">
    <path d="m0,0,0.706,0,3.637-5.015,0,5.015,0.624,0,0-6.082-0.592,0-3.751,5.163,0-5.163h-0.624v6.082z" fill-rule="nonzero" fill="#61849c"/>
   </g>
   <g transform="matrix(1.25,0,0,-1.25,127.40054,185.06493)">
    <path d="m0,0,4.022,0,0-0.616-3.374,0,0-2.01,3.292,0,0-0.608-3.292,0,0-2.257,3.407,0,0-0.591h-4.055v6.082z" fill-rule="nonzero" fill="#61849c"/>
   </g>
   <g transform="matrix(1.25,0,0,-1.25,136.50116,185.83455)">
    <path d="m0,0-2.282,0,0,0.616,5.213,0,0-0.616-2.282,0,0-5.467h-0.649v5.467z" fill-rule="nonzero" fill="#61849c"/>
   </g>
   <g transform="matrix(1.25,0,0,-1.25,141.14891,185.06493)">
    <path d="M0,0,0.665,0,2.265-5.031,3.899,0,4.457,0,6.082-5.031,7.691,0,8.315,0,6.361-6.123h-0.557l-1.642,5.064-1.634-5.064h-0.566l-1.962,6.123z" fill-rule="nonzero" fill="#61849c"/>
   </g>
   <g transform="matrix(1.25,0,0,-1.25,-7.3707143,1099.0408)">
    <g clip-path="url(#clipPath3037)">
     <g transform="translate(133.1884,728.1357)">
      <path d="m0,0c0,1.642-0.763,2.528-2.422,2.528-1.65,0-2.405-0.886-2.405-2.528,0-1.65,0.755-2.537,2.405-2.537,1.659,0,2.422,0.887,2.422,2.537m-5.475,0.008c0,2.167,1.108,3.135,3.053,3.135,1.954,0,3.07-0.968,3.07-3.135,0-2.175-1.116-3.144-3.07-3.144-1.945,0-3.053,0.969-3.053,3.144" fill-rule="nonzero" fill="#61849c"/>
     </g>
     <g transform="translate(137.7932,728.1683)">
      <path d="m0,0c0.862,0,1.395,0.263,1.395,1.223,0,0.944-0.517,1.19-1.419,1.19h-1.979v-2.413h2.003zm-0.18-0.591-1.823,0,0-2.479-0.632,0,0,6.082,2.627,0c1.412,0,2.052-0.566,2.052-1.773,0-1.05-0.501-1.666-1.56-1.805l1.469-2.504h-0.689l-1.444,2.479z" fill-rule="nonzero" fill="#61849c"/>
     </g>
     <g transform="translate(143.0629,728.3242)">
      <path d="m0,0-1.215-1.329,0-1.897-0.632,0,0,6.082,0.632,0,0-3.357,3.078,3.357,0.747,0-2.183-2.388,2.479-3.694-0.731,0l-2.175,3.226z" fill-rule="nonzero" fill="#61849c"/>
     </g>
     <g transform="translate(146.5105,725.714)">
      <path d="m0,0,0.328,0.492c0.73-0.459,1.445-0.615,2.175-0.615,1.256,0,1.814,0.353,1.814,1.19,0,0.862-0.722,0.985-1.814,1.182-1.313,0.23-2.2,0.452-2.2,1.682,0,1.175,0.755,1.634,2.2,1.634,0.953,0,1.634-0.213,2.118-0.542l-0.345-0.525c-0.435,0.287-1.083,0.476-1.773,0.476-1.091,0-1.559-0.304-1.559-1.026,0-0.772,0.632-0.919,1.716-1.116,1.329-0.238,2.289-0.435,2.289-1.74,0-1.207-0.771-1.789-2.429-1.789-0.919,0-1.749,0.188-2.52,0.697" fill-rule="nonzero" fill="#61849c"/>
     </g>
     <g transform="translate(157.8189,756.3191)">
      <path d="m0,0c-8.551,0-8.914-3.831-8.914-9.236v-13.269h2.016v13.269c0,4.074-0.161,7.341,6.898,7.341,0.756,0,1.427-0.04,2.031-0.111v1.921c-0.623,0.055-1.295,0.085-2.031,0.085" fill-rule="nonzero" fill="#231f20"/>
     </g>
     <g transform="translate(58.0874,742.4452)">
      <path d="m0,0,0,13.431,2.057,0,0-13.471c0-3.872-0.04-7.139,7.058-7.139,7.058,0,6.897,3.267,6.897,7.341v13.269h2.017v-13.269c0-5.405-0.364-9.237-8.914-9.237-8.591,0-9.115,3.832-9.115,9.075" fill-rule="nonzero" fill="#231f20"/>
     </g>
     <g transform="translate(97.5568,747.2451)">
      <path d="m0,0,0-13.431-2.057,0,0,13.471c0,3.872,0.04,7.139-7.058,7.139-7.059,0-6.897-3.267-6.897-7.341v-13.269h-2.016v13.269c0,5.405,0.363,9.236,8.913,9.236,8.591,0,9.115-3.831,9.115-9.074" fill-rule="nonzero" fill="#231f20"/>
     </g>
     <path d="m101.3,755.84,1.974,0,0-22.021-1.974,0,0,22.021z" fill-rule="nonzero" fill="#231f20"/>
     <g transform="translate(117.3098,743.4458)">
      <path d="m0,0c3.562,0,5.332,1.736,5.332,5.243,0,3.505-1.91,5.17-5.42,5.17h-8.277v-10.413h8.365zm-10.339,12.389,10.309,0c5.112,0,7.43-2.541,7.43-7.058,0-4.547-2.288-7.311-7.458-7.311h-8.307v-7.652h-1.974v22.021z" fill-rule="nonzero" fill="#231f20"/>
     </g>
    </g>
   </g>
   <g transform="matrix(1.25,0,0,-1.25,-7.3707143,1099.0408)">
    <g clip-path="url(#clipPath3079)">
     <g transform="translate(129.0252,746.3982)">
      <path d="M0,0,15.003,0c-0.201,4.396-0.484,8.147-6.897,8.147-6.17,0-7.864-3.348-8.106-8.147m-2.017-1.493c0,6.493,1.856,11.495,10.165,11.495,8.59,0,8.872-5.767,8.832-11.857h-17.02c0.04-5.365,1.37-9.358,8.348-9.358,3.711,0,5.405,1.009,7.22,2.339l1.128-1.492c-2.016-1.492-4.395-2.662-8.348-2.662-8.711,0-10.325,5.042-10.325,11.535" fill-rule="nonzero" fill="#231f20"/>
     </g>
     <g transform="translate(45.7034,729.0357)">
      <path d="m0,0c8.55,0,8.914,3.831,8.914,9.236v17.604h-2.017v-17.604c0-4.073,0.161-7.341-6.897-7.341-0.267,0-0.52,0.007-0.767,0.017v-1.902c0.248-0.006,0.503-0.01,0.767-0.01" fill-rule="nonzero" fill="#231f20"/>
     </g>
    </g>
   </g>
   <g transform="matrix(1.25,0,0,-1.25,-7.3707143,1099.0408)">
    <g clip-path="url(#clipPath3095)">
     <g transform="translate(155.336,736.3229)">
      <path d="m0,0c-0.669,0-1.213-0.544-1.213-1.212s0.544-1.212,1.213-1.212c0.667,0,1.211,0.544,1.211,1.212s-0.544,1.212-1.211,1.212m0-2.604c-0.768,0-1.393,0.624-1.393,1.392,0,0.767,0.625,1.392,1.393,1.392s1.391-0.625,1.391-1.392c0-0.768-0.623-1.392-1.391-1.392" fill-rule="nonzero" fill="#231f20"/>
     </g>
     <g transform="translate(155.4754,735.1253)">
      <path d="m0,0c0.218,0,0.344,0.063,0.344,0.297,0,0.231-0.122,0.284-0.351,0.284h-0.489v-0.581h0.496zm-0.05-0.2-0.446,0,0-0.615-0.213,0,0,1.599,0.712,0c0.405,0,0.561-0.166,0.561-0.482,0-0.258-0.11-0.436-0.386-0.487l0.361-0.63h-0.231l-0.358,0.615z" fill-rule="nonzero" fill="#231f20"/>
     </g>
    </g>
   </g>
  </g>
 </g>
</svg>
