<?xml version="1.0" encoding="utf-8"?>
<!-- Generator: Adobe Illustrator 19.0.0, SVG Export Plug-In . SVG Version: 6.00 Build 0)  -->
<svg version="1.1" id="Layer_1" xmlns="http://www.w3.org/2000/svg" xmlns:xlink="http://www.w3.org/1999/xlink" x="0px" y="0px"
	 viewBox="-248 389 114 16" style="enable-background:new -248 389 114 16;" xml:space="preserve">
<style type="text/css">
	.st0{fill:#231F20;}
</style>
<polygon class="st0" points="-164.6,405 -160.6,405 -160.6,399.8 -153.4,389 -157.8,389 -162.4,396.3 -167,389 -171.7,389 
	-164.6,399.9 "/>
<polygon class="st0" points="-203.5,397 -194.8,389 -189.4,389 -198.1,397 -189.4,405 -194.8,405 "/>
<rect x="-229.6" y="389" class="st0" width="4.1" height="16"/>
<g>
	<path class="st0" d="M-188.5,405h12.8c2.2,0,3.7-1.2,3.7-3.8V399c0-2.3-1.2-3.8-3.7-3.8h-9.6v-3h12.4V389h-12.6
		c-2.3,0-3.7,1.3-3.7,3.8v2c0,2.2,1.3,3.7,3.7,3.7h9.6v3.3h-12.6V405"/>
	<path class="st0" d="M-153.1,405h13.5c2.2,0,3.7-1.2,3.7-3.8V399c0-2.3-1.2-3.8-3.7-3.8h-9.6v-3h12.4V389h-12.7
		c-2.3,0-3.7,1.3-3.7,3.8v2c0,2.2,1.3,3.7,3.7,3.7h9.6v3.3h-13.2V405"/>
	<polygon class="st0" points="-248,405 -232.1,405 -232.1,401.8 -243.9,401.8 -243.9,389 -248,389 	"/>
	<polygon class="st0" points="-222.4,405 -218.7,405 -218.7,393.6 -206.6,405 -204.1,405 -204.1,389 -207.8,389 -207.8,398.6 
		-217.9,389 -222.4,389 	"/>
	<path class="st0" d="M-135,389.2h-0.4v1h-0.2v-1h-0.4V389h0.9v0.2H-135z M-133.6,389h-0.2l-0.4,0.9l0,0l-0.5-0.9h-0.2v1.2h0.2v-0.9
		l0,0l0.4,0.8h0.1l0.4-0.8l0,0v0.8h0.2V389z"/>
</g>
</svg>
