<?xml version="1.0" encoding="UTF-8" standalone="no"?>
<svg
   xmlns:svg="http://www.w3.org/2000/svg"
   xmlns="http://www.w3.org/2000/svg"
   xmlns:xlink="http://www.w3.org/1999/xlink"
   version="1.0"
   width="642.20074"
   height="82.701637"
   id="netgear logo">
  <path
     d="m -1e-6,80.13944 20.16486,0 0,-47.51876 0.21997,0 36.9164,47.51876 20.14861,0 0,-77.55232 -20.14861,0 0,47.40628 -0.21122,0 -36.92515,-47.40628 -20.16486,0 0,77.55232"
     id="N"
     style="fill:#172fa6" />
  <path
     d="m 155.75207,19.67238 0,-17.08526 -44.13171,0 0,77.55232 44.13171,0 0,-17.06026 -23.95936,0 0,-13.39824 22.72202,0 0,-17.06026 -22.72202,0 0,-12.9483 23.95936,0"
     id="E"
     style="fill:#172fa6" />
  <path
     d="m 223.50567,19.67238 16.68532,0 0,-17.08526 -53.50548,0 0,17.08526 16.66031,0 0,60.46706 20.15985,0 0,-60.46706"
     id="T"
     style="fill:#172fa6" />
  <path
     d="m 302.77027,36.84512 0,15.83542 16.46034,0 c -0.83739,8.93633 -7.49901,13.47324 -16.26036,13.47324 -13.28576,0 -20.48481,-12.2359 -20.48481,-24.27182 0,-11.82345 6.89909,-24.48429 20.17235,-24.48429 8.12393,0 13.99816,4.93686 16.7728,12.33589 l 19.12249,-8.01145 C 331.86646,7.21151 319.53057,-4e-5 303.58267,-4e-5 c -24.99672,0 -42.05698,16.57282 -42.05698,41.78201 0,24.37181 16.97277,40.91963 41.34457,40.91963 12.9733,0 24.3718,-4.61189 31.9833,-15.2105 6.8991,-9.66123 7.69899,-19.32246 7.92396,-30.64598 l -40.00725,0"
     id="G"
     style="fill:#172fa6" />
  <use
     transform="translate(263.48417,0)"
     id="E2"
     xlink:href="#E" />
  <path
     d="m 495.3575,51.08075 -16.7603,0 8.34891,-24.69676 0.18747,0 8.22392,24.69676 z m 5.43679,15.43548 5.04934,13.47323 21.50967,0 -29.22116,-77.56482 -22.00961,0 -29.83359,77.56482 21.39719,0 5.3618,-13.47323 27.74636,0"
     id="A"
     style="fill:#172fa6" />
  <path
     d="m 574.55961,18.01009 1.94974,0 c 6.59914,0 13.99817,1.22484 13.99817,9.67373 0,8.4489 -7.39903,9.66124 -13.99817,9.66124 l -1.94974,0 0,-19.33497 z m 19.95988,30.34602 c 11.01105,-1.94974 16.96027,-11.19853 16.96027,-21.90962 0,-16.56033 -11.62347,-23.85937 -26.94646,-23.85937 l -30.12105,0 0,77.55232 20.14736,0 0,-29.82109 0.2,0 19.035,29.82109 25.09671,0 -24.3718,-31.78333"
     id="R"
     style="fill:#172fa6" />
  <path
     d="m 631.70211,8.34886 0.84989,0 c 1.36232,0 2,0.4 2,1.41232 0,0.89988 -0.62492,1.32482 -1.83726,1.32482 l -1.01237,0 0,-2.73714 z m -2.81213,-1.77477 0,10.27366 2.81213,0 0,-4.06197 0.83739,0 1.91225,4.06197 3.09959,0 -2.2747,-4.51191 c 1.37482,-0.41245 2.17472,-1.44981 2.17472,-2.76214 0,-1.93725 -1.48731,-3 -4.43692,-3 l -4.12446,0 z"
     id="reg"
     style="fill:#172fa6" />
  <path
     d="m 621.8208,8.0299673 a 8.5,8.5 0 1 1 -17,0 8.5,8.5 0 1 1 17,0 z"
     transform="translate(19.524909,3.89967)"
     id="circ"
     style="fill:none;stroke:#172fa6;stroke-width:1.7" />
</svg>