<?xml version="1.0" encoding="UTF-8" standalone="no"?>
<!-- Created with Inkscape (http://www.inkscape.org/) -->
<svg
   xmlns:dc="http://purl.org/dc/elements/1.1/"
   xmlns:cc="http://web.resource.org/cc/"
   xmlns:rdf="http://www.w3.org/1999/02/22-rdf-syntax-ns#"
   xmlns:svg="http://www.w3.org/2000/svg"
   xmlns="http://www.w3.org/2000/svg"
   xmlns:sodipodi="http://sodipodi.sourceforge.net/DTD/sodipodi-0.dtd"
   xmlns:inkscape="http://www.inkscape.org/namespaces/inkscape"
   width="1850"
   height="380"
   id="svg2"
   sodipodi:version="0.32"
   inkscape:version="0.44.1"
   version="1.0"
   sodipodi:docbase="c:\temp\wp"
   sodipodi:docname="SAGEM Logo.svg">
  <defs
     id="defs4" />
  <sodipodi:namedview
     id="base"
     pagecolor="#ffffff"
     bordercolor="#666666"
     borderopacity="1.0"
     inkscape:pageopacity="0.0"
     inkscape:pageshadow="2"
     inkscape:zoom="0.35"
     inkscape:cx="866.62951"
     inkscape:cy="520"
     inkscape:document-units="px"
     inkscape:current-layer="layer1"
     width="1850px"
     height="380px"
     inkscape:window-width="968"
     inkscape:window-height="582"
     inkscape:window-x="189"
     inkscape:window-y="196" />
  <metadata
     id="metadata7">
    <rdf:RDF>
      <cc:Work
         rdf:about="">
        <dc:format>image/svg+xml</dc:format>
        <dc:type
           rdf:resource="http://purl.org/dc/dcmitype/StillImage" />
      </cc:Work>
    </rdf:RDF>
  </metadata>
  <g
     inkscape:label="Ebene 1"
     inkscape:groupmode="layer"
     id="layer1"
     transform="translate(386.1773,-664.3295)">
    <path
       style="fill:#0076b0;fill-opacity:1"
       d="M -190.14284,998.9428 L -190.14284,978.81781 L -187.01784,979.44281 C -185.29909,979.78656 -182.37409,980.06781 -180.51784,980.06781 L -177.14284,980.06781 L -177.14284,999.5678 L -177.14284,1019.0678 L -183.64284,1019.0678 L -190.14284,1019.0678 L -190.14284,998.9428 z M -174.14284,999.1987 L -174.14284,979.06781 L -168.14284,979.06781 L -162.14284,979.06781 L -162.14284,998.5678 L -162.14284,1018.0678 L -164.39284,1018.0788 C -165.63034,1018.0849 -168.33034,1018.3688 -170.39284,1018.7097 L -174.14284,1019.3295 L -174.14284,999.1987 z M -211.88181,1016.506 C -264.63982,1008.8145 -315.89354,981.17034 -351.74831,941.06781 L -361.13613,930.56781 L -361.10768,898.06781 C -361.0757,861.53249 -361.68045,863.19537 -353.63719,877.52636 C -336.16191,908.66276 -303.1253,939.97665 -269.38868,957.38169 C -249.21144,967.79132 -223.73778,975.75524 -202.8533,978.18288 L -192.14284,979.42787 L -192.14284,998.7478 L -192.14284,1018.0678 L -197.39284,1017.9604 C -200.28034,1017.9013 -206.80038,1017.2468 -211.88181,1016.506 z M -159.14284,998.0487 C -159.14284,981.8656 -158.88426,978.06781 -157.78241,978.06781 C -157.03418,978.06781 -154.33418,977.78164 -151.78241,977.43189 L -147.14284,976.79596 L -147.14284,996.4633 C -147.14284,1011.3258 -147.44822,1016.2243 -148.39284,1016.5143 C -149.08034,1016.7253 -151.78034,1017.1525 -154.39284,1017.4637 L -159.14284,1018.0296 L -159.14284,998.0487 z M -142.91398,995.389 L -142.64284,975.71023 L -140.14284,975.05131 C -138.76784,974.6889 -136.40534,974.08578 -134.89284,973.71104 L -132.14284,973.02971 L -132.14284,993.4238 L -132.14284,1013.8178 L -135.26784,1014.4428 C -136.98659,1014.7866 -139.4711,1015.0678 -140.78898,1015.0678 L -143.18512,1015.0678 L -142.91398,995.389 z M -127.14284,991.7261 L -127.14284,971.38439 L -123.27682,970.2261 C -121.15051,969.58904 -118.90051,969.06781 -118.27682,969.06781 C -117.46848,969.06781 -117.14284,974.94112 -117.14284,989.5208 L -117.14284,1009.9738 L -120.89284,1011.0152 C -127.49997,1012.8501 -127.14284,1013.9523 -127.14284,991.7261 z M -111.14284,987.0168 L -111.14284,965.96576 L -107.67496,964.51678 C -105.76762,963.71985 -103.96762,963.06781 -103.67496,963.06781 C -103.38229,963.06781 -103.14284,972.54077 -103.14284,984.1188 L -103.14284,1005.1699 L -106.61072,1006.6188 C -108.51806,1007.4158 -110.31806,1008.0678 -110.61072,1008.0678 C -110.90339,1008.0678 -111.14284,998.5949 -111.14284,987.0168 z M -94.14284,979.60299 C -94.14284,959.40481 -94.0287,958.07709 -92.20858,957.10299 C -91.14474,956.53364 -89.79474,956.06781 -89.20858,956.06781 C -88.48736,956.06781 -88.14284,963.00669 -88.14284,977.53263 C -88.14284,997.7308 -88.25698,999.0585 -90.0771,1000.0326 C -91.14094,1000.602 -92.49094,1001.0678 -93.0771,1001.0678 C -93.79832,1001.0678 -94.14284,994.1289 -94.14284,979.60299 z M -78.14284,971.62451 C -78.14284,949.48384 -78.1125,949.15996 -75.89284,947.60445 L -73.642843,946.02768 L -73.373433,968.79697 C -73.130623,989.3179 -73.272923,991.6898 -74.814563,992.817 C -75.75536,993.505 -76.88909,994.0678 -77.33397,994.0678 C -77.77885,994.0678 -78.14284,983.9683 -78.14284,971.62451 z M -62.142843,961.10299 C -62.142843,938.16163 -62.057433,937.09247 -60.142843,936.06781 C -58.168843,935.01136 -58.142843,935.30732 -58.142843,958.83263 C -58.142843,982.074 -58.508003,985.0678 -61.342843,985.0678 C -61.782843,985.0678 -62.142843,974.28364 -62.142843,961.10299 z M 780.35716,980.44778 C 727.89606,976.20839 688.67066,955.93077 666.17676,921.42211 C 643.86086,887.18651 640.89386,838.98478 658.79116,801.43765 C 664.87716,788.66977 670.20686,780.81121 679.20266,771.34088 C 711.08506,737.77705 761.80456,723.44842 824.85716,730.19238 C 840.02306,731.81449 864.51956,737.49342 867.14816,739.99656 C 867.77026,740.58893 865.17316,784.98144 864.47056,785.76682 C 864.37256,785.87627 859.89496,784.19618 854.52026,782.03327 C 821.07576,768.57447 786.13806,766.37871 760.81546,776.14413 C 740.33456,784.04241 723.82476,800.45693 715.58086,821.11769 C 710.92946,832.77494 709.53446,842.64976 710.15826,859.50361 C 711.15796,886.51858 718.19166,903.77762 734.35196,918.86957 C 744.94796,928.76502 758.36056,935.19523 774.29086,938.01683 C 785.38866,939.98249 808.89066,939.13922 818.10716,936.44467 C 819.72256,935.97238 819.85716,933.66991 819.85716,906.50042 L 819.85716,877.06781 L 798.35716,877.06781 L 776.85716,877.06781 L 776.85716,857.06781 L 776.85716,837.06781 L 826.36436,837.06781 L 875.87166,837.06781 L 875.61436,902.31021 L 875.35716,967.55262 L 868.85716,969.89624 C 859.94206,973.11064 843.64956,976.6986 829.76816,978.5045 C 817.90636,980.04766 789.31886,981.17198 780.35716,980.44778 z M 206.85716,979.47169 C 171.60783,976.44827 152.55797,972.90904 136.01112,966.30934 C 130.1564,963.9742 129.70428,963.57653 130.1714,961.17302 C 130.44989,959.74016 131.95161,949.6562 133.50858,938.76424 C 135.85521,922.34803 136.59751,919.04429 137.84829,919.44959 C 138.67817,919.71851 143.69593,921.73072 148.99887,923.92118 C 174.99264,934.6583 206.57078,940.32234 227.53781,938.00839 C 238.2267,936.82875 249.74399,933.42688 255.63126,929.71042 C 267.07982,922.48326 271.62093,910.75026 266.95018,900.46542 C 262.22848,890.0684 248.91165,882.37441 210.92754,868.0975 C 183.63047,857.83748 177.92316,855.20551 166.27161,847.50406 C 145.83887,833.99841 134.85716,815.70462 134.85716,795.17257 C 134.85716,778.6256 139.03604,768.82118 151.32413,756.53799 C 160.60536,747.26047 171.1932,741.2249 186.85716,736.28249 C 203.82588,730.92839 214.66219,729.57979 240.35716,729.62434 C 264.15553,729.66559 276.32519,730.86408 296.85716,735.18855 C 304.69928,736.84027 324.72276,741.9732 325.59832,742.55622 C 326.13838,742.91583 320.53719,783.63101 319.8416,784.40189 C 319.42767,784.86064 314.85342,783.8792 309.67661,782.22092 C 277.70204,771.97855 245.87314,768.33027 226.55457,772.69333 C 201.47628,778.35721 192.7486,794.53904 207.19681,808.5842 C 214.16999,815.36286 224.30148,820.41038 253.50334,831.6542 C 300.059,849.5799 319.01102,861.7855 328.82116,880.16088 C 337.25972,895.96715 336.77439,919.99501 327.66536,937.38176 C 323.41554,945.49356 311.36069,957.58397 302.35716,962.76462 C 290.17083,969.77667 276.54181,974.37566 258.35716,977.61206 C 249.69177,979.15428 216.9433,980.3368 206.85716,979.47169 z M 359.89796,976.31781 C 359.92041,975.90531 384.16145,920.89281 413.76695,854.06781 L 467.59512,732.56781 L 501.47614,732.32806 L 535.35716,732.08832 L 586.56304,852.82806 C 614.72626,919.23492 638.06426,974.36144 638.42526,975.33143 C 639.04526,976.99731 637.23966,977.08044 605.84617,976.83143 L 572.61074,976.56781 L 561.85684,948.56781 L 551.10294,920.56781 L 498.74927,920.56781 L 446.39559,920.56781 L 435.37638,948.80115 L 424.35716,977.03449 L 392.10716,977.05115 C 374.36966,977.06031 359.87552,976.73031 359.89796,976.31781 z M 535.48614,877.81781 C 533.85885,871.58913 501.23685,782.12822 500.49837,781.86912 C 499.76698,781.61251 461.8676,877.19713 461.85989,879.31781 C 461.85839,879.73031 478.55594,880.06781 498.96557,880.06781 L 536.07398,880.06781 L 535.48614,877.81781 z M 930.85716,854.56781 L 930.85716,732.06781 L 1017.8572,732.06781 L 1104.8572,732.06781 L 1104.8572,752.56781 L 1104.8572,773.06781 L 1047.3571,773.06781 L 989.85716,773.06781 L 989.85716,801.4063 L 989.85716,829.7448 L 1021.5203,830.4063 C 1038.9349,830.77013 1063.6849,831.06781 1076.5202,831.06781 L 1099.8571,831.06781 L 1099.8571,851.56781 L 1099.8571,872.06781 L 1045.5137,872.06781 L 991.17026,872.06781 L 990.51706,887.81781 C 990.15776,896.48031 989.86236,910.88031 989.86046,919.81781 L 989.85716,936.06781 L 1049.8571,936.06781 L 1109.8572,936.06781 L 1109.8572,956.56781 L 1109.8572,977.06781 L 1020.3572,977.06781 L 930.85716,977.06781 L 930.85716,854.56781 z M 1161.8572,854.55684 L 1161.8572,732.04587 L 1203.5133,732.30684 L 1245.1693,732.56781 L 1272.7633,812.74489 C 1287.9399,856.84229 1300.6199,893.17994 1300.9409,893.49524 C 1301.2619,893.81054 1314.3262,857.73085 1329.9726,813.31816 L 1358.4205,732.56781 L 1398.6389,732.30647 L 1438.8572,732.04512 L 1438.8572,854.55647 L 1438.8572,977.06781 L 1411.3572,977.06781 L 1383.8572,977.06781 L 1383.7866,892.31781 C 1383.7188,810.96427 1383.6464,807.72811 1381.9801,811.56781 C 1381.0254,813.76781 1366.9947,851.90749 1350.8008,896.32265 L 1321.3572,977.07749 L 1298.8713,976.82265 L 1276.3854,976.56781 L 1247.3713,893.87804 C 1231.4135,848.39867 1218.0197,810.86117 1217.6072,810.46138 C 1217.1947,810.06158 1216.8572,847.38448 1216.8572,893.40114 L 1216.8572,977.06781 L 1189.3572,977.06781 L 1161.8572,977.06781 L 1161.8572,854.55684 z M -47.142843,949.80299 C -47.142843,925.05352 -46.798363,922.06781 -43.942843,922.06781 C -43.502843,922.06781 -43.142843,933.52698 -43.142843,947.53263 C -43.142843,971.97399 -43.223223,973.04046 -45.142843,974.06781 C -47.118383,975.12509 -47.142843,974.8283 -47.142843,949.80299 z M -29.418503,941.85121 C -30.080353,920.81538 -32.288023,907.59822 -37.778213,891.80233 C -42.631953,877.83756 -43.076383,877.30276 -43.112433,885.38355 C -43.142373,892.09318 -44.282793,896.06781 -46.178023,896.06781 C -46.749343,896.06781 -47.142843,890.65202 -47.142843,882.78893 L -47.142843,869.51005 L -53.258333,860.03893 C -75.95032,824.89562 -110.32097,801.31673 -150.79992,793.12364 C -156.38632,791.99293 -162.12382,791.06781 -163.54992,791.06781 L -166.14284,791.06781 L -166.14284,771.50654 L -166.14284,751.94526 L -161.39284,752.55825 C -134.17472,756.07075 -116.51303,761.21308 -95.64284,771.70182 C -48.069593,795.61074 -11.969523,842.65748 -1.295273,894.65852 C 2.466437,912.98415 2.500847,915.84971 -0.958523,922.70267 C -6.658183,933.99363 -24.624413,958.63127 -28.047943,959.85121 C -28.485373,960.00708 -29.102123,951.90708 -29.418503,941.85121 z M -188.89284,956.40553 C -189.83101,956.02697 -190.14284,951.18214 -190.14284,936.98448 C -190.14284,915.67115 -190.95478,917.44652 -181.78241,918.70373 L -177.14284,919.33966 L -177.14284,938.20373 L -177.14284,957.06781 L -182.39284,956.98886 C -185.28034,956.94544 -188.20534,956.68294 -188.89284,956.40553 z M -174.14466,937.31781 L -174.14284,918.06781 L -168.14284,918.06781 L -162.14284,918.06781 L -162.14284,936.97899 L -162.14284,955.89017 L -168.14466,956.22899 L -174.14648,956.56781 L -174.14466,937.31781 z M -205.14284,955.35267 C -212.48804,954.52357 -231.819,949.76508 -241.42469,946.42156 C -254.69557,941.80227 -270.33686,933.86459 -283.72896,924.95291 C -298.83882,914.89814 -319.97038,893.76801 -330.02165,878.66334 C -346.10152,854.49911 -355.48903,830.38757 -359.60224,802.68651 L -361.1773,792.07905 L -358.21145,786.20372 C -351.76845,773.44021 -331.28385,746.06781 -328.17506,746.06781 C -327.73033,746.06781 -327.14315,757.20531 -326.87021,770.81781 C -326.32871,797.82514 -324.83744,807.29396 -318.48374,824.06781 L -315.64284,831.56781 L -315.34916,823.11765 C -315.07484,815.22432 -314.12394,812.06781 -312.0204,812.06781 C -311.53774,812.06781 -311.14284,818.36105 -311.14284,826.05279 C -311.14284,840.0164 -311.13796,840.04581 -307.94757,845.30279 C -298.00064,861.69291 -281.42258,879.69432 -266.48128,890.32927 C -246.98625,904.20548 -224.4506,913.27454 -199.89284,917.12657 L -192.14284,918.34221 L -192.14284,937.20501 L -192.14284,956.06781 L -196.89284,955.90777 C -199.50534,955.81975 -203.21784,955.56996 -205.14284,955.35267 z M -159.14284,936.31728 L -159.14284,917.2949 L -154.51499,916.60091 C -151.96967,916.21921 -149.26967,915.66998 -148.51499,915.38038 C -147.38087,914.94517 -147.14284,918.25517 -147.14284,934.46082 C -147.14284,950.32857 -147.40229,954.06781 -148.50327,954.06781 C -149.2515,954.06781 -151.9515,954.35398 -154.50327,954.70373 L -159.14284,955.33966 L -159.14284,936.31728 z M -143.14284,933.06781 C -143.14284,922.61781 -142.80534,914.06294 -142.39284,914.05699 C -141.98034,914.05103 -139.50534,913.39756 -136.89284,912.60482 L -132.14284,911.16347 L -132.14284,930.56864 L -132.14284,949.9738 L -135.89284,951.01523 C -143.59904,953.15535 -143.14284,954.28468 -143.14284,933.06781 z M -127.14284,928.81208 L -127.14284,909.33953 L -122.85941,907.70367 C -120.50352,906.80395 -118.25352,906.06781 -117.85941,906.06781 C -117.4653,906.06781 -117.14284,914.85395 -117.14284,925.59256 L -117.14284,945.11731 L -119.68694,946.08458 C -121.0862,946.61657 -123.3362,947.32922 -124.68694,947.66824 L -127.14284,948.28463 L -127.14284,928.81208 z M -111.13514,922.31781 L -111.12744,902.56781 L -107.13514,900.28795 L -103.14284,898.00809 L -103.14284,918.51227 L -103.14284,939.01645 L -106.09318,940.54213 C -107.71587,941.38125 -109.51587,942.06781 -110.09318,942.06781 C -110.79089,942.06781 -111.14026,935.44562 -111.13514,922.31781 z M -94.14284,913.18282 L -94.14284,892.29783 L -91.67802,890.68282 C -90.32237,889.79456 -88.97237,889.06781 -88.67802,889.06781 C -88.38367,889.06781 -88.14284,898.49229 -88.14284,910.01111 C -88.14284,930.5197 -88.18897,930.98671 -90.36535,932.51111 C -91.58772,933.36729 -92.93772,934.06781 -93.36535,934.06781 C -93.79297,934.06781 -94.14284,924.66956 -94.14284,913.18282 z M -78.14284,901.7228 C -78.14284,881.3453 -77.98182,879.23206 -76.3141,877.7228 C -75.30829,876.81255 -74.183293,876.06781 -73.814103,876.06781 C -73.444913,876.06781 -73.142843,886.12307 -73.142843,898.41282 C -73.142843,918.79032 -73.303863,920.90356 -74.971583,922.41282 C -75.97739,923.32307 -77.10239,924.06781 -77.47158,924.06781 C -77.84077,924.06781 -78.14284,914.01255 -78.14284,901.7228 z M -62.142843,886.7228 C -62.142843,863.64778 -62.038513,862.28337 -60.142843,860.56781 C -58.147923,858.76243 -58.142843,858.82118 -58.142843,883.71282 C -58.142843,908.07997 -58.492363,911.06781 -61.342843,911.06781 C -61.782843,911.06781 -62.142843,900.11255 -62.142843,886.7228 z M -300.10957,824.51781 C -300.14208,800.04049 -299.79914,797.06781 -296.94284,797.06781 C -296.50284,797.06781 -296.14284,807.81796 -296.14284,820.95703 C -296.14284,843.24463 -296.2747,845.00452 -298.10957,847.20703 C -300.07586,849.56728 -300.07631,849.56218 -300.10957,824.51781 z M -4.846403,832.03182 C -34.821103,781.4712 -82.83579,746.07584 -138.25966,733.6825 C -144.52041,732.28254 -153.24284,730.78402 -157.64284,730.35246 L -165.64284,729.56781 L -165.91415,709.76574 L -166.18547,689.96367 L -159.91415,690.60156 C -126.15335,694.03554 -94.21709,704.14721 -66.189073,720.27684 C -52.719713,728.02823 -46.526653,732.24614 -34.424163,741.91102 C -23.308393,750.78792 0.596027,775.14702 1.390137,778.40654 C 1.679747,779.59524 1.790797,794.50161 1.636927,811.53182 L 1.357157,842.49582 L -4.846403,832.03182 z M -284.91196,809.57367 C -284.64698,787.16071 -284.6079,786.78701 -282.37372,785.30434 L -280.1046,783.79848 L -280.37372,806.56195 C -280.6387,828.97491 -280.67778,829.34861 -282.91196,830.83128 L -285.18108,832.33714 L -284.91196,809.57367 z M -270.14284,798.18282 L -270.14284,777.29783 L -267.67802,775.68282 C -266.32237,774.79456 -264.97237,774.06781 -264.67802,774.06781 C -264.38367,774.06781 -264.14284,783.49229 -264.14284,795.01111 C -264.14284,815.5197 -264.18897,815.98671 -266.36535,817.51111 C -267.58772,818.36729 -268.93772,819.06781 -269.36535,819.06781 C -269.79297,819.06781 -270.14284,809.66956 -270.14284,798.18282 z M -255.14284,789.53711 L -255.14284,768.96576 L -251.67496,767.51678 C -249.76762,766.71985 -247.96762,766.06781 -247.67496,766.06781 C -247.38229,766.06781 -247.14284,775.05866 -247.14284,786.04749 L -247.14284,806.02716 L -251.14284,808.06781 L -255.14284,810.10846 L -255.14284,789.53711 z M -241.14284,782.66181 L -241.14284,763.25581 L -236.4647,761.66181 C -233.89172,760.78511 -231.64172,760.06781 -231.4647,760.06781 C -231.28768,760.06781 -231.14284,768.83677 -231.14284,779.55439 L -231.14284,799.04097 L -234.76496,800.55439 C -241.40154,803.32733 -241.14284,804.05309 -241.14284,782.66181 z M -226.14284,777.68652 L -226.14284,758.30524 L -221.70002,757.18653 C -219.25647,756.57123 -216.77175,756.06781 -216.17843,756.06781 C -215.43484,756.06781 -215.18404,762.01501 -215.37125,775.20821 L -215.64284,794.34861 L -220.14284,795.69303 C -222.61784,796.43246 -224.98034,797.04428 -225.39284,797.05263 C -225.80534,797.06098 -226.14284,788.34623 -226.14284,777.68652 z M -211.14284,774.17476 C -211.14284,752.6728 -212.09926,755.06033 -202.89284,753.58011 L -199.14284,752.97718 L -199.14284,771.95511 C -199.14284,793.14301 -198.43831,791.26783 -206.89284,792.58266 L -211.14284,793.24361 L -211.14284,774.17476 z M -196.14284,772.30944 C -196.14284,750.88624 -196.64331,752.11333 -187.89284,752.08146 L -184.14284,752.06781 L -184.14284,771.06781 L -184.14284,790.06781 L -187.01784,790.06781 C -188.59909,790.06781 -191.29909,790.34906 -193.01784,790.69281 L -196.14284,791.31781 L -196.14284,772.30944 z M -181.14284,771.06781 L -181.14284,752.06781 L -174.64284,752.06781 L -168.14284,752.06781 L -168.14284,771.06781 L -168.14284,790.06781 L -174.64284,790.06781 L -181.14284,790.06781 L -181.14284,771.06781 z M -315.14284,760.60299 C -315.14284,736.16163 -315.06246,735.09516 -313.14284,734.06781 C -311.1673,733.01053 -311.14284,733.30732 -311.14284,758.33263 C -311.14284,783.0821 -311.48732,786.06781 -314.34284,786.06781 C -314.78284,786.06781 -315.14284,774.60864 -315.14284,760.60299 z M -300.14284,749.13818 C -300.14284,726.16163 -300.05755,725.09253 -298.14284,724.06781 C -296.16866,723.01126 -296.14284,723.30732 -296.14284,746.99744 C -296.14284,769.97399 -296.22813,771.04309 -298.14284,772.06781 C -300.11702,773.12436 -300.14284,772.8283 -300.14284,749.13818 z M -285.14284,739.3503 L -285.14284,716.38884 L -282.6241,715.24122 L -280.10536,714.09361 L -280.3741,736.70951 C -280.63792,758.91162 -280.68401,759.35274 -282.89284,760.81859 L -285.14284,762.31175 L -285.14284,739.3503 z M -270.14284,731.06874 L -270.14284,709.01831 L -267.57774,708.04306 C -266.16694,707.50667 -264.81694,707.06781 -264.57774,707.06781 C -264.33855,707.06781 -264.14284,716.73125 -264.14284,728.54213 L -264.14284,750.01645 L -267.14284,751.56781 L -270.14284,753.11917 L -270.14284,731.06874 z M -255.14284,724.22832 L -255.14284,703.38884 L -252.59579,702.22832 C -247.03741,699.69576 -247.14284,699.31604 -247.14284,721.86692 L -247.14284,742.66603 L -250.46384,743.86692 C -252.29039,744.52741 -254.09039,745.06781 -254.46384,745.06781 C -254.83729,745.06781 -255.14284,735.69004 -255.14284,724.22832 z M -241.14284,719.1791 L -241.14284,698.29039 L -237.57183,697.62047 C -235.60777,697.25201 -233.35777,696.70378 -232.57183,696.40219 C -231.3618,695.93785 -231.14284,698.99696 -231.14284,716.36682 L -231.14284,736.87981 L -235.82098,738.47381 C -238.39396,739.35051 -240.64396,740.06781 -240.82098,740.06781 C -240.998,740.06781 -241.14284,730.66789 -241.14284,719.1791 z M -226.14284,715.12683 C -226.14284,704.15929 -225.80534,694.99162 -225.39284,694.75424 C -224.98034,694.51686 -222.50534,694.01273 -219.89284,693.63395 L -215.14284,692.94526 L -215.14284,712.88782 L -215.14284,732.83038 L -219.58566,733.94909 C -222.02921,734.56439 -224.50421,735.06781 -225.08566,735.06781 C -225.79322,735.06781 -226.14284,728.47318 -226.14284,715.12683 z M -211.14284,712.27811 L -211.14284,692.32949 L -207.39284,691.70966 C -205.33034,691.36875 -202.63034,691.08487 -201.39284,691.07882 L -199.14284,691.06781 L -199.14284,710.48835 L -199.14284,729.9089 L -201.89284,730.43345 C -203.40534,730.72195 -206.10534,731.24346 -207.89284,731.59236 L -211.14284,732.22672 L -211.14284,712.27811 z M -196.14284,710.19281 L -196.14284,690.06781 L -190.14284,690.06781 L -184.14284,690.06781 L -184.14284,709.56781 L -184.14284,729.06781 L -187.01784,729.06781 C -188.59909,729.06781 -191.29909,729.34906 -193.01784,729.69281 L -196.14284,730.31781 L -196.14284,710.19281 z M -181.14284,709.56781 L -181.14284,690.06781 L -174.64284,690.06781 L -168.14284,690.06781 L -168.14284,709.56781 L -168.14284,729.06781 L -174.64284,729.06781 L -181.14284,729.06781 L -181.14284,709.56781 z "
       id="path1933" />
  </g>
</svg>
