<svg xmlns="http://www.w3.org/2000/svg" viewBox="0 0 300 47.609563" height="47.609562" width="300"><defs><clipPath id="a"><path d="M510.236 735.331h85.039v13.016h-85.039v-13.016z"/></clipPath></defs><path d="M247.082 2.3589l.57821 33.4310544h-.2347883L237.6379023 2.3589h-15.8079126v42.1497613h10.474363l-.588723-34.5839703h.2347882l10.51291 34.5839703h15.1666252V2.3589H247.082zM46.5966 2.3589l-7.8951956 42.5877992H50.213041l5.8241524-38.6419536.2382926-.0035043 5.6769715 38.645458H73.394008L65.5443686 2.3589H46.5966zM110.9482 2.3589l-5.2529508 32.5654915h-.241797L100.2075103 2.3589H82.836678l-.9391534 42.5877992h10.660091l.266327-38.2845146h.2347883l7.113736 38.2845146h10.8072717L118.096979 6.665689l.2347883-.0035044.266327 38.2845146h10.6530824L128.3120233 2.3589H110.9482z" fill="#034ea2"/><g clip-path="url(#a)" transform="matrix(3.5043 0 0 -3.5043 -1787.024 2623.432)"><path d="M515.8807 739.2343c.119-.294.081-.671.024-.899-.099-.405-.374-.818-1.184-.818-.76 0-1.221.44-1.221 1.102l-.003 1.178h-3.259l-.001-.937c0-2.711 2.133-3.53 4.417-3.53 2.199 0 4.007.75 4.296 2.779.148 1.049.039 1.736-.013 1.992-.513 2.545-5.124 3.304-5.468 4.727-.058.247-.044.503-.013.639.086.39.35.816 1.11.816.712 0 1.129-.439 1.129-1.101v-.753h3.033v.856c0 2.647-2.378 3.061-4.098 3.061-2.16 0-3.927-.716-4.249-2.698-.088-.542-.1-1.027.028-1.639.527-2.484 4.846-3.202 5.472-4.775M555.3942 739.2574c.116-.292.08-.663.023-.89-.098-.4-.37-.808-1.172-.808-.753 0-1.21.434-1.21 1.091l-.002 1.165h-3.227l-.001-.928c0-2.684 2.113-3.494 4.374-3.494 2.177 0 3.967.742 4.253 2.751.146 1.038.039 1.718-.013 1.973-.509 2.52-5.074 3.271-5.413 4.68-.059.243-.044.496-.015.631.086.386.348.808 1.099.808.707 0 1.119-.433 1.119-1.09v-.744h3.003v.846c0 2.621-2.355 3.03-4.058 3.03-2.137 0-3.887-.707-4.205-2.67-.088-.537-.1-1.017.028-1.622.52-2.461 4.797-3.171 5.417-4.729M565.5969 737.6251c.845 0 1.105.582 1.165.881.026.131.03.308.029.464v8.991h3.076v-8.714c.004-.224-.019-.681-.031-.8-.212-2.268-2.005-3.003-4.239-3.003-2.235 0-4.028.735-4.241 3.003-.011.119-.034.576-.028.8v8.714h3.074v-8.991c-.003-.156.003-.333.029-.464.059-.299.32-.881 1.166-.881M590.9458 737.7515c.88 0 1.187.557 1.242.882.025.137.031.307.029.461v1.765h-1.246v1.772h4.305v-3.258c-.002-.229-.007-.396-.044-.8-.201-2.214-2.12-3.004-4.274-3.004-2.155 0-4.072.79-4.275 3.004-.035.404-.041.571-.042.8l.001 5.113c0 .216.026.597.051.8.271 2.272 2.11 3.003 4.266 3.003 2.155 0 4.042-.724 4.266-3.003.039-.387.026-.8.028-.8v-.405h-3.065v.681c.001-.001-.002.288-.038.463-.055.268-.286.882-1.215.882-.884 0-1.144-.582-1.211-.882-.035-.16-.049-.377-.049-.575v-5.556c-.001-.154.005-.324.028-.461.057-.325.364-.882 1.243-.882" fill="#034ea2"/></g></svg>