<?xml version="1.0" encoding="utf-8"?>
<!-- Generator: Adobe Illustrator 16.0.0, SVG Export Plug-In . SVG Version: 6.00 Build 0)  -->
<!DOCTYPE svg PUBLIC "-//W3C//DTD SVG 1.1//EN" "http://www.w3.org/Graphics/SVG/1.1/DTD/svg11.dtd">
<svg version="1.1" xmlns="http://www.w3.org/2000/svg" xmlns:xlink="http://www.w3.org/1999/xlink" x="0px" y="0px"
	 width="355.197px" height="30.223px" viewBox="0 0 355.197 30.223" enable-background="new 0 0 355.197 30.223"
	 xml:space="preserve">
<g>
	<g>
		<g>
			<path fill="#034EA2" d="M90.969,7.195c1.24,7.106-18.105,16.412-43.213,20.785c-25.105,4.373-46.462,2.154-47.7-4.955
				c-1.237-7.107,18.113-16.41,43.218-20.782C68.38-2.132,89.733,0.088,90.969,7.195z"/>
		</g>
		<g>
			<g>
				<polygon fill="#FFFFFF" points="67.34,17.744 67.211,10.355 69.541,10.355 69.541,19.669 66.191,19.669 63.866,12.025 
					63.816,12.025 63.945,19.669 61.63,19.669 61.63,10.355 65.125,10.355 67.288,17.744 				"/>
				<polygon fill="#FFFFFF" points="24.987,11.228 23.698,19.767 21.157,19.767 22.902,10.355 27.088,10.355 28.825,19.767 
					26.294,19.767 25.04,11.228 				"/>
				<polygon fill="#FFFFFF" points="35.962,17.55 37.125,10.355 40.963,10.355 41.167,19.767 38.815,19.767 38.753,11.306 
					38.704,11.306 37.131,19.767 34.743,19.767 33.169,11.306 33.118,11.306 33.059,19.767 30.702,19.767 30.91,10.355 
					34.75,10.355 35.912,17.55 				"/>
				<path fill="#FFFFFF" d="M17.194,17.111c0.092,0.228,0.064,0.521,0.021,0.698c-0.079,0.313-0.291,0.632-0.917,0.632
					c-0.59,0-0.948-0.338-0.948-0.855v-0.911h-2.524l-0.002,0.729c0,2.098,1.652,2.731,3.422,2.731c1.702,0,3.104-0.582,3.327-2.15
					c0.114-0.813,0.029-1.345-0.01-1.546c-0.397-1.97-3.969-2.558-4.235-3.66c-0.045-0.189-0.032-0.389-0.01-0.496
					c0.065-0.3,0.271-0.631,0.86-0.631c0.55,0,0.875,0.34,0.875,0.854c0,0.173,0,0.581,0,0.581h2.347v-0.661
					c0-2.05-1.84-2.37-3.173-2.37c-1.674,0-3.042,0.553-3.292,2.085c-0.068,0.423-0.078,0.8,0.021,1.272
					C13.367,15.337,16.71,15.894,17.194,17.111z"/>
				<path fill="#FFFFFF" d="M47.796,17.095c0.093,0.226,0.063,0.511,0.021,0.688c-0.077,0.312-0.287,0.626-0.909,0.626
					c-0.582,0-0.937-0.338-0.937-0.843l-0.002-0.903h-2.498l-0.003,0.719c0,2.077,1.637,2.704,3.389,2.704
					c1.684,0,3.073-0.574,3.292-2.128c0.114-0.807,0.033-1.332-0.008-1.529c-0.395-1.952-3.931-2.534-4.194-3.625
					c-0.045-0.188-0.032-0.386-0.009-0.487c0.067-0.302,0.269-0.625,0.852-0.625c0.545,0,0.863,0.332,0.863,0.842
					c0,0.171,0,0.575,0,0.575h2.329v-0.654c0-2.028-1.825-2.346-3.145-2.346c-1.655,0-3.012,0.546-3.257,2.067
					c-0.068,0.417-0.075,0.787,0.022,1.257C44.007,15.336,47.317,15.889,47.796,17.095z"/>
				<path fill="#FFFFFF" d="M55.701,18.358c0.653,0,0.857-0.452,0.902-0.683c0.019-0.102,0.024-0.238,0.022-0.36v-6.964h2.38v6.751
					c0.005,0.173-0.012,0.529-0.02,0.618c-0.167,1.757-1.556,2.327-3.285,2.327c-1.731,0-3.121-0.57-3.286-2.327
					c-0.008-0.089-0.025-0.445-0.02-0.618v-6.751h2.378v6.964c0,0.122,0.004,0.259,0.022,0.36
					C54.845,17.906,55.043,18.358,55.701,18.358z"/>
				<path fill="#FFFFFF" d="M75.333,18.26c0.682,0,0.92-0.431,0.964-0.682c0.017-0.108,0.022-0.239,0.021-0.358v-1.366h-0.966
					v-1.374h3.337v2.526c-0.002,0.176-0.006,0.306-0.034,0.62c-0.157,1.712-1.642,2.323-3.31,2.323
					c-1.671,0-3.154-0.611-3.313-2.323c-0.027-0.314-0.031-0.444-0.034-0.62L72,13.043c0-0.167,0.021-0.463,0.039-0.62
					c0.209-1.759,1.635-2.325,3.306-2.325c1.669,0,3.13,0.563,3.303,2.325c0.031,0.3,0.021,0.62,0.021,0.62v0.314h-2.373V12.83
					c0.002,0.001-0.003-0.224-0.031-0.358c-0.04-0.208-0.221-0.686-0.938-0.686c-0.686,0-0.887,0.452-0.937,0.686
					c-0.029,0.124-0.04,0.292-0.04,0.444v4.304c-0.002,0.119,0.005,0.25,0.024,0.358C74.415,17.829,74.652,18.26,75.333,18.26z"/>
			</g>
		</g>
	</g>
	<g>
		<path fill="#034EA2" d="M113.892,22.47c-3.644,0-4.326-2.144-4.169-4.579h2.94c0,1.343,0.06,2.474,1.677,2.474
			c0.996,0,1.481-0.643,1.481-1.598c0-2.532-5.926-2.689-5.926-6.88c0-2.201,1.054-3.955,4.64-3.955
			c2.866,0,4.286,1.285,4.093,4.229h-2.866c0-1.052-0.173-2.123-1.363-2.123c-0.957,0-1.521,0.525-1.521,1.498
			c0,2.672,5.926,2.438,5.926,6.861C118.804,22.042,116.135,22.47,113.892,22.47z"/>
		<path fill="#034EA2" d="M119.74,22.235l3.897-14.07h3.88l3.819,14.07h-3.098l-0.78-3.116h-4.015l-0.799,3.116H119.74z
			 M125.412,10.874h-0.039l-1.345,6.081h2.807L125.412,10.874z"/>
		<path fill="#034EA2" d="M132.565,22.235V8.165h4.736l2.203,9.569h0.038l2.339-9.569h4.58v14.07h-2.866V11.38h-0.038l-2.708,10.855
			h-2.806l-2.574-10.855h-0.038v10.855H132.565z"/>
		<path fill="#034EA2" d="M152.583,22.47c-3.645,0-4.328-2.144-4.172-4.579h2.945c0,1.343,0.058,2.474,1.674,2.474
			c0.995,0,1.481-0.643,1.481-1.598c0-2.532-5.925-2.689-5.925-6.88c0-2.201,1.053-3.955,4.64-3.955
			c2.865,0,4.288,1.285,4.092,4.229h-2.865c0-1.052-0.174-2.123-1.363-2.123c-0.955,0-1.521,0.525-1.521,1.498
			c0,2.672,5.925,2.438,5.925,6.861C157.495,22.042,154.826,22.47,152.583,22.47z"/>
		<path fill="#034EA2" d="M169.014,8.165v9.979c0,2.105-1.188,4.326-4.775,4.326c-3.234,0-4.795-1.676-4.795-4.326V8.165h2.943
			v9.782c0,1.735,0.743,2.417,1.813,2.417c1.285,0,1.87-0.855,1.87-2.417V8.165H169.014z"/>
		<path fill="#034EA2" d="M171.336,22.235V8.165h3.975l3.739,9.745h0.04V8.165h2.749v14.07h-3.878l-3.84-10.289h-0.039v10.289
			H171.336z"/>
		<path fill="#034EA2" d="M190.651,12.491c0.018-1.305-0.197-2.454-1.757-2.454c-1.831,0-1.831,2.474-1.831,5.201
			c0,4.407,0.43,5.185,2.105,5.185c0.488,0,1.014-0.116,1.461-0.271v-3.118h-1.598v-2.165h4.542v7.134
			c-0.8,0.156-2.807,0.468-3.977,0.468c-4.95,0-5.517-2.047-5.517-7.385c0-3.55,0.177-7.153,4.99-7.153
			c2.884,0,4.678,1.616,4.503,4.56H190.651z"/>
		<path fill="#034EA2" d="M206.672,13.797V8.165h2.943v14.07h-2.943v-6.274H203.3v6.274h-2.943V8.165h2.943v5.632H206.672z"/>
		<path fill="#034EA2" d="M212.072,22.235V8.165h7.677v2.163h-4.732v3.469h4.362v2.164h-4.362v4.112h4.89v2.162H212.072z"/>
		<path fill="#034EA2" d="M220.648,22.235l3.897-14.07h3.878l3.821,14.07h-3.1l-0.781-3.116h-4.014l-0.797,3.116H220.648z
			 M226.32,10.874h-0.041l-1.345,6.081h2.809L226.32,10.874z"/>
		<path fill="#034EA2" d="M231.679,8.165h3.062l2.183,10.231h0.04l2.454-10.231h2.904l-3.725,14.07h-3.448L231.679,8.165z"/>
		<path fill="#034EA2" d="M246.141,17.363l-3.683-9.198h3.218l2.105,5.944l2.239-5.944h3.002l-3.938,9.198v4.872h-2.943V17.363z"/>
		<path fill="#034EA2" d="M258.52,22.235V8.165h2.942v14.07H258.52z"/>
		<path fill="#034EA2" d="M263.86,22.235V8.165h3.975l3.743,9.745h0.038V8.165h2.75v14.07h-3.88l-3.838-10.289h-0.039v10.289H263.86
			z"/>
		<path fill="#034EA2" d="M276.801,8.165h4.914c3.856,0,4.578,2.572,4.578,6.957c0,2.163,0.331,7.113-4.697,7.113h-4.795V8.165z
			 M279.745,20.073h1.423c1.792,0,2.146-1.346,2.146-4.873c0-2.591,0-4.872-2.047-4.872h-1.521V20.073z"/>
		<path fill="#034EA2" d="M298.068,8.165v9.979c0,2.105-1.188,4.326-4.776,4.326c-3.234,0-4.795-1.676-4.795-4.326V8.165h2.944
			v9.782c0,1.735,0.738,2.417,1.813,2.417c1.285,0,1.87-0.855,1.87-2.417V8.165H298.068z"/>
		<path fill="#034EA2" d="M304.188,22.47c-3.645,0-4.327-2.144-4.172-4.579h2.943c0,1.343,0.059,2.474,1.676,2.474
			c0.995,0,1.482-0.643,1.482-1.598c0-2.532-5.926-2.689-5.926-6.88c0-2.201,1.053-3.955,4.64-3.955
			c2.863,0,4.286,1.285,4.092,4.229h-2.866c0-1.052-0.173-2.123-1.362-2.123c-0.955,0-1.521,0.525-1.521,1.498
			c0,2.672,5.924,2.438,5.924,6.861C309.098,22.042,306.427,22.47,304.188,22.47z"/>
		<path fill="#034EA2" d="M319.489,8.165v2.339h-3.274v11.731h-2.943V10.504h-3.274V8.165H319.489z"/>
		<path fill="#034EA2" d="M323.641,22.235h-2.942V8.165h5.437c2.01,0,3.295,1.287,3.295,3.683c0,1.793-0.702,3.139-2.612,3.45v0.038
			c0.644,0.079,2.552,0.234,2.552,2.77c0,0.896,0.061,3.546,0.332,4.13h-2.884c-0.391-0.857-0.313-1.813-0.313-2.727
			c0-1.677,0.158-3.101-2.104-3.101h-0.759V22.235z M323.641,14.246h1.306c1.17,0,1.499-1.17,1.499-2.068
			c0-1.343-0.564-1.85-1.499-1.85h-1.306V14.246z"/>
		<path fill="#034EA2" d="M331.496,22.235V8.165h2.943v14.07H331.496z"/>
		<path fill="#034EA2" d="M336.818,22.235V8.165h7.677v2.163h-4.734v3.469h4.364v2.164h-4.364v4.112h4.892v2.162H336.818z"/>
		<path fill="#034EA2" d="M350.286,22.47c-3.645,0-4.327-2.144-4.17-4.579h2.944c0,1.343,0.057,2.474,1.673,2.474
			c0.996,0,1.481-0.643,1.481-1.598c0-2.532-5.925-2.689-5.925-6.88c0-2.201,1.053-3.955,4.64-3.955
			c2.863,0,4.288,1.285,4.092,4.229h-2.863c0-1.052-0.176-2.123-1.365-2.123c-0.954,0-1.519,0.525-1.519,1.498
			c0,2.672,5.923,2.438,5.923,6.861C355.197,22.042,352.528,22.47,350.286,22.47z"/>
	</g>
</g>
</svg>
