<?xml version="1.0" encoding="utf-8"?>
<!-- Generator: Adobe Illustrator 16.0.0, SVG Export Plug-In . SVG Version: 6.00 Build 0)  -->
<!DOCTYPE svg PUBLIC "-//W3C//DTD SVG 1.1//EN" "http://www.w3.org/Graphics/SVG/1.1/DTD/svg11.dtd">
<svg version="1.1" id="Layer_1" xmlns="http://www.w3.org/2000/svg" xmlns:xlink="http://www.w3.org/1999/xlink" x="0px" y="0px"
	 width="556.905px" height="76.142px" viewBox="0 0 556.905 76.142" enable-background="new 0 0 556.905 76.142"
	 xml:space="preserve">
<g>
	<path fill="#034EA2" d="M274.714,30.735c-5.957,0-7.069-3.502-6.814-7.482h4.809c0,2.196,0.097,4.043,2.736,4.043
		c1.624,0,2.42-1.051,2.42-2.61c0-4.139-9.677-4.394-9.677-11.239c0-3.598,1.719-6.462,7.576-6.462c4.68,0,7.006,2.1,6.686,6.908
		h-4.677c0-1.72-0.29-3.471-2.231-3.471c-1.558,0-2.482,0.861-2.482,2.454c0,4.362,9.677,3.978,9.677,11.204
		C282.735,30.034,278.374,30.735,274.714,30.735z"/>
	<path fill="#034EA2" d="M284.424,30.353l6.367-22.985h6.336l6.238,22.985h-5.061l-1.275-5.093h-6.556l-1.306,5.093H284.424z
		 M293.685,11.791h-0.06l-2.196,9.934h4.583L293.685,11.791z"/>
	<path fill="#034EA2" d="M305.53,30.353V7.368h7.738l3.598,15.631h0.062l3.819-15.631h7.482v22.985h-4.681V12.619h-0.062
		l-4.427,17.734h-4.585l-4.202-17.734h-0.062v17.734H305.53z"/>
	<path fill="#034EA2" d="M338.384,30.735c-5.952,0-7.066-3.502-6.811-7.482h4.808c0,2.196,0.094,4.043,2.735,4.043
		c1.624,0,2.42-1.051,2.42-2.61c0-4.139-9.677-4.394-9.677-11.239c0-3.598,1.718-6.462,7.577-6.462c4.679,0,7.003,2.1,6.685,6.908
		h-4.681c0-1.72-0.285-3.471-2.226-3.471c-1.563,0-2.487,0.861-2.487,2.454c0,4.362,9.678,3.978,9.678,11.204
		C346.406,30.034,342.046,30.735,338.384,30.735z"/>
	<path fill="#034EA2" d="M365.383,7.368v16.299c0,3.439-1.942,7.069-7.8,7.069c-5.285,0-7.835-2.738-7.835-7.069V7.368h4.809v15.98
		c0,2.834,1.21,3.948,2.961,3.948c2.102,0,3.057-1.402,3.057-3.948V7.368H365.383z"/>
	<path fill="#034EA2" d="M369.328,30.353V7.368h6.495l6.114,15.917H382V7.368h4.488v22.985h-6.334l-6.273-16.811h-0.064v16.811
		H369.328z"/>
	<path fill="#034EA2" d="M401.038,14.434c0.032-2.133-0.319-4.012-2.865-4.012c-2.993,0-2.993,4.044-2.993,8.5
		c0,7.196,0.702,8.47,3.438,8.47c0.796,0,1.656-0.191,2.389-0.446v-5.095h-2.611v-3.533h7.416v11.654
		c-1.302,0.254-4.582,0.764-6.492,0.764c-8.088,0-9.012-3.343-9.012-12.067c0-5.792,0.287-11.683,8.151-11.683
		c4.713,0,7.641,2.642,7.352,7.449H401.038z"/>
	<path fill="#034EA2" d="M268.473,65.58V42.594h12.542v3.534h-7.734v5.667h7.129v3.533h-7.129v6.718h7.989v3.534H268.473z"/>
	<path fill="#034EA2" d="M284.424,65.58V42.594h4.807v19.165h7.195v3.821H284.424z"/>
	<path fill="#034EA2" d="M298.527,65.58V42.594h12.543v3.534h-7.736v5.667h7.13v3.533h-7.13v6.718h7.988v3.534H298.527z"/>
	<path fill="#034EA2" d="M314.223,54.088c0-6.081,0-11.876,7.925-11.876c4.903,0,6.878,2.708,6.687,7.642h-4.713
		c0-3.057-0.541-4.202-1.974-4.202c-2.707,0-3.057,2.546-3.057,8.437s0.35,8.438,3.057,8.438c2.229,0,2.133-2.867,2.197-4.682h4.744
		c0,6.141-2.452,8.117-6.941,8.117C314.223,65.962,314.223,60.105,314.223,54.088z"/>
	<path fill="#034EA2" d="M345.833,42.594v3.82h-5.346V65.58h-4.81V46.414h-5.346v-3.82H345.833z"/>
	<path fill="#034EA2" d="M352.774,65.58h-4.806V42.594h8.882c3.278,0,5.38,2.104,5.38,6.018c0,2.929-1.146,5.126-4.267,5.635v0.063
		c1.051,0.127,4.171,0.383,4.171,4.521c0,1.465,0.096,5.793,0.541,6.748h-4.712c-0.637-1.397-0.508-2.961-0.508-4.456
		c0-2.738,0.254-5.064-3.438-5.064h-1.242V65.58z M352.774,52.528h2.132c1.911,0,2.452-1.912,2.452-3.374
		c0-2.198-0.924-3.025-2.452-3.025h-2.132V52.528z"/>
	<path fill="#034EA2" d="M365.542,54.088c0-6.081,0-11.876,7.928-11.876c7.925,0,7.925,5.796,7.925,11.876
		c0,6.017,0,11.874-7.925,11.874C365.542,65.962,365.542,60.105,365.542,54.088z M376.524,54.088c0-5.891-0.351-8.437-3.054-8.437
		c-2.706,0-3.06,2.546-3.06,8.437s0.354,8.438,3.06,8.438C376.173,62.526,376.524,59.979,376.524,54.088z"/>
	<path fill="#034EA2" d="M392.409,55.361v3.248h-7.8v-3.248H392.409z"/>
	<path fill="#034EA2" d="M395.721,65.58V42.594h7.737l3.595,15.631h0.063l3.821-15.631h7.482V65.58h-4.681V47.847h-0.063
		l-4.423,17.732h-4.585l-4.204-17.732h-0.063V65.58H395.721z"/>
	<path fill="#034EA2" d="M422.337,65.58V42.594h12.542v3.534h-7.737v5.667h7.133v3.533h-7.133v6.718h7.992v3.534H422.337z"/>
	<path fill="#034EA2" d="M438.031,54.088c0-6.081,0-11.876,7.928-11.876c4.899,0,6.875,2.708,6.684,7.642h-4.712
		c0-3.057-0.54-4.202-1.972-4.202c-2.708,0-3.059,2.546-3.059,8.437s0.351,8.438,3.059,8.438c2.227,0,2.131-2.867,2.195-4.682h4.744
		c0,6.141-2.45,8.117-6.939,8.117C438.031,65.962,438.031,60.105,438.031,54.088z"/>
	<path fill="#034EA2" d="M466.429,51.795v-9.201h4.807V65.58h-4.807V55.328h-5.509V65.58h-4.808V42.594h4.808v9.201H466.429z"/>
	<path fill="#034EA2" d="M473.654,65.58l6.368-22.985h6.334l6.241,22.985h-5.063l-1.274-5.093h-6.557l-1.306,5.093H473.654z
		 M482.918,47.02h-0.063l-2.197,9.934h4.585L482.918,47.02z"/>
	<path fill="#034EA2" d="M494.889,65.58V42.594h6.494l6.114,15.919h0.063V42.594h4.489V65.58h-6.336l-6.271-16.809h-0.064V65.58
		H494.889z"/>
	<path fill="#034EA2" d="M516.094,65.58V42.594h4.805V65.58H516.094z"/>
	<path fill="#034EA2" d="M524.719,54.088c0-6.081,0-11.876,7.929-11.876c4.901,0,6.874,2.708,6.684,7.642h-4.712
		c0-3.057-0.541-4.202-1.972-4.202c-2.706,0-3.057,2.546-3.057,8.437s0.351,8.438,3.057,8.438c2.227,0,2.13-2.867,2.195-4.682h4.743
		c0,6.141-2.451,8.117-6.938,8.117C524.719,65.962,524.719,60.105,524.719,54.088z"/>
	<path fill="#034EA2" d="M548.883,65.962c-5.953,0-7.067-3.5-6.813-7.482h4.808c0,2.198,0.096,4.046,2.737,4.046
		c1.624,0,2.42-1.052,2.42-2.614c0-4.136-9.679-4.392-9.679-11.237c0-3.597,1.718-6.464,7.577-6.464c4.678,0,7.003,2.104,6.685,6.91
		h-4.679c0-1.72-0.287-3.47-2.229-3.47c-1.561,0-2.484,0.86-2.484,2.453c0,4.361,9.678,3.979,9.678,11.206
		C556.905,65.261,552.545,65.962,548.883,65.962z"/>
</g>
<path fill="#034EA2" d="M229.198,18.127c-3.119-17.906-56.92-23.493-120.175-12.481c-26.564,4.627-50.548,11.453-69.228,19.132
	c2.869,0.063,4.997,0.721,6.288,2.009c1.011,1.012,1.523,2.401,1.523,4.131v1.777h-6.202v-1.568c0-1.307-0.785-2.118-2.173-2.118
	c-1.166,0-1.886,0.527-2.117,1.565c-0.065,0.289-0.083,0.785,0.028,1.237c0.664,2.713,9.871,4.398,10.876,9.406
	c0.13,0.644,0.31,2.021,0.029,3.996c-0.574,4.038-4.124,5.597-8.64,5.597c-6.302,0-8.863-2.987-8.863-7.104l0.004-1.947h6.648
	l0.004,2.427c0,1.363,0.991,2.117,2.341,2.117c1.281,0,2.026-0.516,2.285-1.57c0.121-0.485,0.172-1.197-0.046-1.744
	c-1.229-3.087-9.831-4.529-10.888-9.521c-0.236-1.122-0.255-2.076-0.059-3.283c0.107-0.655,0.307-1.213,0.55-1.727
	C10.66,38.149-1.46,48.81,0.141,58.016c3.121,17.906,56.922,23.49,120.174,12.478c27.804-4.842,52.799-12.085,71.826-20.206
	c-0.279,0.014-0.542,0.044-0.828,0.044c-4.33,0-8.195-1.622-8.596-6.047c-0.072-0.806-0.086-1.143-0.086-1.602l0-10.173
	c0-0.438,0.053-1.207,0.102-1.605c0.513-4.277,3.895-6.04,8.582-6.04c3.625,0,8.071,1.041,8.562,6.044
	c0.064,0.627,0.057,1.298,0.057,1.519c0,0.003,0,0.003,0,0.006v0.955h-6.267V31.96v-0.006c0-0.032-0.008-0.566-0.077-0.902
	c-0.103-0.51-0.538-1.694-2.323-1.694c-1.761,0-2.219,1.188-2.334,1.695c-0.064,0.281-0.096,0.683-0.096,1.129v11.055
	c-0.004,0.385,0.014,0.683,0.054,0.906c0.031,0.173,0.346,1.696,2.398,1.696c2.035,0,2.349-1.522,2.378-1.696
	c0.054-0.3,0.063-0.658,0.059-0.906v-3.425h-2.465v-3.69h8.716c0,0,0,6.562,0,6.563c-0.002,0.446-0.009,0.778-0.083,1.601
	c-0.107,1.16-0.473,2.142-1.045,2.983C219.032,37.689,230.778,27.199,229.198,18.127z M65.184,49.864L62.01,28.3h-0.113
	l-3.254,21.563h-6.69l4.499-24.351h10.91l4.47,24.351H65.184z M97.352,49.864l-0.148-21.146h-0.107L93.16,49.864h-6.276
	l-3.916-21.146h-0.11l-0.143,21.146h-6.221l0.539-24.351h10.003l2.914,18.089h0.143l2.919-18.089h10l0.536,24.351H97.352z
	 M126.639,45.144c-0.669,4.717-5.29,5.54-8.555,5.54c-5.422,0-8.774-2.318-8.774-7.034l0.002-1.924h6.569l0.005,2.397
	c0,1.302,0.917,2.098,2.333,2.098c1.265,0,2.003-0.508,2.26-1.551c0.118-0.484,0.169-1.193-0.043-1.728
	c-1.208-3.028-9.742-4.51-10.78-9.425c-0.237-1.112-0.254-2.059-0.059-3.252c0.722-4.455,4.997-5.38,8.438-5.38
	c3.076,0,5.314,0.672,6.659,2.015c1.002,1.001,1.51,2.378,1.51,4.091v1.757h-6.144v-1.551c0-1.326-0.824-2.095-2.149-2.095
	c-1.174,0-1.882,0.521-2.114,1.549c-0.047,0.217-0.095,0.722,0.03,1.224c0.658,2.701,9.786,4.351,10.786,9.312
	C126.741,41.822,126.916,43.18,126.639,45.144z M149.391,42.934c0.01,0.456-0.036,1.369-0.061,1.601
	c-0.375,4.012-3.244,6.052-8.507,6.052c-5.281,0-8.153-2.04-8.527-6.052c-0.024-0.232-0.07-1.145-0.059-1.599V25.509h6.284v17.977
	c-0.005,0.402,0.015,0.7,0.054,0.907c0.079,0.399,0.477,1.698,2.249,1.698c1.769,0,2.167-1.298,2.25-1.695
	c0.036-0.21,0.056-0.524,0.056-0.91V25.509h6.262C149.391,25.509,149.391,42.936,149.391,42.934z M176.468,49.614h-8.747
	l-5.869-19.286h-0.1l0.328,19.286h-6.095V25.513h9.111l5.426,18.528h0.128l-0.322-18.528h6.14V49.614z"/>
</svg>
