<?xml version="1.0" encoding="utf-8"?>
<!-- Generator: Adobe Illustrator 13.0.0, SVG Export Plug-In . SVG Version: 6.00 Build 14948)  -->
<!DOCTYPE svg PUBLIC "-//W3C//DTD SVG 1.1//EN" "http://www.w3.org/Graphics/SVG/1.1/DTD/svg11.dtd">
<svg version="1.1" id="Layer_1" xmlns="http://www.w3.org/2000/svg" xmlns:xlink="http://www.w3.org/1999/xlink" x="0px" y="0px"
	 width="385.201px" height="102.042px" viewBox="0 0 385.201 102.042" enable-background="new 0 0 385.201 102.042"
	 xml:space="preserve">
<g>
	<polygon fill="#074CA1" points="279.725,78.149 263.585,78.149 263.585,81.748 269.05,81.748 269.038,101.757 274.26,101.757 
		274.276,81.748 279.725,81.748 	"/>
	<polyline fill="#074CA1" points="269.05,81.748 269.038,101.757 274.26,101.757 274.276,81.748 	"/>
	<polygon fill="#074CA1" points="346.725,78.059 346.71,101.757 341.486,101.757 341.501,78.059 	"/>
	<polygon fill="#074CA1" points="216.819,98.166 216.833,78.135 211.608,78.135 211.591,101.757 225.686,101.764 225.686,98.166 	
		"/>
	<polygon fill="#074CA1" points="333.488,78.063 333.478,93.471 327.281,78.063 320.665,78.063 320.648,101.688 325.61,101.688 
		325.624,86.278 331.822,101.688 338.435,101.688 338.453,78.063 	"/>
	<polygon fill="#074CA1" points="199.966,98.161 199.971,91.166 207.675,91.166 207.675,87.567 199.975,87.567 199.977,81.725 
		208.281,81.725 208.281,78.129 194.753,78.129 194.737,101.757 208.591,101.757 208.591,98.161 	"/>
	<polygon fill="#074CA1" points="233.964,98.161 233.968,91.166 241.675,91.166 241.675,87.567 233.973,87.567 233.977,81.725 
		242.28,81.725 242.28,78.129 228.755,78.129 228.737,101.757 242.591,101.757 242.591,98.161 	"/>
	<path fill="#074CA1" d="M276.866,81.633"/>
	<path fill="#074CA1" d="M257.77,99.883"/>
	<g>
		<path fill="#074CA1" d="M317.948,89.938c0-2.525-0.144-4.787-0.333-6.313c0-0.001,0-0.003,0-0.003c0-3.067-2.594-5.56-5.816-5.626
			c-0.644-0.074-1.439-0.118-2.307-0.118c-0.892,0-1.71,0.048-2.365,0.125l0.004-0.007c-2.546,0.044-4.695,1.598-5.496,3.756
			c-0.044,0.088-0.088,0.223-0.132,0.395c-0.008,0.021-0.012,0.041-0.017,0.063c-0.014,0.044-0.022,0.086-0.031,0.134
			c-0.048,0.201-0.085,0.407-0.112,0.614c-0.204,1.306-0.381,3.458-0.418,5.956c0,0.016,0,0.031,0,0.046
			c-0.005,0.32-0.007,0.647-0.007,0.979c0,0.006,0,0.015,0,0.021c0,0.005,0,0.013,0,0.019c0,0.332,0.002,0.656,0.007,0.979
			c0,0.02,0,0.031,0,0.048c0.037,2.496,0.214,4.647,0.418,5.954c0.027,0.21,0.064,0.414,0.112,0.616
			c0.009,0.048,0.02,0.09,0.031,0.134c0.005,0.021,0.009,0.042,0.017,0.063c0.044,0.172,0.088,0.308,0.132,0.395
			c0.801,2.158,2.95,3.712,5.496,3.758l-0.004-0.007c0.655,0.077,1.476,0.124,2.365,0.124c0.865,0,1.663-0.044,2.307-0.116
			c3.223-0.069,5.816-2.561,5.816-5.626c0-0.002,0-0.003,0-0.003c0.189-1.526,0.333-3.786,0.333-6.315c0-0.006,0-0.012,0-0.018
			C317.948,89.954,317.948,89.946,317.948,89.938z M312.294,96.184c-0.156,1.411-1.236,2.51-2.763,2.51
			c-1.527,0-2.606-1.064-2.765-2.51c-1.438-6.646,0-12.44,0-12.44c0.191-1.515,1.236-2.515,2.765-2.515
			c1.503,0,2.604,1.032,2.757,2.457c1.229,6.879,0.108,11.992,0.002,12.459C312.292,96.156,312.298,96.167,312.294,96.184z"/>
	</g>
	<path fill="#074CA1" d="M261.385,96.165v0.003c0,3.065-2.398,5.558-5.625,5.625c-0.642,0.075-1.438,0.12-2.305,0.12
		c-0.893,0-1.712-0.048-2.365-0.127l0.002,0.007c-2.546-0.044-4.693-1.599-5.496-3.756c0,0-0.088-0.222-0.13-0.394
		c-0.008-0.021-0.014-0.043-0.017-0.063c-0.012-0.044-0.022-0.088-0.031-0.134c-0.05-0.202-0.087-0.408-0.111-0.616
		c-0.207-1.306-0.38-3.457-0.416-5.954c-0.002-0.018-0.004-0.031-0.004-0.046c-0.004-0.322-0.008-0.649-0.008-0.979
		c0-0.008,0-0.014,0-0.021c0-0.005,0-0.015,0-0.019c0-0.334,0.004-0.66,0.008-0.979c0-0.019,0.002-0.031,0.004-0.046
		c0.036-2.498,0.209-4.65,0.416-5.954c0.024-0.209,0.063-0.416,0.111-0.618c0.009-0.048,0.02-0.09,0.031-0.133
		c0.003-0.021,0.009-0.044,0.017-0.063c0.042-0.175,0.089-0.307,0.13-0.394c0.803-2.159,2.95-3.713,5.496-3.758l-0.002,0.006
		c0.653-0.076,1.475-0.124,2.365-0.124c0.867,0,1.663,0.044,2.305,0.118c3.227,0.069,5.303,2.559,5.303,5.626v0.002v2.091h-5.318
		l-0.004-2.032c-0.154-1.422-0.739-2.453-2.244-2.453c-1.525,0-2.571,1-2.764,2.514v12.439c0.158,1.447,1.235,2.514,2.764,2.514
		c1.525,0,2.413-1.099,2.57-2.514c0.002-0.015-0.004-0.025-0.004-0.041v-2.59h5.33L261.385,96.165z M384.791,82.953v2.091h-5.319
		l-0.004-1.679c0,0,0.035-1.906-2.26-2.005c0,0-3.201,0-2.644,2.928c0,0,0.556,2.336,4.591,3.85c0,0,6.104,2.24,6.039,7.569
		c0,0,0.529,6.403-7.986,6.272c0,0-8.113,0.725-8.073-5.351l0.004-2.032h5.323v2.09c0,0,0.136,2.213,2.746,2.114
		c0,0,2.528,0.064,2.646-2.634c0,0,0.623-2.205-4.385-4.313c0,0-5.881-2.338-6.16-6.813c0,0-1.147-7.175,7.83-7.238
		C377.138,77.807,384.828,77.475,384.791,82.953z"/>
	<path fill="#074CA1" d="M366.293,96.18c0,0.004,0,0.004,0,0.004c0,3.066-2.396,5.553-5.623,5.623
		c-0.642,0.074-1.438,0.118-2.305,0.118c-0.894,0-1.712-0.046-2.367-0.123l0.004,0.009c-2.546-0.045-4.696-1.602-5.496-3.759
		c0,0-0.088-0.219-0.133-0.392c-0.005-0.021-0.011-0.044-0.016-0.066c-0.014-0.041-0.022-0.084-0.03-0.132
		c-0.049-0.201-0.086-0.407-0.113-0.616c-0.204-1.304-0.379-3.457-0.416-5.955c0-0.014,0-0.029,0-0.045
		c-0.008-0.324-0.008-0.647-0.008-0.979c0-0.006,0-0.014,0-0.021c0-0.006,0-0.011,0-0.019c0-0.331,0-0.657,0.008-0.979
		c0-0.017,0-0.031,0-0.048c0.037-2.498,0.212-4.647,0.416-5.954c0.027-0.209,0.064-0.414,0.113-0.617
		c0.008-0.045,0.019-0.088,0.03-0.131c0.005-0.021,0.011-0.043,0.016-0.063c0.045-0.177,0.089-0.308,0.133-0.394
		c0.8-2.158,2.95-3.715,5.496-3.76L356,77.889c0.655-0.078,1.476-0.123,2.367-0.123c0.866,0,1.663,0.043,2.305,0.115
		c3.227,0.07,5.301,2.561,5.301,5.625c0,0.002,0,0.003,0,0.003v2.095h-5.319l-0.003-2.033c-0.151-1.424-0.739-2.453-2.242-2.453
		c-1.527,0-2.569,0.999-2.765,2.513v12.438c0.156,1.447,1.235,2.514,2.765,2.514c1.524,0,2.413-1.1,2.567-2.514
		c0.006-0.014-0.004-0.025-0.004-0.038V93.44h5.332L366.293,96.18z"/>
	<path fill="#074CA1" d="M298.141,94.424c-0.047-4.037-4.222-4.256-4.222-4.256h-1.387v-0.008c6.148-0.143,5.745-5.696,5.745-5.696
		c0-7.196-5.842-6.384-5.842-6.384h-4.461h-5.226l-0.021,23.623h5.226l0.007-9.947h2.271c3.841,0.543,2.802,5.741,2.802,5.741
		c0,1.887,0.694,4.125,0.694,4.125h5.104C297.956,98.55,298.141,94.424,298.141,94.424z M290.209,81.656
		c0,0,2.779,0.132,2.779,3.026c0,0,0.515,3.467-3.198,3.467h-1.823l0.004-6.494L290.209,81.656L290.209,81.656z"/>
	<g>
		<path fill="#074CA1" d="M241.61,19.631c-3.219-19.03-59.887-25.308-126.565-14.02c-29.839,5.051-56.607,12.767-76.811,21.452
			c0.38-0.068,0.781-0.122,1.223-0.129h3.113c0,0,2.682,0.048,4.215,1.054c0,0,2.586,1.532,2.586,3.735v3.256H43.24v-1.482
			c0,0,0.145-1.964-2.011-2.012c0,0-1.916,0-1.916,1.917c0,0-0.239,1.53,1.82,2.345l5.507,2.873c0,0,3.161,1.484,3.161,4.983v3.542
			c0,0-0.096,2.106-2.011,3.592c0,0-2.586,1.916-6.225,1.916c0,0-4.599,0.049-6.754-1.627c0,0-2.202-1.341-2.202-5.363v-1.726h6.561
			v1.58c0,0-0.096,2.347,2.01,2.395c0,0,2.156,0.145,2.108-2.395c0,0-0.382-1.913-2.346-2.537c0,0-4.981-2.731-5.604-3.162
			c0,0-2.107-1.437-2.107-4.357v-3.544c0,0,0.008-2.2,1.907-3.498c-23.082,10.389-36.7,22.018-34.994,32.09
			C3.365,79.539,60.033,85.817,126.71,74.53c30.265-5.123,57.365-12.988,77.668-21.826h-2.954c-2.682-0.049-4.264-1.435-4.264-1.435
			c-1.965-1.295-1.965-3.546-1.965-3.546v-3.544V35.46v-3.544c0,0,0-2.251,1.965-3.542c0,0,1.582-1.391,4.264-1.438h3.112
			c0,0,2.683,0.048,4.212,1.054c0,0,2.588,1.532,2.588,3.735v3.256h-6.129V33.5c0,0,0.145-1.964-2.012-2.012
			c0,0-1.918,0-1.918,1.917v12.833c0,1.917,1.918,1.917,1.918,1.917c2.154-0.049,2.012-2.012,2.012-2.012v-4.118h-1.868v-3.64h1.868
			v-0.048h6.129v9.578c0,0.728-0.293,1.375-0.673,1.928C231.274,39.943,243.212,29.101,241.61,19.631z M68.19,51.313l-2.777-18.679
			l-2.778,18.679h-6.513l4.022-23.755h10.537l4.118,23.755H68.19z M108.323,51.313c0,0-6.321,0.096-5.938,0V33.499l-3.831,17.814
			h-6.512l-3.832-17.91v17.91h-5.938V27.558h10.057l2.969,13.506l2.97-13.506c0,0,10.056,0.095,10.056,0
			C108.323,27.461,108.323,51.313,108.323,51.313z M132.938,47.146c0,0-0.096,2.106-2.011,3.592c0,0-2.586,1.915-6.225,1.915
			c0,0-4.599,0.05-6.754-1.626c0,0-2.202-1.341-2.202-5.363v-1.726h6.56v1.58c0,0-0.095,2.347,2.011,2.395
			c0,0,2.156,0.145,2.108-2.395c0,0-0.382-1.913-2.346-2.537c0,0-4.981-2.731-5.604-3.162c0,0-2.106-1.437-2.106-4.357v-3.544
			c0,0,0-2.251,1.964-3.542c0,0,1.58-1.391,4.262-1.438h3.112c0,0,2.683,0.048,4.215,1.054c0,0,2.587,1.532,2.587,3.735v3.256
			h-6.132V33.5c0,0,0.145-1.964-2.011-2.012c0,0-1.915,0-1.915,1.917c0,0-0.239,1.53,1.819,2.345l5.508,2.873
			c0,0,3.161,1.484,3.161,4.983L132.938,47.146L132.938,47.146z M149.031,52.653c-8.908,0-8.525-6.99-8.525-6.99s0-18.583,0-18.104
			h6.801v18.295c0,0-0.096,2.106,1.821,2.106c1.867,0,1.819-2.106,1.819-2.106V27.558h6.8c0,0.193,0,18.104,0,18.104
			S158.321,52.653,149.031,52.653z M186.48,51.313h-7.663l-6.513-14.176v14.176h-5.939V27.558h7.567l6.609,14.464V27.558h5.938
			L186.48,51.313L186.48,51.313z"/>
	</g>
</g>
</svg>
