<svg xmlns="http://www.w3.org/2000/svg" width="2500" height="2500" viewBox="0 0 192.756 192.756"><g fill-rule="evenodd" clip-rule="evenodd"><path fill="#fff" d="M0 0h192.756v192.756H0V0z"/><path d="M36.971 66.695c3.116 0 6.798.284 7.931.851v3.965c0 3.965 2.266 4.532 2.266 4.532v3.682c0 2.549-.566 4.249-.566 4.249-1.133.283-3.965 1.133-7.081 3.399-2.266 1.699-4.249 4.248-4.249 6.798 0 1.699.283 2.832.85 3.964 0 0-1.133.566-3.116.566-2.549-.283-5.381-2.266-7.081-5.381-2.266-3.965-3.398-8.781-5.948-8.781-2.549 0-2.549 2.549-4.531 2.549-2.266 0-3.683-3.682-4.249-5.381-1.416-2.549-4.814-3.399-5.098-7.364h10.763V59.048h10.197v6.514c.284.283 1.133.567 2.266.85l-1.133 5.098h-3.116l-1.133 4.532h3.116l-1.133 5.665c0 .85-.283 2.832 0 3.683.566 2.266 1.983 3.115 3.966 3.115 2.833 0 5.381-1.417 5.381-1.417l1.133-3.682h-1.983c-.566 0-1.133 0-.85-1.416l1.416-5.948h3.116l1.133-4.532h-3.115l.848-4.815z" fill="#a64938"/><path fill="#a64938" d="M30.74 68.395h3.965l-3.116 14.729h-3.964l3.115-14.729zM33.572 63.013c1.132 0 2.266.85 2.266 2.266 0 1.133-1.134 1.983-2.266 1.983-1.133 0-2.266-.85-2.266-1.983 0-1.416 1.133-2.266 2.266-2.266z"/><path d="M132.141 81.141c2.266 0 3.682.283 3.965.566.566 0 .283-.283.566-.566h.283l1.416 3.965-.566.284c-.85-1.134-2.549-2.267-5.381-2.267-1.133 0-3.4.283-3.4 1.983 0 3.399 10.48 1.416 10.48 8.214 0 3.115-2.549 5.381-7.363 5.381-1.699 0-3.117-.283-4.533-.85-.283 0-.566.283-.566.566l-.566.283-1.699-5.098.566-.283c1.416 1.7 3.4 3.115 6.799 3.115 2.832 0 3.682-1.132 3.682-2.265 0-3.966-10.197-1.417-10.197-8.214-.002-3.115 3.115-4.814 6.514-4.814zM73.226 98.418v-.566c1.133-.283 1.699-.566 1.699-2.265V83.973c0-1.699-.566-1.982-1.699-2.266v-.566h13.312l1.416 3.682-.566.284c-1.133-1.417-2.266-1.7-4.249-1.7h-3.115c-1.133 0-1.416.283-1.416 1.133v3.683h4.531c1.7 0 1.983-.284 2.266-1.133h.566v4.532h-.566c-.283-.85-.566-1.133-2.266-1.133h-4.531v4.532c0 1.132.283 1.132 1.416 1.132h3.965c1.699 0 3.116 0 4.532-1.699l.283.284-1.133 3.681H73.226v-.001z" fill="#0c0e0f"/><path d="M68.978 95.586c0 1.699.566 1.982 1.416 2.265v.566H63.03v-.566c.85-.283 1.699-.566 1.699-2.265V79.158c0-.85-.566-.85-1.699-.85-3.682 0-5.098 0-6.515 1.417h-.284l1.417-3.965h18.411l1.416 3.965h-.566c-1.133-1.417-2.833-1.417-6.515-1.417-1.133 0-1.416 0-1.416.85v16.428zM96.168 89.921l-4.815-6.231c-.85-1.416-1.416-1.699-2.549-1.982v-.566h7.931v.566c-.85 0-1.416.85-.566 1.982l2.267 3.399 2.832-3.682c.566-.85.566-1.699-.566-1.699v-.566h6.514v.566c-1.133.283-1.982.566-3.115 1.699l-3.965 5.665 4.814 6.798c.566.849 1.133 1.416 1.133 1.416s.85-.283 1.982-3.115l5.381-13.029h3.4l6.23 14.729c.283.849 1.133 1.699 1.982 1.982v.566h-7.363v-.566c.566 0 1.699-.283.85-1.982l-.85-2.266h-7.082l-.85 2.266c-.85 1.699.566 1.982.85 1.982v.566H99.568v-.566c.566 0 1.982-.566.848-1.982l-2.832-3.682-2.832 3.965c-.85 1.133 0 1.699.566 1.699v.566h-6.515v-.566c1.133-.283 2.266-.85 3.116-2.265l4.249-5.667zm18.127-5.381l-2.832 6.798h5.383l-2.551-6.798zM7.514 100.967c0-1.697-.85-1.982-1.7-2.266v-.283h7.365v.283c-.567.283-1.417.568-1.417 2.266v17.279c0 1.699.85 1.982 1.417 2.266v.566H5.814v-.566c.85-.283 1.7-.566 1.7-2.266v-17.279zM31.023 121.078h-.566l-11.613-12.18v9.348c0 1.699.85 1.982 1.416 2.266v.566h-5.098v-.566c.85-.283 1.416-.566 1.416-2.266v-11.613c0-1.699-.566-1.982-1.416-2.266v-.566h4.814l8.781 9.629v-6.797c0-1.699-.566-1.982-1.416-2.266v-.566h5.381v.566c-.85.283-1.7.566-1.7 2.266v14.445h.001zM98.15 115.131c0 5.098-4.531 6.23-7.364 6.23-3.115 0-7.647-1.133-7.647-5.947v-8.781c0-1.699-.85-2.266-1.699-2.266v-.566h7.081v.566c-.85 0-1.699.566-1.699 2.266v8.498c0 2.832 1.699 3.965 4.531 3.965 2.55 0 4.532-1.133 4.532-3.965v-8.498c0-1.699-.85-1.982-1.7-2.266v-.566h5.383v.566c-.852.283-1.418.566-1.418 2.266v8.498zM53.965 107.199c0-1.133 0-1.133-.85-1.133-2.832 0-3.398 0-5.098 1.982l-.283-.283 1.133-3.965h14.162l1.416 3.965-.566.283c-1.417-1.982-1.983-1.982-4.815-1.982-.85 0-1.133 0-1.133 1.133v11.047c0 1.699.566 1.982 1.699 2.266v.566h-7.081v-.566c1.133-.283 1.416-.566 1.416-2.266v-11.047zM40.937 103.518c1.982 0 3.399.566 3.682.566.566.283.566-.283.566-.283l.566-.283 1.133 4.248h-.566c-.85-.85-2.266-1.982-5.099-1.982-1.416 0-3.682.283-3.682 1.982 0 3.115 10.763 1.416 10.763 8.215 0 3.115-2.549 5.098-7.364 5.098-1.983 0-3.399-.283-4.815-.566-.283 0-.283.283-.567.283 0 .283-.566.283-.566.283l-1.7-4.814.567-.283c1.416 1.699 3.399 3.115 6.797 3.115 2.833 0 3.683-1.133 3.683-2.266 0-3.967-10.197-1.416-10.197-8.215.001-3.116 3.4-5.098 6.799-5.098zM121.094 118.246c0 1.699.85 1.982 1.699 2.266v.566h-7.08v-.566c.85-.283 1.699-.566 1.699-2.266v-8.215l-6.232 11.33h-.566l-6.23-11.613v8.498c0 1.699.85 1.982 1.699 2.266v.566h-5.381v-.566c.566-.283 1.416-.566 1.416-2.266v-11.613c0-1.699-.85-1.982-1.416-2.266v-.566h5.381l5.664 11.33 6.232-11.33h4.814v.566c-.85.283-1.699.566-1.699 2.266v11.613zM156.781 121.078h-.566l-11.611-12.18v9.348c0 1.699.85 1.982 1.416 2.266v.566h-5.383v-.566c.85-.283 1.699-.566 1.699-2.266v-11.613c0-1.699-.566-1.982-1.699-2.266v-.566h5.1l8.779 9.629v-6.797c0-1.699-.85-1.982-1.699-2.266v-.566h5.383v.566c-.566.283-1.418.566-1.418 2.266v14.445h-.001zM124.775 121.078v-.566c.85-.283 1.416-.85 1.416-2.266v-11.613c0-1.699-.566-1.982-1.416-2.266v-.566h13.312l1.133 3.682-.283.283c-1.133-1.416-2.549-1.699-4.248-1.699h-3.398c-.85 0-1.133.283-1.133 1.133v3.682h4.248c1.699 0 2.266-.566 2.266-1.133h.566v4.531h-.566c0-.85-.566-1.133-2.266-1.133h-4.248v4.533c0 .85.283 1.133 1.133 1.133h3.965c1.699 0 3.398 0 4.531-1.699l.566.283-1.416 3.682h-14.162v-.001zM164.713 107.199c0-1.133-.283-1.133-.85-1.133-3.115 0-3.398 0-5.098 1.982l-.283-.283 1.133-3.965h14.162l1.416 3.965-.566.283c-1.416-1.982-1.982-1.982-4.816-1.982-.85 0-1.133 0-1.133 1.133v11.047c0 1.699.566 1.982 1.699 2.266v.566h-7.08v-.566c.85-.283 1.416-.566 1.416-2.266v-11.047zM182.557 103.518c1.982 0 3.398.566 3.965.566.285.283.285-.283.285-.283.283 0 .566-.283.566-.283l1.133 4.248h-.283c-.85-.85-2.551-1.982-5.383-1.982-1.416 0-3.398.283-3.398 1.982 0 3.115 10.48 1.416 10.48 8.215 0 3.115-2.549 5.098-7.365 5.098-1.982 0-3.398-.283-4.814-.566-.283 0-.283.283-.283.283-.283.283-.566.283-.566.283l-1.982-4.814.566-.283c1.416 1.699 3.682 3.115 6.797 3.115 2.832 0 3.682-1.133 3.682-2.266 0-3.967-10.195-1.416-10.195-8.215-.002-3.116 3.396-5.098 6.795-5.098z" fill="#0c0e0f"/><path d="M73.792 103.801c3.682 0 6.515 1.416 6.515 4.531 0 3.398-3.116 3.965-4.815 4.248 4.532 1.699 4.815 7.648 7.647 7.648v.283c-.566.283-1.133.566-2.549.566-6.231 0-4.815-7.648-8.78-7.648h-1.983v4.816c0 1.699.566 1.982 1.416 2.266v.566h-6.798v-.566c.85-.283 1.417-.566 1.417-2.266v-11.613c0-1.699-.566-1.982-1.417-2.266v-.566h9.347v.001zm-3.965 7.646h2.266c1.982 0 4.248-.85 4.248-2.832 0-1.133-.849-2.832-3.398-2.832H70.96c-.849 0-1.132.283-1.132 1.416v4.248h-.001z" fill="#0c0e0f"/></g></svg>